<?xml version="1.0" encoding="utf-8" ?>
<svg baseProfile="full" height="200mm" version="1.1" viewBox="0,0,200,200" width="200mm" xmlns="http://www.w3.org/2000/svg" xmlns:ev="http://www.w3.org/2001/xml-events" xmlns:xlink="http://www.w3.org/1999/xlink"><defs /><rect fill="#1a1a1a" height="200" width="200" x="0" y="0" /><text alignment-baseline="middle" fill="#e1ed5e" style="dominant-baseline: central; font-size:9.0px; font-family:Arial;" text-anchor="middle" x="100.0" y="100.0">2022</text><line stroke="#e1ed5e" stroke-width="0.3" x1="100.0" x2="100.0" y1="15.0" y2="10.0" /><path d="M 100.0 14.0 a86.0,86.0 0 0,1 42.46469731375804,11.215312516191453" fill="none" id="id49" stroke="none" /><text fill="#e1ed5e" style="font-size:6.75px; font-family:Arial;" text-anchor="middle"><textPath startOffset="22.20632615414155" xlink:href="#id49">January</textPath></text><path d="M 100.36148047927253 79.00311137660856 l 0.43402068438269814 -25.210445633389458 a46.21418138644516,46.21418138644516 0 0,0 0.7952654394921141,0.020539360040494607 l -0.8679127590696801 25.199239481206604" fill="#ceff1d" stroke="none" /><path d="M 101.08401301168833 79.027996857942 l 0.7816488720140985 -15.122274754188037 a36.14246243846336,36.14246243846336 0 0,0 0.621027242675543,0.03746205923002429 l -1.0418381635292533 15.10657942557771" fill="#ffb210" stroke="none" /><path d="M 101.44485096284872 79.0497635885617 l 1.0410739514157514 -15.095498404172718 a36.13135509604799,36.13135509604799 0 0,0 0.6200997546785079,0.04813167550416327 l -1.3007638954566005 15.07534146648009" fill="#ffb210" stroke="none" /><path d="M 102.16513564639614 79.11191278185805 l 1.8276594384697626 -17.632294687568972 a38.72676380426785,38.72676380426785 0 0,0 0.6624734773241615,0.07443661410135806 l -2.1308996193036496 17.598222119997015" fill="#ffd413" stroke="none" /><path d="M 102.52436894288641 79.15227682838746 l 4.548445175993625 -37.5637349514954 a58.8381095857763,58.8381095857763 0 0,0 1.0044093185210534,0.130401156284491 l -5.194369223022525 37.479875472046764" fill="#42ff2d" stroke="none" /><path d="M 103.2404852339499 79.25152402106235 l 3.115076789881274 -19.945499294442083 a41.18728920661332,41.18728920661332 0 0,0 0.699538244681453,0.11542980424741216 l -3.457944240701602 19.88892322725505" fill="#fff316" stroke="none" /><path d="M 103.59715602781102 79.31037775812273 l 4.323291858861949 -24.866109423579356 a46.239141236625386,46.239141236625386 0 0,0 0.7829935342740968,0.14308706361987225 l -4.7506805142389466 24.788006878608744" fill="#cdff1d" stroke="none" /><path d="M 103.95276090670814 79.375362276772 l 0.48436265438392395 -2.52729788345561 a23.573293953803383,23.573293953803383 0 0,0 0.3978651055587351,0.07980799725449927 l -0.5277941694097844 2.518585930123902" fill="#ff0000" stroke="none" /><path d="M 104.307194497241 79.44645832069477 l 5.212546526654548 -24.87379949048938 a46.414101250793976,46.414101250793976 0 0,0 0.7805465504091778,0.17059724355108888 l -5.639935801217254 24.78038874884242" fill="#cbff1d" stroke="none" /><path d="M 104.66035177308747 79.52364482259891 l 2.8245293425321356 -12.410236145835597 a33.72760492795991,33.72760492795991 0 0,0 0.5649796432924933,0.13371242780716408 l -3.0377326727871528 12.359777805887564" fill="#ff910d" stroke="none" /><path d="M 105.01212808612495 79.60689891045804 l 3.6301751661520636 -14.770278784578977 a36.20984244202191,36.20984244202191 0 0,0 0.6039993309312381,0.15397287806047247 l -3.8838833857683266 14.705602910349636" fill="#ffb310" stroke="none" /><path d="M 105.71112130821622 79.79150937346287 l 6.8583188239060515 -24.26778633949154 a46.21828683534146,46.21828683534146 0 0,0 0.7637236977108588,0.22295189004451318 l -7.275032739340338 24.146136120528325" fill="#cdff1d" stroke="none" /><path d="M 106.0581310904928 79.89281104454417 l 7.2713342183073095 -24.13386057545411 a46.20546622440825,46.20546622440825 0 0,0 0.7595620381612662,0.23599962261525143 l -7.685681629179293 24.00512081795634" fill="#ceff1d" stroke="none" /><path d="M 106.40334571778207 80.00007090966166 l 7.700266410326144 -24.050674283533727 a46.2532975328496,46.2532975328496 0 0,0 0.7561691224266515,0.24929707087965258 l -8.113118354995212 23.91456348839484" fill="#cdff1d" stroke="none" /><path d="M 107.08798089147638 80.2323363322302 l 9.395122010353738 -26.202047502931357 a48.83550989177861,48.83550989177861 0 0,0 0.788850861199975,0.290540429566225 l -9.84475519732629 26.036443805558807" fill="#afff20" stroke="none" /><path d="M 107.4271985657038 80.35727306442388 l 19.06889990470338 -50.431557804248364 a74.91627737649216,74.91627737649216 0 0,0 1.2022879376872588,0.46646904115885307 l -19.934171007390304 50.09584605919896" fill="#41ffd2" stroke="none" /><path d="M 108.43124777332544 80.76684994638697 l 10.120197597735206 -23.08593985166262 a46.20672565510621,46.20672565510621 0 0,0 0.7257049699120861,0.3256026662074254 l -10.516084686114072 22.90831685493866" fill="#ceff1d" stroke="none" /><path d="M 108.76106565485865 80.91482961587045 l 10.508759502797206 -22.8923596212864 a46.18916742010213,46.18916742010213 0 0,0 0.719719141989912,0.33791778754434293 l -10.901256856086716 22.708076851102057" fill="#ceff1d" stroke="none" /><path d="M 109.08828744355905 81.06846463323043 l 5.461039218960951 -11.375724827711663 a33.61863957432992,33.61863957432992 0 0,0 0.5195340240900117,0.25493308930947467 l -5.6560445100613945 11.280036578267355" fill="#ff900d" stroke="none" /><path d="M 109.41281617654863 81.2277094730956 l 6.5600791695525125 -13.082982790755805 a35.63554158253152,35.63554158253152 0 0,0 0.545969608251158,0.2796668389208761 l -6.784309265392426 12.968123426522428" fill="#ffab0f" stroke="none" /><path d="M 109.73455568895987 81.39251694778311 l 11.693002992530692 -22.35103090116323 a46.22488654737788,46.22488654737788 0 0,0 0.7018587642522985,0.37490864495530163 l -12.076006803311303 22.146443529706175" fill="#cdff1d" stroke="none" /><path d="M 110.05341064243156 81.56283822128135 l 24.39196644897189 -44.73294163700863 a71.95099699463977,71.95099699463977 0 0,0 1.0822660341836714,0.60227987627864 l -25.158356572227596 44.306446363169805" fill="#3effb2" stroke="none" /><line stroke="#e1ed5e" stroke-width="0.3" x1="143.23703022742887" x2="145.7803849466894" y1="26.81831364943548" y2="22.513508569990506" /><path d="M 143.74570117128098 25.957352633546492 a86.0,86.0 0 0,1 28.547481713284135,27.462654790039103" fill="none" id="id50" stroke="none" /><text fill="#e1ed5e" style="font-size:6.75px; font-family:Arial;" text-anchor="middle"><textPath startOffset="19.985693538727396" xlink:href="#id50">February</textPath></text><path d="M 112.48926042617603 83.11751280151076 l 14.993044960487016 -20.267003887699072 a46.20997508469999,46.20997508469999 0 0,0 0.6353956209731626,0.47856680858430356 l -15.33968673521856 20.005920489608922" fill="#ceff1d" stroke="none" /><path d="M 112.77801427241765 83.33499621200491 l 8.602502327256815 -11.219328043749874 a35.13776389828785,35.13776389828785 0 0,0 0.4768151807383954,0.37216181168339185 l -8.79435006315464 11.069587842843257" fill="#ffa40f" stroke="none" /><path d="M 113.06298171725822 83.55741782278167 l 7.8536925531972415 -9.885567322653902 a33.625566443168736,33.625566443168736 0 0,0 0.45009678326279157,0.36394696326534004 l -8.022692735024524 9.748914262124433" fill="#ff900d" stroke="none" /><path d="M 113.34407831869373 83.78471172551755 l 8.022788862761228 -9.749031073411402 a33.625717722442026,33.625717722442026 0 0,0 0.4437673443388115,0.37164238881813955 l -8.189413744059156 9.609487527199443" fill="#ff900d" stroke="none" /><path d="M 114.16331599549186 84.49514656593476 l 20.41602956527099 -22.349818800613185 a51.27092108988859,51.27092108988859 0 0,0 0.6464826521513819,0.6008351689500274 l -20.79772010121722 21.99507904558852" fill="#93ff23" stroke="none" /><path d="M 114.42810811169701 84.74124197986012 l 3.713709043281857 -3.9275133794362733 a26.40527484997797,26.40527484997797 0 0,0 0.3275722169256596,0.31512421314735717 l -3.7807645038199347 3.863006079526614" fill="#ff2a04" stroke="none" /><path d="M 114.68862486808459 84.99185889309783 l 3.575404710994921 -3.6531791708757773 a26.111676525556494,26.111676525556494 0 0,0 0.31851793921232796,0.31715012195668246 l -3.6377584503745717 3.591093198268976" fill="#ff2603" stroke="none" /><path d="M 114.94478906791727 85.2469230424477 l 9.135087578358924 -9.017902457173399 a33.83636980580497,33.83636980580497 0 0,0 0.40561064127039065,0.4180174200110874 l -9.288962483332424 8.859320841612197" fill="#ff930d" stroke="none" /><path d="M 115.19652480421416 85.50635884689758 l 9.11680253670878 -8.695123795284315 a33.59846285499383,33.59846285499383 0 0,0 0.39555418806266907,0.4219496286070732 l -9.265124046741914 8.536904749799188" fill="#ff8f0d" stroke="none" /><path d="M 115.68641384162765 86.03803664274999 l 41.40706243574758 -36.85507052766139 a76.43321245568214,76.43321245568214 0 0,0 0.8662726884445384,0.9902994332679141 l -42.03532698776996 36.13685553819053" fill="#43ffe2" stroke="none" /><path d="M 115.9244219780498 86.31012108654704 l 2.192432381561369 -1.884786391046398 a23.891224565403483,23.891224565403483 0 0,0 0.26540805342402346,0.3141594212446386 l -2.2245510484725095 1.8467680201726528" fill="#ff0500" stroke="none" /><path d="M 116.38621287248628 86.86637796730983 l 9.85267903548827 -7.896965788769177 a33.62685047212253,33.62685047212253 0 0,0 0.35811942336033986,0.45477530007079336 l -9.987152539442574 7.726198094745345" fill="#ff900d" stroke="none" /><path d="M 116.82858285166822 87.43820079747576 l 12.135932426365654 -9.058941422408363 a36.14414987881259,36.14414987881259 0 0,0 0.36787410323873004,0.5017798633923952 l -12.29006914211801 8.848699115344475" fill="#ffb210" stroke="none" /><path d="M 117.2510076193507 88.02491185347247 l 20.71991304512029 -14.383089415912048 a46.22276863755181,46.22276863755181 0 0,0 0.44808689636476773,0.6575122293963875 l -20.964424407153793 14.024299163245255" fill="#cdff1d" stroke="none" /><path d="M 117.45458315368197 88.32363383020206 l 16.769952966741734 -11.218377990806388 a41.17630608538984,41.17630608538984 0 0,0 0.38902465099396644,0.5925112329109993 l -16.960574253093625 10.928048693917715" fill="#fff316" stroke="none" /><line stroke="#e1ed5e" stroke-width="0.3" x1="172.23445277983987" x2="176.4835382374775" y1="55.19839476539836" y2="52.563006222186495" /><path d="M 173.08426987136738 54.67131705675599 a86.0,86.0 0 0,1 12.851231095245387,41.99856678651699" fill="none" id="id51" stroke="none" /><text fill="#e1ed5e" style="font-size:6.75px; font-family:Arial;" text-anchor="middle"><textPath startOffset="22.20632615414155" xlink:href="#id51">March</textPath></text><path d="M 117.84615892207809 88.93136811851018 l 10.724177335450479 -6.65140166442581 a33.61939474078358,33.61939474078358 0 0,0 0.3007882449034497,0.4944167876774441 l -10.837081378640153 6.465817103541285" fill="#ff900d" stroke="none" /><path d="M 118.03404312379186 89.2402003453031 l 13.009576309416563 -7.762010644032486 a36.14918760160446,36.14918760160446 0 0,0 0.3142230701157184,0.5371090837324717 l -13.141259054002608 7.536922147946119" fill="#ffb210" stroke="none" /><path d="M 118.3937258080291 89.86733742301442 l 22.09713658388876 -12.172782787942412 a46.22816057522748,46.22816057522748 0 0,0 0.3779524170854682,0.700288427835265 l -22.30339710019269 11.790613376774688" fill="#cdff1d" stroke="none" /><path d="M 118.56541770881063 90.18545643968196 l 16.284928424340922 -8.608970824367987 a39.42045798672569,39.42045798672569 0 0,0 0.31196705990008383,0.6026210626061426 l -16.430704917401123 8.3273770395015" fill="#ffdc14" stroke="none" /><path d="M 118.89224826269711 90.83032412892265 l 11.401426312365354 -5.533877297113044 a33.67344940794732,33.67344940794732 0 0,0 0.24860916265649513,0.5236342997957025 l -11.494993668863605 5.336800581676801" fill="#ff910d" stroke="none" /><path d="M 119.04729006885535 91.15688171328212 l 11.50228154322874 -5.340184135706622 a33.68148442821081,33.68148442821081 0 0,0 0.23961598737189535,0.5279620658712275 l -11.592499847563984 5.141400060993331" fill="#ff910d" stroke="none" /><path d="M 119.47837535516314 92.15188598940014 l 25.756354482726696 -10.377600944232896 a48.76840646485893,48.76840646485893 0 0,0 0.3070237093640633,0.7813418516546975 l -25.93117174197246 9.932710087682414" fill="#b0ff20" stroke="none" /><path d="M 119.61058180528143 92.48833698450437 l 24.002903336006177 -9.194103624454241 a46.70351940911709,46.70351940911709 0 0,0 0.2811005025779851,0.7532095925318774 l -24.157608427085787 8.77957089489303" fill="#c8ff1d" stroke="none" /><path d="M 119.85752413597 93.16781622104841 l 11.928590516398746 -4.104153270762936 a33.61488588049183,33.61488588049183 0 0,0 0.18354160879096712,0.548766048668073 l -11.997469418961483 3.898214119172549" fill="#ff900d" stroke="none" /><path d="M 119.97218684219823 93.5106431181261 l 12.03601391951913 -3.910737986585189 a33.65541396678033,33.65541396678033 0 0,0 0.17427817668563256,0.5525094458998804 l -12.10154757997297 3.702978374258889" fill="#ff900d" stroke="none" /><path d="M 120.08093135843002 93.85539295169968 l 12.137894500632445 -3.7141002460925114 a33.69342442158568,33.69342442158568 0 0,0 0.16492787317388388,0.5560547983046855 l -12.20002827091803 3.504616061041296" fill="#ff910d" stroke="none" /><path d="M 120.28053869075195 94.5502522615342 l 12.311771147701219 -3.3083956985466747 a33.74853681374966,33.74853681374966 0 0,0 0.1459281398427903,0.5623206506489151 l -12.366895619414311 3.0959786223489094" fill="#ff920d" stroke="none" /><path d="M 120.37134235888165 94.90015583598534 l 3.7815911530290607 -0.9466988101575168 a24.89829068770164,24.89829068770164 0 0,0 0.1005027799946945,0.41664890733787796 l -3.797326733284575 0.8814646711602326" fill="#ff1402" stroke="none" /><path d="M 120.45610955862082 95.25157060432595 l 20.114196410755767 -4.669061887525092 a41.64899600852302,41.64899600852302 0 0,0 0.15609570293335687,0.6997464289587305 l -20.191586500691162 4.322137289016397" fill="#fff917" stroke="none" /><path d="M 120.53481517161879 95.60439243477599 l 12.432957572788355 -2.661353506633464 a33.71460720958479,33.71460720958479 0 0,0 0.11658945302425568,0.5685315788477391 l -12.476926321727607 2.446946271622313" fill="#ff910d" stroke="none" /><path d="M 120.6074358757038 95.95851677861258 l 12.493117172035776 -2.4501215841772153 a33.73110648967584,33.73110648967584 0 0,0 0.10683810142286837,0.5707334098679354 l -12.533440997368503 2.234710096846717" fill="#ff910d" stroke="none" /><path d="M 120.67395015179393 96.31383870115 l 12.467801400255203 -2.223006569423335 a33.66443168736382,33.66443168736382 0 0,0 0.09680630297997708,0.5713562800784335 l -12.504219564755402 2.008064501029063" fill="#ff900d" stroke="none" /><path d="M 120.73433829027371 96.67025291283417 l 4.996674184464096 -0.8024206549692786 a26.060694795501036,26.060694795501036 0 0,0 0.06731614788252577,0.44352930721862455 l -5.009746225785922 0.7162922353585719" fill="#ff2503" stroke="none" /><path d="M 120.83666639777658 97.38593545837742 l 14.528033242096958 -1.8226147999246265 a35.641914990614396,35.641914990614396 0 0,0 0.07113047978727342,0.6094025121653999 l -14.55725407488782 1.572268549434374" fill="#ffab0f" stroke="none" /><path d="M 120.87857604477298 97.74499172005257 l 25.06543390848246 -2.707213407796249 a46.21120745731656,46.21120745731656 0 0,0 0.07860938838429413,0.7915858132424027 l -25.108320422548985 2.2753520638494114" fill="#ceff1d" stroke="none" /><path d="M 120.94382443527127 98.46500227214037 l 12.626584640839695 -0.925417360817618 a33.6604516895722,33.6604516895722 0 0,0 0.03737818285358319,0.5782239447696084 l -12.640643414697694 0.7079343517949744" fill="#ff900d" stroke="none" /><path d="M 120.96714384426684 98.82574320788733 l 7.563949864277329 -0.4236160904555441 a28.575802805075767,28.575802805075767 0 0,0 0.023277565610760786,0.4913526196306756 l -7.570121038121586 0.2933523642018687" fill="#ff4906" stroke="none" /><path d="M 120.98425023603335 99.18683210126433 l 53.39351612972886 -2.069070509022289 a74.43359072219386,74.43359072219386 0 0,0 0.038593127549843315,1.280718017251346 l -53.42122095173435 1.1496823443459445" fill="#41ffcd" stroke="none" /><line stroke="#e1ed5e" stroke-width="0.3" x1="184.98032266829074" x2="189.97916517819016" y1="98.17113171792111" y2="98.06355123074" /><path d="M 185.9800911702706 98.14961562048488 a86.0,86.0 0 0,1 -9.607161424134198,41.387399972396054" fill="none" id="id52" stroke="none" /><text fill="#e1ed5e" style="font-size:6.75px; font-family:Arial;" text-anchor="middle"><textPath startOffset="21.466115282336823" xlink:href="#id52">April</textPath></text><path d="M 120.99980553446 99.90962569577887 l 25.634643050322307 -0.11032068967630464 a46.63488043607788,46.63488043607788 0 0,0 -0.003454762376100441,0.8027651077498366 l -25.632743990656703 -0.3309538962772166" fill="#c9ff1d" stroke="none" /><path d="M 120.9764740272857 100.99374915477107 l 16.62364901885697 0.7875364153294523 a37.642293120469134,37.642293120469134 0 0,0 -0.0362327669012349,0.6469603928176108 l -16.607629901068208 -1.0735685244824864" fill="#ffc512" stroke="none" /><path d="M 120.89721153311464 102.0752229133903 l 25.087632647266652 2.4913577598535515 a46.21103280970024,46.21103280970024 0 0,0 -0.08541933042533063,0.7908769124432785 l -25.04103101534027 -2.9228309941816213" fill="#ceff1d" stroke="none" /><path d="M 120.8583938346157 102.4346265915055 l 25.06357233473115 2.9254620546569283 a46.23372716051947,46.23372716051947 0 0,0 -0.09906894971982773,0.7896770040761423 l -25.00950187576447 -3.3564568130204657" fill="#cdff1d" stroke="none" /><path d="M 120.70491114924044 103.5080841355445 l 24.850586743172855 4.210496170899786 a46.20476025446622,46.20476025446622 0 0,0 -0.1396122104290826,0.7830194191157895 l -24.774428090404584 -4.637634340748793" fill="#ceff1d" stroke="none" /><path d="M 120.64145759157962 103.86396538481128 l 17.632871754169457 3.3007749472460275 a38.93915498431724,38.93915498431724 0 0,0 -0.12899998200618823,0.6577681290600168 l -17.573441839187605 -3.6038068033739896" fill="#ffd614" stroke="none" /><path d="M 120.49622156327973 104.57218783832717 l 14.769885536682485 3.294787325352174 a36.13291585537975,36.13291585537975 0 0,0 -0.14064209968084262,0.6058824844793428 l -14.71098287107109 -3.5485384671800815" fill="#ffb210" stroke="none" /><path d="M 120.41448212921028 104.9243191809786 l 3.2172073073121936 0.7760449445794886 a24.309481623189704,24.309481623189704 0 0,0 -0.10162368770800927,0.40593611637777294 l -3.2033723053091236 -0.8313089003546574" fill="#ff0b01" stroke="none" /><path d="M 120.23288151984713 105.62410040840565 l 17.029100656642946 4.733550772976122 a38.67474956242436,38.67474956242436 0 0,0 -0.18381070347219314,0.6398691724855611 l -16.945097316284656 -5.0259774209662655" fill="#ffd313" stroke="none" /><path d="M 120.13307415673323 105.97154293290107 l 26.576351975448972 7.882642540618083 a48.72072397586528,48.72072397586528 0 0,0 -0.24539753432214828,0.8019733407710918 l -26.43672766862069 -8.338942853941232" fill="#b0ff20" stroke="none" /><path d="M 120.02730092923936 106.31721596034902 l 51.01783844030483 16.092568059786082 a74.4957062377897,74.4957062377897 0 0,0 -0.3962736977513532,1.2196050357849106 l -50.73327249153723 -16.968371995548786" fill="#41ffce" stroke="none" /><path d="M 119.79798401119884 107.00284435728193 l 45.16405778129739 15.97520570815743 a68.90615109451306,68.90615109451306 0 0,0 -0.405154187032405,1.1148103159137714 l -44.882379333259756 -16.750263821077333" fill="#3aff91" stroke="none" /><path d="M 119.26925614724726 108.34839909993367 l 11.596221775108434 5.024059397527723 a33.63778193700879,33.63778193700879 0 0,0 -0.2347579444159043,0.5293171903705132 l -11.508022745961258 -5.222924924390924" fill="#ff900d" stroke="none" /><path d="M 118.97047184881838 109.00673069616215 l 48.28485447117316 22.924505220059977 a74.45053892045362,74.45053892045362 0 0,0 -0.5596083386606223,1.1529589281556485 l -47.88309287589782 -23.7522531041809" fill="#41ffcd" stroke="none" /><line stroke="#e1ed5e" stroke-width="0.3" x1="174.80103733775053" x2="179.2010983576182" y1="140.37084112569926" y2="142.7455964860345" /><path d="M 175.68104954172406 140.8457921977663 a86.0,86.0 0 0,1 -30.038265399797805,32.042727171017184" fill="none" id="id53" stroke="none" /><text fill="#e1ed5e" style="font-size:6.75px; font-family:Arial;" text-anchor="middle"><textPath startOffset="22.206326154141568" xlink:href="#id53">May</textPath></text><path d="M 118.48025628344425 109.97397251340804 l 11.106308046267957 5.994181545964675 a33.62062957322573,33.62062957322573 0 0,0 -0.2792490917458473,0.5069182149004708 l -11.0014825450706 -6.18447027926295" fill="#ff900d" stroke="none" /><path d="M 118.12598468904814 110.60418214915192 l 10.90544186212681 6.379972945296145 a33.63458416375223,33.63458416375223 0 0,0 -0.2966556297649744,0.4972118990860402 l -10.79400535666361 -6.566746938268289" fill="#ff900d" stroke="none" /><path d="M 117.75023020441432 111.22182372390056 l 21.303979654448355 13.468529790691317 a46.2043814413266,46.2043814413266 0 0,0 -0.43079015128016296,0.6685958813813924 l -21.068984639791143 -13.833247271994162" fill="#ceff1d" stroke="none" /><path d="M 117.55443506779139 111.5257021239791 l 21.084881360715855 13.843684569999976 a46.22339835290079,46.22339835290079 0 0,0 -0.4424171202998214,0.6613535669050854 l -20.84346113500531 -14.204575051110869" fill="#cdff1d" stroke="none" /><path d="M 117.35343817320211 111.8261652097733 l 10.42898522811156 7.107231491935205 a33.62047829395244,33.62047829395244 0 0,0 -0.33002356649002124,0.4754235618495629 l -10.305100754459403 -7.285696315971787" fill="#ff900d" stroke="none" /><path d="M 116.93607887273984 112.41649034213515 l 22.38318568027849 16.409973696611317 a48.754175143954456,48.754175143954456 0 0,0 -0.5020257655454448,0.6725455528262235 l -22.097398648037952 -16.792832128946856" fill="#b0ff20" stroke="none" /><path d="M 116.71984013943494 112.70617746262583 l 20.087793953062324 15.265640859703696 a46.230125975867466,46.230125975867466 0 0,0 -0.48694231928627496,0.6294385881627166 l -19.82204481655798 -15.609157441979665" fill="#cdff1d" stroke="none" /><path d="M 116.27256486870786 113.27417163493432 l 21.078114272898695 17.194247425448033 a48.20163682260503,48.20163682260503 0 0,0 -0.5299976549532465,0.6384163176618074 l -20.779020618051906 -17.554525000223613" fill="#b6ff1f" stroke="none" /><path d="M 116.0416608686014 113.55231037782055 l 9.659284359197397 8.1603532661443 a33.64488591328951,33.64488591328951 0 0,0 -0.377555684766822,0.4391825583300173 l -9.517386164859795 -8.325412923635845" fill="#ff900d" stroke="none" /><path d="M 115.80600337817218 113.82643327865902 l 9.516400278854963 8.324550511630733 a33.64357605616711,33.64357605616711 0 0,0 -0.3850445605372774,0.43260164559299186 l -9.371696868669348 -8.48712632696459" fill="#ff900d" stroke="none" /><path d="M 115.32070863581623 114.36230785411682 l 18.396188905725257 17.245398674892186 a46.215541669991985,46.215541669991985 0 0,0 -0.549070231958832,0.575697943054976 l -18.09661212238746 -17.55950373452967" fill="#ceff1d" stroke="none" /><path d="M 114.81725581225074 114.88116024355365 l 17.815079394038165 17.89191295429505 a46.2487148777904,46.2487148777904 0 0,0 -0.5689694138683554,0.5568563236577436 l -17.504460027794014 -18.195919380875367" fill="#cdff1d" stroke="none" /><path d="M 114.29624159901734 115.38237550388516 l 8.607873402172862 9.261842704954683 a33.64425619794052,33.64425619794052 0 0,0 -0.4276031970039324,0.390605382089147 l -8.447170655702065 -9.408640853630413" fill="#ff900d" stroke="none" /><path d="M 113.75828350139079 115.86535959552629 l 17.006631346004315 19.611190726345523 a46.95812611580422,46.95812611580422 0 0,0 -0.6152286499860335,0.5243112026186172 l -16.666537219441235 -19.901026319187086" fill="#c5ff1e" stroke="none" /><path d="M 113.48314897796784 116.09983520530334 l 16.211945560340137 19.35821166890083 a46.25009975959304,46.25009975959304 0 0,0 -0.6147516381281152,0.5058987461009982 l -15.87632379366733 -19.634405533859006" fill="#cdff1d" stroke="none" /><path d="M 112.92097659922987 116.55440617244103 l 17.06070682393042 21.858244861237043 a48.72815510894841,48.72815510894841 0 0,0 -0.66565275306049,0.5103941461572488 l -16.681925342376434 -22.148678349221665" fill="#b0ff20" stroke="none" /><path d="M 112.63410532772338 116.77436683061366 l 7.603724259752489 10.095503931888485 a33.638663784479924,33.638663784479924 0 0,0 -0.4655191081336478,0.34437990720719114 l -7.428820181200277 -10.224893787835445" fill="#ff900d" stroke="none" /><line stroke="#e1ed5e" stroke-width="0.3" x1="143.8653032363475" x2="146.44561519142675" y1="172.8068346515853" y2="177.08958963109032" /><path d="M 144.38136562736335 173.6633856474863 a86.0,86.0 0 0,1 -40.68145358897372,12.25698825130547" fill="none" id="id54" stroke="none" /><text fill="#e1ed5e" style="font-size:6.75px; font-family:Arial;" text-anchor="middle"><textPath startOffset="21.466115282336833" xlink:href="#id54">June</textPath></text><path d="M 109.2508944713604 118.85261126421891 l 6.670128461301757 13.593208673240058 a36.1415301645678,36.1415301645678 0 0,0 -0.5608603257009576,0.269247039762323 l -6.435155467600566 -13.706009989501942" fill="#ffb210" stroke="none" /><path d="M 108.92500713936063 119.00905698771935 l 11.787290682157856 25.10533345343672 a48.734779419240645,48.734779419240645 0 0,0 -0.7624254646874213,0.3499921362303971 l -11.353397221703014 -25.304512660001194" fill="#b0ff20" stroke="none" /><path d="M 108.59647513512805 119.15986991738527 l 11.361614893805822 25.32282825168715 a48.75485405581509,48.75485405581509 0 0,0 -0.7686535327599493,0.33695512011687606 l -10.924040686388118 -25.51464792509848" fill="#b0ff20" stroke="none" /><path d="M 107.93186726928326 119.44442032107085 l 10.481498544637283 25.694663863813748 a48.75027140075588,48.75027140075588 0 0,0 -0.7797232714644221,0.31026798137007594 l -10.037654197130994 -25.871278689589893" fill="#b0ff20" stroke="none" /><path d="M 107.2578585660854 119.70592522655815 l 4.370898604076992 11.867495113130186 a33.646825485760885,33.646825485760885 0 0,0 -0.5452074552242548,0.19549199589128685 l -4.165971588223003 -11.940974650061433" fill="#ff900d" stroke="none" /><path d="M 106.91757812671514 119.82793768551818 l 8.308444841512712 23.814595739059143 a46.22231602964472,46.22231602964472 0 0,0 -0.753490370985151,0.25562484392066415 l -7.897284737590334 -23.95408356987793" fill="#cdff1d" stroke="none" /><path d="M 106.57524785965236 119.94407469862006 l 7.894650692204911 23.946093970238838 a46.213903426154396,46.213903426154396 0 0,0 -0.7576409766501723,0.24257271520991583 l -7.4812883704637985 -24.07843953210846" fill="#ceff1d" stroke="none" /><path d="M 106.2309692047433 120.05430185196036 l 9.964401139119435 32.070309072591705 a54.582644536618055,54.582644536618055 0 0,0 -0.8996390112074238,0.2710538542254571 l -9.410887153471764 -32.237078295922885" fill="#6fff28" stroke="none" /><path d="M 104.83641907484287 120.43548508189849 l 6.485793949121315 27.404644519115084 a49.16167722933993,49.16167722933993 0 0,0 -0.8251666973997178,0.18780525381605823 l -6.0131071023287355 -27.512226506508824" fill="#abff21" stroke="none" /><path d="M 104.13013068566511 120.58985236759428 l 2.48336425104428 12.380262804136635 a33.62687630029113,33.62687630029113 0 0,0 -0.5685061955902181,0.10895556544101463 l -2.2698904408823575 -12.421175567926117" fill="#ff900d" stroke="none" /><path d="M 103.7750983002368 120.6578951692458 l 2.7337731982431936 14.9596104933901 a36.20734894757729,36.20734894757729 0 0,0 -0.6140611699023829,0.10676240546761603 l -2.4758630568687607 -15.004451477378723" fill="#ffb310" stroke="none" /><path d="M 103.41894727170886 120.7198165907248 l 4.514895971843277 27.36158502264288 a48.73158164598409,48.73158164598409 0 0,0 -0.8288177749323308,0.129444290945986 l -4.043242333302429 -27.435247620935975" fill="#b0ff20" stroke="none" /><path d="M 102.70371172650421 120.8252237178851 l 6.879603466057709 52.98985090257052 a74.43456973277549,74.43456973277549 0 0,0 -1.2720250406696605,0.15402451772827408 l -5.966451002336669 -53.10042094902414" fill="#41ffcd" stroke="none" /><path d="M 101.98527174616119 120.90594882070398 l 2.621729637962054 27.608182979957288 a48.73238600894939,48.73238600894939 0 0,0 -0.8357736062445579,0.07211406349870972 l -2.1461117139759542 -27.649221295734662" fill="#b0ff20" stroke="none" /><path d="M 101.26447882468166 120.96189622390904 l 1.6710986030907622 27.702635120621085 a48.75299196784953,48.75299196784953 0 0,0 -0.838114847663594,0.043320964335280536 l -1.1939956870136885 -27.72729589171857" fill="#b0ff20" stroke="none" /><line stroke="#e1ed5e" stroke-width="0.3" x1="102.19456741930631" x2="102.32365962044197" y1="184.97166512339345" y2="189.96999836594603" /><path d="M 102.22038585953345 185.97133177190398 a86.0,86.0 0 0,1 -42.740103519485714,-10.115201625700543" fill="none" id="id55" stroke="none" /><text fill="#e1ed5e" style="font-size:6.75px; font-family:Arial;" text-anchor="middle"><textPath startOffset="22.20632615414155" xlink:href="#id55">July</textPath></text><path d="M 100.54218724476979 120.99299961872073 l 0.3908897282866828 15.134896654325235 a36.13994357706743,36.13994357706743 0 0,0 -0.6220205911312731,0.010708648573247142 l -0.13030944726274177 -15.139382780177643" fill="#ffb210" stroke="none" /><path d="M 100.18074693466247 120.99922214144158 l 0.45793572775965585 53.203082484833025 a74.20505324702444,74.20505324702444 0 0,0 -1.277365324844186,0.0 l 0.4579357277596192 -53.203082484833025" fill="#41ffcb" stroke="none" /><path d="M 99.45781275523022 120.99299961872073 l -0.654598201745077 25.345450178350664 a46.35390193932649,46.35390193932649 0 0,0 -0.797462923387998,-0.027466235503243893 l 1.090781476807718 -25.330427144421325" fill="#ccff1d" stroke="none" /><path d="M 98.73552117531835 120.96189622390904 l -1.1711053192239491 19.41399704737702 a40.4492871083821,40.4492871083821 0 0,0 -0.6946437729155874,-0.04790670159626417 l 1.5051118529184666 -19.39096200126447" fill="#ffea16" stroke="none" /><path d="M 98.01472825383883 120.90594882070398 l -2.6219772972321884 27.61079096147761 a48.73500572319419,48.73500572319419 0 0,0 -0.8344533077285945,-0.08649449721978869 l 3.0968632015663764 -27.561567095802058" fill="#b0ff20" stroke="none" /><path d="M 97.65516085044442 120.86867818915974 l -3.900517241053489 34.713954298418265 a55.932401259868,55.932401259868 0 0,0 -0.9558383321453594,-0.11573871066043859 l 4.497482996250238 -34.64167005903248" fill="#60ff29" stroke="none" /><path d="M 97.2962882734958 120.8252237178851 l -2.9263331502291487 22.53995569467784 a43.72912291365793,43.72912291365793 0 0,0 -0.745626126088463,-0.103336986915122 l 3.3138878675044428 -22.486244142270113" fill="#ecff1a" stroke="none" /><path d="M 96.93821686468263 120.77559828337769 l -2.208460363919995 14.985413178457565 a36.14727385730169,36.14727385730169 0 0,0 -0.6147861833404564,-0.0960169581213334 l 2.4660824108689687 -14.945177912989125" fill="#ffb210" stroke="none" /><path d="M 96.22490169976321 120.6578951692458 l -4.530683615419926 24.792569551498474 a46.20314660888445,46.20314660888445 0 0,0 -0.7811244454688545,-0.14970435906595106 l 4.956775675460476 -24.710907994084057" fill="#ceff1d" stroke="none" /><path d="M 95.86986931433489 120.58985236759428 l -5.455699994091265 27.19818475238746 a48.7399696512186,48.7399696512186 0 0,0 -0.8211722586796998,-0.17208463091465476 l 5.923063714200351 -27.100244140746263" fill="#b0ff20" stroke="none" /><path d="M 95.16358092515715 120.4354850818985 l -13.929206946721308 58.85554918990335 a81.48138950627475,81.48138950627475 0 0,0 -1.3620844828922278,-0.33476722654408525 l 14.940244714356746 -58.607060705045235" fill="#4aeaff" stroke="none" /><path d="M 94.81253420990036 120.34920634021253 l -2.6909288162330207 10.555879873532197 a31.893470420324064,31.893470420324064 0 0,0 -0.5308129868482061,-0.14019253431077358 l 2.8722322458927163 -10.507995989917841" fill="#ff780b" stroke="none" /><path d="M 94.46302465271185 120.25689768951611 l -7.314895803104993 26.761379019962853 a48.74309116988211,48.74309116988211 0 0,0 -0.8074381994398666,-0.22819010044388452 l 7.774465170649474 -26.631500126180445" fill="#b0ff20" stroke="none" /><path d="M 93.76903079525671 120.05430185196036 l -7.482723278729841 24.08305776765929 a46.218739443248545,46.218739443248545 0 0,0 -0.7577202593863765,-0.24259809903838217 l 7.896164883207159 -23.950686821961202" fill="#cdff1d" stroke="none" /><path d="M 93.42475214034765 119.94407469862007 l -8.684428381022443 26.341651606588314 a48.736292211973556,48.736292211973556 0 0,0 -0.7944718061225862,-0.26952797176947035 l 9.136569920082255 -26.18826064792072" fill="#b0ff20" stroke="none" /><path d="M 92.7421414339146 119.70592522655815 l -13.374095731306026 36.31221634511609 a59.69681501783647,59.69681501783647 0 0,0 -0.9612033753950129,-0.3634448696710005 l 13.997169327461322 -36.07662322533846" fill="#3aff2e" stroke="none" /><path d="M 91.7346041902142 119.30500536409082 l -4.686959528648837 10.947059393661062 a32.90821980782749,32.90821980782749 0 0,0 -0.5188205339138198,-0.22743567533778092 l 4.8747007372204 -10.864759165028829" fill="#ff860c" stroke="none" /><path d="M 91.40352486487194 119.15986991738527 l -5.166030857359497 11.514077300327337 a33.61989900502788,33.61989900502788 0 0,0 -0.5259625143913691,-0.2414435935247997 l 5.363461367518285 -11.423446636468462" fill="#ff900d" stroke="none" /><path d="M 91.07499286063937 119.00905698771935 l -11.821965395228773 25.179185898202945 a48.816366914143345,48.816366914143345 0 0,0 -0.7575540748367349,-0.36367199240695147 l 12.25363213806575 -24.97195962929643" fill="#afff20" stroke="none" /><path d="M 90.7491055286396 118.85261126421891 l -12.224737960729172 24.913075518704492 a48.75077566500018,48.75077566500018 0 0,0 -0.7501725073132943,-0.37615206849267774 l 12.651764375725227 -24.698955609302512" fill="#b0ff20" stroke="none" /><path d="M 90.42595943632237 118.69057910512821 l -9.993078934252729 19.508631813514633 a42.919131867423054,42.919131867423054 0 0,0 -0.6546375425143143,-0.34247542216249544 l 10.32740737929354 -19.33372697240742" fill="#f5ff19" stroke="none" /><path d="M 90.10565033884886 118.52300852407294 l -25.18939233111047 47.15654336508388 a74.46255762824711,74.46255762824711 0 0,0 -1.1253674838629704,-0.6136400805450153 l 25.99738262684208 -46.715962632779096" fill="#41ffcd" stroke="none" /><line stroke="#e1ed5e" stroke-width="0.3" x1="58.666819895761336" x2="56.23545636021788" y1="174.27360380694188" y2="178.64263932499728" /><path d="M 58.180547188652646 175.14741091055294 a86.0,86.0 0 0,1 -31.652253787137756,-30.449443065178592" fill="none" id="id56" stroke="none" /><text fill="#e1ed5e" style="font-size:6.75px; font-family:Arial;" text-anchor="middle"><textPath startOffset="22.20632615414155" xlink:href="#id56">August</textPath></text><path d="M 89.4739219176387 118.17145234162733 l -6.534826661846504 11.28124742353242 a34.03727360038658,34.03727360038658 0 0,0 -0.5044520536684648,-0.29803916499368344 l 6.72804658654335 -11.167089686244987" fill="#ff950d" stroke="none" /><path d="M 88.8546689885994 117.79835938074946 l -9.079104767659473 14.498732190635243 a38.106822572234144,38.106822572234144 0 0,0 -0.5529448716156575,-0.35291557874623375 l 9.327331441322054 -14.340302183065205" fill="#ffcc13" stroke="none" /><path d="M 88.54995079064634 117.60387380957326 l -8.265209863632027 12.707343766711334 a36.15883503753694,36.15883503753694 0 0,0 -0.5188367552808496,-0.3438567100966047 l 8.482721317652839 -12.56318903552341" fill="#ffb210" stroke="none" /><path d="M 87.65650970185807 116.9893568818739 l -15.137790995147562 20.835381841592447 a46.753948293373014,46.753948293373014 0 0,0 -0.6470190507775007,-0.47864922572431245 l 15.494195016343626 -20.571722667128366" fill="#c7ff1e" stroke="none" /><path d="M 87.07902340077011 116.55440617244103 l -10.87464478641407 13.932637784209481 a38.67417027349981,38.67417027349981 0 0,0 -0.5212587676803431,-0.4141194904048109 l 11.112861046811771 -13.743384379799538" fill="#ffd313" stroke="none" /><path d="M 86.79598089348748 116.32954008644616 l -15.937393144789624 19.709930600065025 a46.34722597269703,46.34722597269703 0 0,0 -0.6160426299080564,-0.5069611444456076 l 16.27430590324237 -19.432674336762236" fill="#ccff1d" stroke="none" /><path d="M 86.24171649860922 115.8653595955263 l -41.274850504172335 47.596078786578886 a84.0,84.0 0 0,0 -1.0842305883736492,-0.9567074329108447 l 42.08802344545257 -46.878548211895755" fill="#4dd2ff" stroke="none" /><path d="M 85.70375840098266 115.38237550388516 l -18.890531602562238 20.32570928282264 a48.74863315691829,48.74863315691829 0 0,0 -0.6097390025119094,-0.5765462848646369 l 19.237606439464965 -19.99752836121207" fill="#b0ff20" stroke="none" /><path d="M 85.44109423537348 115.13401014063109 l -8.752299933283796 9.098032371772804 a33.62445829174406,33.62445829174406 0 0,0 -0.41366097147667613,-0.4048543246834207 l 8.907610857136266 -8.946027944166815" fill="#ff900d" stroke="none" /><path d="M 84.67929136418377 114.36230785411682 l -18.399072802751697 17.248102167132522 a46.21949460970221,46.21949460970221 0 0,0 -0.5391252964413619,-0.5851140307478748 l 18.693244507188787 -16.928836881583305" fill="#cdff1d" stroke="none" /><path d="M 84.43433777217949 114.09645910891817 l -32.73553582012766 29.645712167144218 a65.16427917817774,65.16427917817774 0 0,0 -0.7457932295009558,-0.8379065994440744 l 33.24098789927695 -29.07783139795928" fill="#35ff65" stroke="none" /><path d="M 83.95833913139862 113.55231037782056 l -21.18555123287508 17.897970053407224 a48.73382254708926,48.73382254708926 0 0,0 -0.5358492650762609,-0.6454649590137357 l 21.490496497844877 -17.53064383727973" fill="#b0ff20" stroke="none" /><path d="M 83.72743513129214 113.27417163493432 l -9.824591794076518 8.014306212324518 a33.678789689285765,33.678789689285765 0 0,0 -0.36257957582947364,-0.45237377000566703 l 9.961089281960852 -7.844004608740591" fill="#ff910d" stroke="none" /><path d="M 83.50135304334701 112.99209946851258 l -21.794950584761512 17.162750779048245 a48.741302876684024,48.741302876684024 0 0,0 -0.5133925674396121,-0.6636290994302373 l 22.087149969419194 -16.785043685504753" fill="#b0ff20" stroke="none" /><path d="M 83.28015986056508 112.70617746262583 l -20.07251200403459 15.254027401997073 a46.21093195685138,46.21093195685138 0 0,0 -0.475837780532817,-0.637462467322456 l 20.33211105126249 -14.906252055165309" fill="#ceff1d" stroke="none" /><path d="M 82.85270091963577 112.12312394758628 l -35.01974312471388 24.758924686844672 a63.88807246974141,63.88807246974141 0 0,0 -0.6271347286701117,-0.9034343505675753 l 35.44073876054612 -24.152449074090082" fill="#33ff56" stroke="none" /><path d="M 82.44556493220864 111.52570212397912 l -21.062184684274627 13.828782630355942 a46.196246798127035,46.196246798127035 0 0,0 -0.43071430730033333,-0.6684781698404172 l 21.297103854952006 -13.464182860594077" fill="#ceff1d" stroke="none" /><path d="M 82.24976979558568 111.22182372390057 l -21.298636199744504 13.465151620038188 a46.198059689580944,46.198059689580944 0 0,0 -0.4191601880759803,-0.6758196866878938 l 21.527261027488443 -13.09653560198503" fill="#ceff1d" stroke="none" /><path d="M 82.05923443525364 110.91462005526583 l -10.794090466746507 6.566798716672863 a33.6346837866883,33.6346837866883 0 0,0 -0.2966565084351088,-0.49721337178772773 l 10.905527850879848 -6.380023250999024" fill="#ff900d" stroke="none" /><line stroke="#e1ed5e" stroke-width="0.3" x1="26.63291911575756" x2="22.317208475507996" y1="142.92168965132927" y2="145.44649492493687" /><path d="M 25.769776987707644 143.4266507060508 a86.0,86.0 0 0,1 -11.730757126820373,-40.83630448921669" fill="none" id="id57" stroke="none" /><text fill="#e1ed5e" style="font-size:6.75px; font-family:Arial;" text-anchor="middle"><textPath startOffset="21.46611528233685" xlink:href="#id57">September</textPath></text><path d="M 81.87401531095188 110.60418214915194 l -27.426543788025263 16.04525608066066 a52.7752348040175,52.7752348040175 0 0,0 -0.45197717295676837,-0.7880602983194215 l 27.69867295713441 -15.57077593648293" fill="#82ff25" stroke="none" /><path d="M 81.51974371655577 109.97397251340807 l -33.28999540163317 17.966931519495567 a58.82901561059977,58.82901561059977 0 0,0 -0.4732864110004692,-0.8952795269719798 l 33.59433432085852 -17.391236977437458" fill="#42ff2d" stroke="none" /><path d="M 81.18737489456691 109.33194174019688 l -13.587687412972366 6.740128323996894 a36.16755019957385,36.16755019957385 0 0,0 -0.2718538102488764,-0.5600993695514945 l 13.701694479835961 -6.505239998480114" fill="#ffb210" stroke="none" /><path d="M 81.02952815118164 109.00673069616217 l -11.422535520508022 5.423149309118026 a33.64455875648711,33.64455875648711 0 0,0 -0.24388361180767687,-0.5253036029290734 l 11.514193749155526 -5.225725638910125" fill="#ff900d" stroke="none" /><path d="M 80.73074385275274 108.34839909993369 l -23.162166868805908 10.035001432459389 a46.242567773661065,46.242567773661065 0 0,0 -0.3101533475270678,-0.7331108957362337 l 23.331471197525282 -9.634816011056996" fill="#cdff1d" stroke="none" /><path d="M 80.58989483394504 108.01547362559985 l -9.340462275945242 3.857177917545831 a31.105545854428616,31.105545854428616 0 0,0 -0.20010847271572643,-0.49665281850402476 l 9.405473362918357 -3.6958257311990006" fill="#ff6d0a" stroke="none" /><path d="M 80.20201598880116 107.00284435728193 l -15.645894185178445 5.534187811614079 a37.59581994322723,37.59581994322723 0 0,0 -0.21055300683480735,-0.6119655955397556 l 15.73883802295648 -5.264049512985027" fill="#ffc512" stroke="none" /><path d="M 80.0844068197444 106.66101706037122 l -12.00007013563243 4.013572238377736 a33.65347562422174,33.65347562422174 0 0,0 -0.1790168574981588,-0.550957235198934 l 12.067379244146839 -3.8064161032009984" fill="#ff900d" stroke="none" /><path d="M 79.97269907076064 106.31721596034903 l -12.025724467671182 3.793276927846989 a33.609797731275535,33.609797731275535 0 0,0 -0.16928651340253098,-0.5532381206515871 l 12.089237753579843 -3.5857118346433543" fill="#ff900d" stroke="none" /><path d="M 79.86692584326677 105.97154293290107 l -24.161861434337347 7.166495874933169 a46.20226599132611,46.20226599132611 0 0,0 -0.2195869684990995,-0.7644110444492616 l 24.28164103972255 -6.749527354979311" fill="#ceff1d" stroke="none" /><path d="M 79.76711848015287 105.62410040840567 l -36.434645572797876 10.127677802347788 a58.81604495030606,58.81604495030606 0 0,0 -0.26274506279794513,-0.977772122233662 l 36.6035787119376 -9.499014746938586" fill="#43ff2d" stroke="none" /><path d="M 79.50377843672027 104.57218783832718 l -24.680673706842743 5.505633114657389 a46.287302161694726,46.287302161694726 0 0,0 -0.1667796768055668,-0.7791391262222578 l 24.77178742237275 -5.079980169018967" fill="#cdff1d" stroke="none" /><path d="M 79.4281124754447 104.21870165774334 l -12.375875471495734 2.5379356320757855 a33.63342435599033,33.63342435599033 0 0,0 -0.11142283746209998,-0.5681426477136133 l 12.4177282419335 -2.3245292572942176" fill="#ff900d" stroke="none" /><path d="M 79.29508885075956 103.50808413554451 l -24.84817845951445 4.210088129462911 a46.20231764766333,46.20231764766333 0 0,0 -0.12610646628602085,-0.7852650859410868 l 24.91696668016176 -3.781743813828611" fill="#ceff1d" stroke="none" /><line stroke="#e1ed5e" stroke-width="0.3" x1="15.007084014347285" x2="10.007500721073583" y1="101.09737516637583" y2="101.16192664675087" /><path d="M 14.007167355692545 101.11028546245083 a86.0,86.0 0 0,1 10.666146001902534,-42.60595125391555" fill="none" id="id58" stroke="none" /><text fill="#e1ed5e" style="font-size:6.75px; font-family:Arial;" text-anchor="middle"><textPath startOffset="22.20632615414155" xlink:href="#id58">October</textPath></text><line stroke="#e1ed5e" stroke-width="0.3" x1="26.266209847984243" x2="21.928928074336255" y1="57.711370442889674" y2="55.22380399835377" /><path d="M 25.398753493254645 57.213857153982495 a86.0,86.0 0 0,1 29.58750427330803,-30.492523968695096" fill="none" id="id59" stroke="none" /><text fill="#e1ed5e" style="font-size:6.75px; font-family:Arial;" text-anchor="middle"><textPath startOffset="21.46611528233685" xlink:href="#id59">November</textPath></text><line stroke="#e1ed5e" stroke-width="0.3" x1="56.762969772571076" x2="54.21961505331055" y1="26.818313649435495" y2="22.513508569990535" /><path d="M 56.25429882871897 25.957352633546506 a86.0,86.0 0 0,1 42.265352541879196,-11.944610805530505" fill="none" id="id60" stroke="none" /><text fill="#e1ed5e" style="font-size:6.75px; font-family:Arial;" text-anchor="middle"><textPath startOffset="22.20632615414155" xlink:href="#id60">December</textPath></text></svg>