<?xml version="1.0" encoding="utf-8" ?>
<svg baseProfile="full" height="200mm" version="1.1" viewBox="0,0,200,200" width="200mm" xmlns="http://www.w3.org/2000/svg" xmlns:ev="http://www.w3.org/2001/xml-events" xmlns:xlink="http://www.w3.org/1999/xlink"><defs /><rect fill="#1a1a1a" height="200" width="200" x="0" y="0" /><text alignment-baseline="middle" fill="#e1ed5e" style="dominant-baseline: central; font-size:9.0px; font-family:Arial;" text-anchor="middle" x="100.0" y="100.0">2022</text><line stroke="#e1ed5e" stroke-width="0.3" x1="100.0" x2="100.0" y1="15.0" y2="10.0" /><path d="M 100.0 14.0 a86.0,86.0 0 0,1 42.46469731375804,11.215312516191453" fill="none" id="id49" stroke="none" /><text fill="#e1ed5e" style="font-size:6.75px; font-family:Arial;" text-anchor="middle"><textPath startOffset="22.20632615414155" xlink:href="#id49">January</textPath></text><path d="M 100.36148047927253 79.00311137660856 l 0.4932657139069914 -28.65174152000156 a49.655987213730704,49.655987213730704 0 0,0 0.8544929134355469,0.022069030954384786 l -0.9863852625374061 28.639005696904817" fill="#a8ff21" stroke="none" /><path d="M 101.08401301168833 79.027996857942 l 0.8883461151788346 -17.186507281632213 a38.20945064091095,38.20945064091095 0 0,0 0.656543804010966,0.039604515201298866 l -1.1840519680294124 17.168669497050608" fill="#ffc912" stroke="none" /><path d="M 101.44485096284872 79.0497635885617 l 1.1831834388387377 -17.15607588543063 a38.19682711538953,38.19682711538953 0 0,0 0.6555481536960445,0.05088315351359862 l -1.4783217818971233 17.133167469728566" fill="#ffc912" stroke="none" /><path d="M 102.16513564639614 79.11191278185805 l 2.077140030728861 -20.0391519110486 a41.146516324698396,41.146516324698396 0 0,0 0.7038666046863004,0.07908761425965757 l -2.4217733389248868 20.00042834331834" fill="#ffef16" stroke="none" /><path d="M 102.52436894288641 79.15227682838746 l 5.1693205822536745 -42.69128915875473 a64.00311669307843,64.00311669307843 0 0,0 1.092579745907725,0.14184820826749064 l -5.903415056669246 42.595982627323096" fill="#33ff56" stroke="none" /><path d="M 103.2404852339499 79.25152402106235 l 3.5402934282298455 -22.668115374956013 a43.94291028205194,43.94291028205194 0 0,0 0.7463406045175072,0.1231525946384547 l -3.9299632388862276 22.603816517377933" fill="#ecff1a" stroke="none" /><path d="M 103.59715602781102 79.31037775812273 l 4.91343321165187 -28.26040246067174 a49.6843541528218,49.6843541528218 0 0,0 0.8413332734092752,0.15374827804859809 l -5.3991616061640455 28.171638701272407" fill="#a7ff21" stroke="none" /><path d="M 103.95276090670814 79.375362276772 l 0.5504795027093778 -2.872281067690181 a23.924555729459538,23.924555729459538 0 0,0 0.4037936280522001,0.0809972030940444 l -0.5998395402287033 2.8623799085189283" fill="#ff0000" stroke="none" /><path d="M 104.307194497241 79.44645832069477 l 5.9240736127602 -28.269142243085028 a49.8831966951232,49.8831966951232 0 0,0 0.838886374064926,0.18334806936629483 l -6.409802710978654 28.162980675622862" fill="#a5ff21" stroke="none" /><path d="M 104.66035177308747 79.52364482259891 l 3.2100854469112474 -14.104267866718232 a35.46495836954299,35.46495836954299 0 0,0 0.5940824903459727,0.1406001314294461 l -3.4523916242197434 14.046921823147917" fill="#ffa50f" stroke="none" /><path d="M 105.01212808612495 79.60689891045804 l 4.125704164275566 -16.78646288400507 a38.28602820219846,38.28602820219846 0 0,0 0.6386312079421224,0.16280131462145472 l -4.414044260902714 16.712958573214745" fill="#ffca12" stroke="none" /><path d="M 105.71112130821622 79.79150937346287 l 7.794498402045827 -27.58040661291769 a49.66065306781004,49.66065306781004 0 0,0 0.8206063051796754,0.23955748298846052 l -8.26809492494893 27.442150801010527" fill="#a8ff21" stroke="none" /><path d="M 106.0581310904928 79.89281104454417 l 8.26389154551702 -27.428199609921 a49.646082407857065,49.646082407857065 0 0,0 0.8161216111810164,0.25357295727038176 l -8.734798529408755 27.281886517768097" fill="#a8ff21" stroke="none" /><path d="M 106.40334571778207 80.00007090966166 l 8.751374173712001 -27.33365815798596 a49.70044282281975,49.70044282281975 0 0,0 0.8125245601539322,0.2678765726562734 l -9.220581556108352 27.17896786107045" fill="#a7ff21" stroke="none" /><path d="M 107.08798089147638 80.2323363322302 l 10.67758227300092 -29.77869980031202 a52.63513434448804,52.63513434448804 0 0,0 0.8502270407135817,0.3131457944559725 l -11.188591639487079 29.590490738049724" fill="#86ff25" stroke="none" /><path d="M 107.4271985657038 80.35727306442388 l 21.671857732523858 -57.31560558947854 a82.27599906706881,82.27599906706881 0 0,0 1.3203998477178038,0.5122946272720862 l -22.65524074524133 56.934068258315904" fill="#4be2ff" stroke="none" /><path d="M 108.43124777332544 80.76684994638697 l 11.501632692982492 -26.237234795250647 a49.647513754345155,49.647513754345155 0 0,0 0.7797446576118814,0.3498486988592364 l -11.951559469061152 26.03536576587488" fill="#a8ff21" stroke="none" /><path d="M 108.76106565485865 80.91482961587045 l 11.943234377865481 -26.017230325485308 a49.6275587714702,49.6275587714702 0 0,0 0.7732961214302287,0.3630728977804333 l -12.389308710595309 25.807792445064873" fill="#a8ff21" stroke="none" /><path d="M 109.08828744355905 81.06846463323043 l 6.206486248106187 -12.928542878852634 a35.34111894233718,35.34111894233718 0 0,0 0.5461527882281102,0.2679948012680162 l -6.428110303344729 12.819792917449785" fill="#ffa30f" stroke="none" /><path d="M 109.41281617654863 81.2277094730956 l 7.455548206090746 -14.868846298174958 a37.63333367945506,37.63333367945506 0 0,0 0.5765776394494064,0.29534546132300055 l -7.710386333128907 14.738308311539457" fill="#ffc212" stroke="none" /><path d="M 109.73455568895987 81.39251694778311 l 13.289130394858129 -25.402008730759494 a49.66815365887946,49.66815365887946 0 0,0 0.7541398487584144,0.4028353896898529 l -13.724415290144854 25.16949461456789" fill="#a8ff21" stroke="none" /><path d="M 110.05341064243156 81.56283822128135 l 27.72153765242792 -50.83911247944765 a78.90594967283508,78.90594967283508 0 0,0 1.1868804157401398,0.660497666351227 l -28.592542157240093 50.35439941553624" fill="#46fffb" stroke="none" /><line stroke="#e1ed5e" stroke-width="0.3" x1="143.23703022742887" x2="145.7803849466894" y1="26.81831364943548" y2="22.513508569990506" /><path d="M 143.74570117128098 25.957352633546492 a86.0,86.0 0 0,1 28.547481713284135,27.462654790039103" fill="none" id="id50" stroke="none" /><text fill="#e1ed5e" style="font-size:6.75px; font-family:Arial;" text-anchor="middle"><textPath startOffset="19.985693538727396" xlink:href="#id50">February</textPath></text><path d="M 112.48926042617603 83.11751280151076 l 17.039637261972548 -23.03350623862612 a49.65120674010838,49.65120674010838 0 0,0 0.6827131865116188,0.5142054179518586 l -17.43359660224255 22.736784231168414" fill="#a8ff21" stroke="none" /><path d="M 112.77801427241765 83.33499621200491 l 9.77676780053952 -12.75079749926689 a37.06760795803088,37.06760795803088 0 0,0 0.5030029298167631,0.3926017652222507 l -9.994803285515713 12.580617344821416" fill="#ffba11" stroke="none" /><path d="M 113.06298171725822 83.55741782278167 l 8.925743411443024 -11.23497473333529 a35.34899134802168,35.34899134802168 0 0,0 0.47316577771914764,0.3826004857746839 l -9.117812587726663 11.079668150296477" fill="#ffa30f" stroke="none" /><path d="M 113.34407831869373 83.78471172551755 l 9.117921837166556 -11.079800906648723 a35.34916327733616,35.34916327733616 0 0,0 0.46651210367215534,0.3906904706555536 l -9.307291477797829 10.92120927859935" fill="#ffa30f" stroke="none" /><path d="M 114.16331599549186 84.49514656593476 l 23.202874335316107 -25.400631175116043 a55.40298593893774,55.40298593893774 0 0,0 0.6985844709931271,0.6492581313020835 l -23.636666690104082 24.997468457739316" fill="#68ff28" stroke="none" /><path d="M 114.42810811169701 84.74124197986012 l 4.220640647767016 -4.463629869950324 a27.143109887792658,27.143109887792658 0 0,0 0.3367254736304496,0.3239296388452494 l -4.2968493650098845 4.390317144342773" fill="#ff3004" stroke="none" /><path d="M 114.68862486808459 84.99185889309783 l 4.063457389787104 -4.151848279570214 a26.809434576203227,26.809434576203227 0 0,0 0.32702939791331503,0.32562502974907487 l -4.134322587867741 4.08128739917102" fill="#ff2b04" stroke="none" /><path d="M 114.94478906791727 85.2469230424477 l 10.382052418425552 -10.248871202550855 a35.58856995546212,35.58856995546212 0 0,0 0.42661499340436515,0.43966425121982605 l -10.556931675533026 10.068642755780914" fill="#ffa70f" stroke="none" /><path d="M 115.19652480421416 85.50635884689758 l 10.361271417777612 -9.882032356339847 a35.31818804474236,35.31818804474236 0 0,0 0.41580048635487776,0.4435469679928769 l -10.529839226102952 9.702215971468915" fill="#ffa30f" stroke="none" /><path d="M 115.68641384162765 86.03803664274999 l 47.05924152488298 -41.88589007175005 a84.0,84.0 0 0,0 0.9520325456886072,1.0883377751882088 l -47.773265934149435 41.069636740358895" fill="#4dd2ff" stroke="none" /><path d="M 115.9244219780498 86.31012108654704 l 2.491705494225022 -2.1420649710830797 a24.285884753044805,24.285884753044805 0 0,0 0.2697923407123998,0.31934903451867896 l -2.528208448424539 2.098856986935294" fill="#ff0500" stroke="none" /><path d="M 116.38621287248628 86.86637796730983 l 11.197597103577829 -8.974923563923115 a35.35045065049586,35.35045065049586 0 0,0 0.37647543034037373,0.4780855648537422 l -11.350426614512168 8.780845605116335" fill="#ffa30f" stroke="none" /><path d="M 116.82858285166822 87.43820079747576 l 13.79252092727426 -10.295512100584137 a38.2113684215571,38.2113684215571 0 0,0 0.38891419327156806,0.5304785225518576 l -13.967697733059454 10.056571134360786" fill="#ffc912" stroke="none" /><path d="M 117.2510076193507 88.02491185347247 l 23.548238754630823 -16.346421090549235 a49.66574664847664,49.66574664847664 0 0,0 0.4814633767583308,0.7064880959325776 l -23.826126597057886 15.93865497134625" fill="#a8ff21" stroke="none" /><path d="M 117.45458315368197 88.32363383020206 l 19.05909814895515 -12.749717761456504 a43.9304279342603,43.9304279342603 0 0,0 0.4150449863011166,0.6321419887363833 l -19.275739770614194 12.419757708742447" fill="#ecff1a" stroke="none" /><line stroke="#e1ed5e" stroke-width="0.3" x1="172.23445277983987" x2="176.4835382374775" y1="55.19839476539836" y2="52.563006222186495" /><path d="M 173.08426987136738 54.67131705675599 a86.0,86.0 0 0,1 12.851231095245387,41.99856678651699" fill="none" id="id51" stroke="none" /><text fill="#e1ed5e" style="font-size:6.75px; font-family:Arial;" text-anchor="middle"><textPath startOffset="22.20632615414155" xlink:href="#id51">March</textPath></text><path d="M 117.84615892207809 88.93136811851018 l 12.188057343303512 -7.559336475291592 a35.34197719111032,35.34197719111032 0 0,0 0.31619996054944016,0.5197495959616731 l -12.316373102139176 7.348419106122837" fill="#ffa30f" stroke="none" /><path d="M 118.03404312379186 89.2402003453031 l 14.785419628142636 -8.82154666690116 a38.21709380750946,38.21709380750946 0 0,0 0.33219813068670545,0.5678342889497814 l -14.935077433299668 8.565732965597483" fill="#ffc912" stroke="none" /><path d="M 118.3937258080291 89.86733742301442 l 25.11345713362664 -13.834401465610226 a49.67187460062877,49.67187460062877 0 0,0 0.4061075507411434,0.7524556144754974 l -25.347872783586247 13.40006486780227" fill="#a8ff21" stroke="none" /><line stroke="#e1ed5e" stroke-width="0.3" x1="184.98032266829074" x2="189.97916517819016" y1="98.17113171792111" y2="98.06355123074" /><path d="M 185.9800911702706 98.14961562048488 a86.0,86.0 0 0,1 -9.607161424134198,41.387399972396054" fill="none" id="id52" stroke="none" /><text fill="#e1ed5e" style="font-size:6.75px; font-family:Arial;" text-anchor="middle"><textPath startOffset="21.466115282336823" xlink:href="#id52">April</textPath></text><line stroke="#e1ed5e" stroke-width="0.3" x1="174.80103733775053" x2="179.2010983576182" y1="140.37084112569926" y2="142.7455964860345" /><path d="M 175.68104954172406 140.8457921977663 a86.0,86.0 0 0,1 -30.038265399797805,32.042727171017184" fill="none" id="id53" stroke="none" /><text fill="#e1ed5e" style="font-size:6.75px; font-family:Arial;" text-anchor="middle"><textPath startOffset="22.206326154141568" xlink:href="#id53">May</textPath></text><line stroke="#e1ed5e" stroke-width="0.3" x1="143.8653032363475" x2="146.44561519142675" y1="172.8068346515853" y2="177.08958963109032" /><path d="M 144.38136562736335 173.6633856474863 a86.0,86.0 0 0,1 -40.68145358897372,12.25698825130547" fill="none" id="id54" stroke="none" /><text fill="#e1ed5e" style="font-size:6.75px; font-family:Arial;" text-anchor="middle"><textPath startOffset="21.466115282336833" xlink:href="#id54">June</textPath></text><line stroke="#e1ed5e" stroke-width="0.3" x1="102.19456741930631" x2="102.32365962044197" y1="184.97166512339345" y2="189.96999836594603" /><path d="M 102.22038585953345 185.97133177190398 a86.0,86.0 0 0,1 -42.740103519485714,-10.115201625700543" fill="none" id="id55" stroke="none" /><text fill="#e1ed5e" style="font-size:6.75px; font-family:Arial;" text-anchor="middle"><textPath startOffset="22.20632615414155" xlink:href="#id55">July</textPath></text><line stroke="#e1ed5e" stroke-width="0.3" x1="58.666819895761336" x2="56.23545636021788" y1="174.27360380694188" y2="178.64263932499728" /><path d="M 58.180547188652646 175.14741091055294 a86.0,86.0 0 0,1 -31.652253787137756,-30.449443065178592" fill="none" id="id56" stroke="none" /><text fill="#e1ed5e" style="font-size:6.75px; font-family:Arial;" text-anchor="middle"><textPath startOffset="22.20632615414155" xlink:href="#id56">August</textPath></text><line stroke="#e1ed5e" stroke-width="0.3" x1="26.63291911575756" x2="22.317208475507996" y1="142.92168965132927" y2="145.44649492493687" /><path d="M 25.769776987707644 143.4266507060508 a86.0,86.0 0 0,1 -11.730757126820373,-40.83630448921669" fill="none" id="id57" stroke="none" /><text fill="#e1ed5e" style="font-size:6.75px; font-family:Arial;" text-anchor="middle"><textPath startOffset="21.46611528233685" xlink:href="#id57">September</textPath></text><line stroke="#e1ed5e" stroke-width="0.3" x1="15.007084014347285" x2="10.007500721073583" y1="101.09737516637583" y2="101.16192664675087" /><path d="M 14.007167355692545 101.11028546245083 a86.0,86.0 0 0,1 10.666146001902534,-42.60595125391555" fill="none" id="id58" stroke="none" /><text fill="#e1ed5e" style="font-size:6.75px; font-family:Arial;" text-anchor="middle"><textPath startOffset="22.20632615414155" xlink:href="#id58">October</textPath></text><line stroke="#e1ed5e" stroke-width="0.3" x1="26.266209847984243" x2="21.928928074336255" y1="57.711370442889674" y2="55.22380399835377" /><path d="M 25.398753493254645 57.213857153982495 a86.0,86.0 0 0,1 29.58750427330803,-30.492523968695096" fill="none" id="id59" stroke="none" /><text fill="#e1ed5e" style="font-size:6.75px; font-family:Arial;" text-anchor="middle"><textPath startOffset="21.46611528233685" xlink:href="#id59">November</textPath></text><line stroke="#e1ed5e" stroke-width="0.3" x1="56.762969772571076" x2="54.21961505331055" y1="26.818313649435495" y2="22.513508569990535" /><path d="M 56.25429882871897 25.957352633546506 a86.0,86.0 0 0,1 42.265352541879196,-11.944610805530505" fill="none" id="id60" stroke="none" /><text fill="#e1ed5e" style="font-size:6.75px; font-family:Arial;" text-anchor="middle"><textPath startOffset="22.20632615414155" xlink:href="#id60">December</textPath></text></svg>