<?xml version="1.0" encoding="utf-8" ?>
<svg baseProfile="full" height="200mm" version="1.1" viewBox="0,0,200,200" width="200mm" xmlns="http://www.w3.org/2000/svg" xmlns:ev="http://www.w3.org/2001/xml-events" xmlns:xlink="http://www.w3.org/1999/xlink"><defs /><rect fill="#1a1a1a" height="200" width="200" x="0" y="0" /><text alignment-baseline="middle" fill="#e1ed5e" style="dominant-baseline: central; font-size:9.0px; font-family:Arial;" text-anchor="middle" x="100.0" y="100.0">2022</text><line stroke="#e1ed5e" stroke-width="0.3" x1="100.0" x2="100.0" y1="15.0" y2="10.0" /><path d="M 100.0 14.0 a86.0,86.0 0 0,1 42.46469731375804,11.215312516191453" fill="none" id="id49" stroke="none" /><text fill="#e1ed5e" style="font-size:6.75px; font-family:Arial;" text-anchor="middle"><textPath startOffset="22.20632615414155" xlink:href="#id49">January</textPath></text><path d="M 100.36148047927253 79.00311137660856 l 0.3615644060214313 -21.001763577089587 a42.00487567608217,42.00487567608217 0 0,0 0.7228306314898603,0.01866858265329602 l -0.7230216727061594 20.992428202293933" fill="#fdff18" stroke="none" /><path d="M 101.08401301168833 79.027996857942 l 0.6511588509406201 -12.597732057326915 a33.61454956934097,33.61454956934097 0 0,0 0.5775907236085859,0.03484184977991716 l -0.8679116233888179 12.584656938166694" fill="#ff950d" stroke="none" /><path d="M 101.44485096284872 79.0497635885617 l 0.8672749903691596 -12.57542580456737 a33.60529650881322,33.60529650881322 0 0,0 0.5767465976744642,0.0447666361387123 l -1.083611777405965 12.558633906240193" fill="#ff940d" stroke="none" /><path d="M 102.16513564639614 79.11191278185805 l 1.5225463279927622 -14.688724258782951 a35.7674225127963,35.7674225127963 0 0,0 0.6118499569634419,0.06874847174015189 l -1.7751629884659295 14.660339833572198" fill="#ffb110" stroke="none" /><path d="M 102.52436894288641 79.15227682838746 l 3.789118670042673 -31.29277014758179 a52.521340133393,52.521340133393 0 0,0 0.8965774703262451,0.11640148759403973 l -4.327210868876764 31.222910336823613" fill="#83ff25" stroke="none" /><path d="M 103.2404852339499 79.25152402106235 l 2.5950396600256336 -16.615757876730616 a37.81718289890556,37.81718289890556 0 0,0 0.6422992688639999,0.1059848827950624 l -2.880668135028509 16.56862673099593" fill="#ffcc13" stroke="none" /><path d="M 103.59715602781102 79.31037775812273 l 3.60155289656288 -20.714911540650963 a42.02566867911066,42.02566867911066 0 0,0 0.7116444200573694,0.1300484690488262 l -3.9575924377231497 20.649847590251397" fill="#fdff18" stroke="none" /><path d="M 103.95276090670814 79.375362276772 l 0.40350218718347475 -2.1053857360980537 a23.143703130759246,23.143703130759246 0 0,0 0.3906145618505682,0.07835360639621479 l -0.43968315850116824 2.0981281736246307" fill="#ff0000" stroke="none" /><path d="M 104.307194497241 79.44645832069477 l 4.342353617200225 -20.721317812459283 a42.171420519694806,42.171420519694806 0 0,0 0.7091973328243538,0.15500306810682224 l -4.6983936741781065 20.64350124625659" fill="#fbff18" stroke="none" /><path d="M 104.66035177308747 79.52364482259891 l 2.352996782803669 -10.338446581265329 a31.602833186161195,31.602833186161195 0 0,0 0.5293870542745805,0.1252888119370541 l -2.5306075240407733 10.296411857187406" fill="#ff790b" stroke="none" /><path d="M 105.01212808612495 79.60689891045804 l 3.024146486406133 -12.3044989966615 a33.67068102076942,33.67068102076942 0 0,0 0.5616447749284456,0.14317575867183216 l -3.2355001500196034 12.250620241820801" fill="#ff950d" stroke="none" /><path d="M 105.71112130821622 79.79150937346287 l 5.7133774059595135 -20.216473705102164 a42.008295753154655,42.008295753154655 0 0,0 0.6941566458624798,0.20264335995580465 l -6.060524269545421 20.11513201622766" fill="#fdff18" stroke="none" /><path d="M 106.0581310904928 79.89281104454417 l 6.057443186987417 -20.104905775121985 a41.99761544057119,41.99761544057119 0 0,0 0.6903900553026365,0.21450755082911604 l -6.402618615000772 19.997658089410347" fill="#fdff18" stroke="none" /><path d="M 106.40334571778207 80.00007090966166 l 6.414768583705176 -20.035606768623953 a42.037461695019694,42.037461695019694 0 0,0 0.6872467956774592,0.22657446337401402 l -6.7586982016250525 19.9222185809907" fill="#fdff18" stroke="none" /><path d="M 107.08798089147638 80.2323363322302 l 7.82668161081735 -21.82782545356579 a44.18859437457219,44.18859437457219 0 0,0 0.71378820052959,0.26289421816147013 l -8.201252137119516 21.689867967597994" fill="#e2ff1b" stroke="none" /><path d="M 107.4271985657038 80.35727306442388 l 15.885499736797918 -42.012412998617506 a65.91538653795837,65.91538653795837 0 0,0 1.057837854706966,0.4104246531291851 l -16.60632075650455 41.732745641597774" fill="#36ff70" stroke="none" /><path d="M 108.43124777332544 80.76684994638697 l 8.430711634052512 -19.23192702620796 a41.9986646193975,41.9986646193975 0 0,0 0.6596147900949464,0.29594992900597594 l -8.760508542614238 19.08395676668545" fill="#fdff18" stroke="none" /><path d="M 108.76106565485865 80.91482961587045 l 8.754406240004565 -19.07066346543316 a41.984037591150994,41.984037591150994 0 0,0 0.6541948513067307,0.30715325448377395 l -9.081379302610895 18.917145228309383" fill="#fdff18" stroke="none" /><path d="M 109.08828744355905 81.06846463323043 l 4.549362444031179 -9.476638645102273 a31.512058725911267,31.512058725911267 0 0,0 0.4869794520101357,0.23895870217283383 l -4.711813163051747 9.396924782794608" fill="#ff780b" stroke="none" /><path d="M 109.41281617654863 81.2277094730956 l 5.464926474106476 -10.89888356002233 a33.192255091750454,33.192255091750454 0 0,0 0.5085361890023541,0.260491987659747 l -5.651723150697586 10.803199047050082" fill="#ff8f0d" stroke="none" /><path d="M 109.73455568895987 81.39251694778311 l 9.740949760526473 -18.619705241098636 a42.01379369610582,42.01379369610582 0 0,0 0.6379193444829027,0.3407544212768247 l -10.060014151537686 18.449272093320058" fill="#fdff18" stroke="none" /><path d="M 110.05341064243156 81.56283822128135 l 20.319922939527014 -37.265135175712224 a63.44513597495502,63.44513597495502 0 0,0 0.9543233390494055,0.5310799049570378 l -20.958370367648456 36.90983987319501" fill="#33ff52" stroke="none" /><line stroke="#e1ed5e" stroke-width="0.3" x1="143.23703022742887" x2="145.7803849466894" y1="26.81831364943548" y2="22.513508569990506" /><path d="M 143.74570117128098 25.957352633546492 a86.0,86.0 0 0,1 28.547481713284135,27.462654790039103" fill="none" id="id50" stroke="none" /><text fill="#e1ed5e" style="font-size:6.75px; font-family:Arial;" text-anchor="middle"><textPath startOffset="19.985693538727396" xlink:href="#id50">February</textPath></text><path d="M 112.48926042617603 83.11751280151076 l 12.490076143032791 -16.883589852203073 a42.00137158273648,42.00137158273648 0 0,0 0.577526551997072,0.43498102558312934 l -12.778848848788247 16.666092237114096" fill="#fdff18" stroke="none" /><path d="M 112.77801427241765 83.33499621200491 l 7.166383437868667 -9.346351052064561 a32.777577406537674,32.777577406537674 0 0,0 0.44478773721928705,0.3471638840058365 l -7.326203730247385 9.2216087788355" fill="#ff890c" stroke="none" /><path d="M 113.06298171725822 83.55741782278167 l 6.542581460398473 -8.235251004877485 a31.517829209455982,31.517829209455982 0 0,0 0.42188355597156607,0.3411338288942791 l -6.683368414934531 8.121411078719076" fill="#ff780b" stroke="none" /><path d="M 113.34407831869373 83.78471172551755 l 6.683448494915219 -8.121508389296912 a31.517955233865784,31.517955233865784 0 0,0 0.4159506544536115,0.3483467110044601 l -6.822256686327949 8.005260520898632" fill="#ff780b" stroke="none" /><path d="M 114.16331599549186 84.49514656593476 l 17.00773688604748 -18.618695491030987 a46.21743317177142,46.21743317177142 0 0,0 0.5827624731011237,0.5416142069987966 l -17.325707242943448 18.32317669795755" fill="#caff1d" stroke="none" /><path d="M 114.42810811169701 84.74124197986012 l 3.0937350515457354 -3.2718464655591633 a25.502907489984075,25.502907489984075 0 0,0 0.31637784465443886,0.30435523589173236 l -3.1495961398125925 3.218108142905129" fill="#ff2303" stroke="none" /><path d="M 114.68862486808459 84.99185889309783 l 2.978519520229206 -3.0433101567180056 a25.258323055190786,25.258323055190786 0 0,0 0.3081084816451532,0.3067853659084159 l -3.0304638020416816 2.991588940159471" fill="#ff1f03" stroke="none" /><path d="M 114.94478906791727 85.2469230424477 l 7.610057845332422 -7.512435841910498 a31.693440638453417,31.693440638453417 0 0,0 0.37992245785251794,0.3915434889438981 l -7.738244566888049 7.380328157416485" fill="#ff7a0b" stroke="none" /><path d="M 115.19652480421416 85.50635884689758 l 7.594825344990387 -7.243542493363513 a31.49525034832763,31.49525034832763 0 0,0 0.3707930994679881,0.39553622571124253 l -7.718385766428837 7.111736850774216" fill="#ff780b" stroke="none" /><path d="M 115.68641384162765 86.03803664274999 l 34.49448487914097 -30.702411575532416 a67.17908145070311,67.17908145070311 0 0,0 0.7613889515539901,0.8703991910148297 l -35.01786569427281 30.10409682831464" fill="#38ff7e" stroke="none" /><path d="M 115.9244219780498 86.31012108654704 l 1.8264233487139954 -1.5701363932118018 a23.408557772198087,23.408557772198087 0 0,0 0.2600460991346412,0.30781255861345336 l -1.8531800613357539 1.538464884969242" fill="#ff0400" stroke="none" /><path d="M 116.38621287248628 86.86637796730983 l 8.207853153940917 -6.578630575749844 a31.51889888005625,31.51889888005625 0 0,0 0.335670148509336,0.4262670007695731 l -8.319877383044217 6.436371181027232" fill="#ff780b" stroke="none" /><path d="M 116.82858285166822 87.43820079747576 l 10.109935671605163 -7.546623680469435 a33.61595530503404,33.61595530503404 0 0,0 0.34214221260746086,0.4666815934894244 l -10.23834049672625 7.371479643308517" fill="#ff950d" stroke="none" /><path d="M 117.2510076193507 88.02491185347247 l 17.260889451915876 -11.981947793142288 a42.01202935436861,42.01202935436861 0 0,0 0.407267682102688,0.5976150692932715 l -17.464581599687296 11.683054700578609" fill="#fdff18" stroke="none" /><path d="M 117.45458315368197 88.32363383020206 l 13.97034358408801 -9.345559602853585 a37.808033321836255,37.808033321836255 0 0,0 0.35720195340723826,0.5440430812566235 l -14.129142172853173 9.103698457619288" fill="#ffcc13" stroke="none" /><line stroke="#e1ed5e" stroke-width="0.3" x1="172.23445277983987" x2="176.4835382374775" y1="55.19839476539836" y2="52.563006222186495" /><path d="M 173.08426987136738 54.67131705675599 a86.0,86.0 0 0,1 12.851231095245387,41.99856678651699" fill="none" id="id51" stroke="none" /><text fill="#e1ed5e" style="font-size:6.75px; font-family:Arial;" text-anchor="middle"><textPath startOffset="22.20632615414155" xlink:href="#id51">March</textPath></text><path d="M 117.84615892207809 88.93136811851018 l 8.933861790194491 -5.541003409615259 a31.51268782337158,31.51268782337158 0 0,0 0.28193981883569524,0.46343493108199685 l -9.027917407316412 5.386400705326181" fill="#ff780b" stroke="none" /><path d="M 118.03404312379186 89.2402003453031 l 10.83773170302894 -6.466205111936622 a33.62015202033929,33.62015202033929 0 0,0 0.29223969019761037,0.4995323614351257 l -10.947431067696877 6.278693338147601" fill="#ff950d" stroke="none" /><path d="M 118.3937258080291 89.86733742301442 l 18.408196547341042 -10.140634160351444 a42.016521151218754,42.016521151218754 0 0,0 0.34351887527049163,0.6364883044007933 l -18.580023521829997 9.822264872618192" fill="#fdff18" stroke="none" /><path d="M 118.56541770881063 90.18545643968196 l 13.5662900057928 -7.171772071175804 a36.34531000541113,36.34531000541113 0 0,0 0.2876308415128843,0.5556112347448089 l -13.6877302804658 6.937188114170651" fill="#ffb911" stroke="none" /><path d="M 118.89224826269711 90.83032412892265 l 9.49804947266663 -4.610040788198718 a31.557718496629786,31.557718496629786 0 0,0 0.23298884161670955,0.4907339200073934 l -9.575996508125096 4.445864452550785" fill="#ff790b" stroke="none" /><path d="M 119.04729006885535 91.15688171328212 l 9.58206773021383 -4.448683149325051 a31.564412134591013,31.564412134591013 0 0,0 0.22455476377723393,0.4947766561212327 l -9.657224810954409 4.283084484361756" fill="#ff790b" stroke="none" /><path d="M 119.47837535516314 92.15188598940014 l 21.456537314735748 -8.64514355269882 a44.132693327527114,44.132693327527114 0 0,0 0.2778393675710441,0.707070885079794 l -21.60217023218849 8.274523662723242" fill="#e3ff1b" stroke="none" /><path d="M 119.61058180528143 92.48833698450437 l 19.99581079831796 -7.65922163503184 a42.41252263365223,42.41252263365223 0 0,0 0.2552737262364098,0.684006672201797 l -20.124689113055997 7.3138918258007095" fill="#f8ff18" stroke="none" /><path d="M 119.85752413597 93.16781622104841 l 9.93720783346731 -3.418997741259427 a31.508931681206285,31.508931681206285 0 0,0 0.17204282747273922,0.5143861561190831 l -9.99458795471182 3.2474384822180293" fill="#ff780b" stroke="none" /><path d="M 119.97218684219823 93.5106431181261 l 10.026697759499902 -3.257871590235871 a31.542693927968617,31.542693927968617 0 0,0 0.1633378567544994,0.5178256420061705 l -10.081291100022607 3.0847957818032814" fill="#ff780b" stroke="none" /><path d="M 120.08093135843002 93.85539295169968 l 10.11157019328205 -3.094060946179236 a31.574358841667024,31.574358841667024 0 0,0 0.15455513768582632,0.5210830908019841 l -10.16333122807958 2.919548468630722" fill="#ff790b" stroke="none" /><path d="M 120.28053869075195 94.5502522615342 l 10.256419526229937 -2.7560855246570175 a31.62027066120514,31.62027066120514 0 0,0 0.1367255506329179,0.5268593204508807 l -10.302341408733158 2.5791297786572867" fill="#ff790b" stroke="none" /><path d="M 120.37134235888165 94.90015583598534 l 3.1502847865546486 -0.7886550233490282 a24.247502268244215,24.247502268244215 0 0,0 0.09787585085469006,0.40575859011586024 l -3.163393437670158 0.7343112015737618" fill="#ff1001" stroke="none" /><path d="M 120.45610955862082 95.25157060432595 l 16.756292360114138 -3.889599387276598 a38.201811446796,38.201811446796 0 0,0 0.14317604702631698,0.6418301448174146 l -16.820762794142492 3.600591072909219" fill="#ffd113" stroke="none" /><path d="M 120.53481517161879 95.60439243477599 l 10.357374847902712 -2.2170618462748575 a31.592005332805275,31.592005332805275 0 0,0 0.1092492224154996,0.532738007569603 l -10.394003366233207 2.038448182541843" fill="#ff790b" stroke="none" /><path d="M 120.6074358757038 95.95851677861258 l 10.407491283711106 -2.041093402088184 a31.60575019018318,31.60575019018318 0 0,0 0.10010636162789815,0.5347721867054219 l -10.441083369248863 1.8616431379201992" fill="#ff790b" stroke="none" /><path d="M 120.67395015179393 96.31383870115 l 10.38640177734383 -1.8518934206982898 a31.5502062122992,31.5502062122992 0 0,0 0.09072658199113542,0.5354734226490179 l -10.416740220855187 1.6728342097334339" fill="#ff780b" stroke="none" /><path d="M 120.73433829027371 96.67025291283417 l 4.162519434201418 -0.668462951036397 a25.21585231679346,25.21585231679346 0 0,0 0.06513387524242958,0.4291508571339121 l -4.173409202883147 0.5967129815104028" fill="#ff1f03" stroke="none" /><path d="M 120.83666639777658 97.38593545837742 l 12.102694408008256 -1.518343851463886 a33.19756451038126,33.19756451038126 0 0,0 0.06625229570336492,0.5676092099912875 l -12.12703705671521 1.3097909031477457" fill="#ff8f0d" stroke="none" /><path d="M 120.87857604477298 97.74499172005257 l 20.88096039864957 -2.2552658041062843 a42.00239822061145,42.00239822061145 0 0,0 0.07144982822285165,0.7194900194785923 l -20.91668735255465 1.8955002539232573" fill="#fdff18" stroke="none" /><path d="M 120.94382443527127 98.46500227214037 l 10.518677427177762 -0.770926341590924 a31.546890643273862,31.546890643273862 0 0,0 0.03503118311664194,0.5419168976457991 l -10.530389201298819 0.5897503796920897" fill="#ff780b" stroke="none" /><path d="M 120.96714384426684 98.82574320788733 l 6.30120899362911 -0.35289677574819633 a27.311083180859356,27.311083180859356 0 0,0 0.022247337545683116,0.46960613346208135 l -6.306349939408289 0.24437953566311524" fill="#ff3d05" stroke="none" /><path d="M 120.98425023603335 99.18683210126433 l 44.47989609596292 -1.7236557531241181 a65.51328055606479,65.51328055606479 0 0,0 0.03396802932892765,1.1272335240489315 l -44.50297581974749 0.9577520816501874" fill="#36ff6b" stroke="none" /><line stroke="#e1ed5e" stroke-width="0.3" x1="184.98032266829074" x2="189.97916517819016" y1="98.17113171792111" y2="98.06355123074" /><path d="M 185.9800911702706 98.14961562048488 a86.0,86.0 0 0,1 -9.607161424134198,41.387399972396054" fill="none" id="id52" stroke="none" /><text fill="#e1ed5e" style="font-size:6.75px; font-family:Arial;" text-anchor="middle"><textPath startOffset="21.466115282336823" xlink:href="#id52">April</textPath></text><path d="M 120.99980553446 99.90962569577887 l 21.355144631513976 -0.09190353379452403 a42.355342387618236,42.355342387618236 0 0,0 -0.0031377295693545523,0.7290978485981765 l -21.35356260465512 -0.2757037930073372" fill="#f9ff18" stroke="none" /><path d="M 120.9764740272857 100.99374915477107 l 13.848463908950457 0.6560635160368682 a34.863995527068596,34.863995527068596 0 0,0 -0.03355850344013869,0.5992096222511594 l -13.83511905462279 -0.8943448546234509" fill="#ffa50f" stroke="none" /><path d="M 120.89721153311464 102.0752229133903 l 20.89945323572333 2.0754455283842272 a42.00225272901639,42.00225272901639 0 0,0 -0.07763956108150376,0.7188459104730023 l -20.860631373140773 -2.434887760742021" fill="#fdff18" stroke="none" /><path d="M 120.8583938346157 102.4346265915055 l 20.879409599731737 2.437079586736015 a42.02115843966396,42.02115843966396 0 0,0 -0.09004231949923565,0.7177258798373265 l -20.834365770985652 -2.7961232208607365" fill="#fdff18" stroke="none" /><path d="M 120.70491114924044 103.5080841355445 l 20.70198024745922 3.507587545630762 a41.99702732665878,41.99702732665878 0 0,0 -0.12689813309784811,0.7117121214524997 l -20.63853567202218 -3.8634184178164803" fill="#fdff18" stroke="none" /><path d="M 120.64145759157962 103.86396538481128 l 14.689204988734648 2.7497369967720533 a35.9443566858023,35.9443566858023 0 0,0 -0.1190786335132334,0.607179386841043 l -14.63969642224575 -3.002180110681041" fill="#ffb410" stroke="none" /><path d="M 120.49622156327973 104.57218783832717 l 12.304171398352869 2.7447489604147273 a33.60659671187044,33.60659671187044 0 0,0 -0.13080877124897303,0.5635207629569638 l -12.255102061173345 -2.956138380720256" fill="#ff940d" stroke="none" /><path d="M 120.41448212921028 104.9243191809786 l 2.6801203052582268 0.6464904543245377 a23.756990162875123,23.756990162875123 0 0,0 -0.09931404489066548,0.39671024142048716 l -2.6685949460725005 -0.6925285351424207" fill="#ff0901" stroke="none" /><path d="M 120.23288151984713 105.62410040840565 l 14.186228641972349 3.943322369618441 a35.72409163218736,35.72409163218736 0 0,0 -0.16978701835466578,0.5910508848568007 l -14.116248986731584 -4.1869307299798235" fill="#ffb110" stroke="none" /><path d="M 120.13307415673323 105.97154293290107 l 22.139642791187573 6.566698479201467 a44.092971048311014,44.092971048311014 0 0,0 -0.22208837417016694,0.7257976567354364 l -22.023327644511273 -6.946823108488959" fill="#e4ff1b" stroke="none" /><path d="M 120.02730092923936 106.31721596034902 l 42.500818776418434 13.406042664007096 a65.56502638364685,65.56502638364685 0 0,0 -0.3487676909227413,1.0733965806515555 l -42.26375883447945 -14.135638144636447" fill="#36ff6c" stroke="none" /><path d="M 119.79798401119884 107.00284435728193 l 37.624279931353804 13.30827301734557 a60.90860271992845,60.90860271992845 0 0,0 -0.3581302253324868,0.985420569303526 l -37.38962544501609 -13.953941383655227" fill="#30ff34" stroke="none" /><path d="M 119.26925614724726 108.34839909993367 l 9.660325392494151 4.18533290519809 a31.528005424400252,31.528005424400252 0 0,0 -0.2200338226469831,0.49611818283622044 l -9.586850485115894 -4.350999424526997" fill="#ff780b" stroke="none" /><path d="M 118.97047184881838 109.00673069616215 l 40.22408459986503 19.097442613858536 a65.52739938831729,65.52739938831729 0 0,0 -0.49253745695013557,1.014773046093097 l -39.889393886300184 -19.787004615916906" fill="#36ff6b" stroke="none" /><line stroke="#e1ed5e" stroke-width="0.3" x1="174.80103733775053" x2="179.2010983576182" y1="140.37084112569926" y2="142.7455964860345" /><path d="M 175.68104954172406 140.8457921977663 a86.0,86.0 0 0,1 -30.038265399797805,32.042727171017184" fill="none" id="id53" stroke="none" /><text fill="#e1ed5e" style="font-size:6.75px; font-family:Arial;" text-anchor="middle"><textPath startOffset="22.206326154141568" xlink:href="#id53">May</textPath></text><path d="M 118.48025628344425 109.97397251340804 l 9.252198838291124 4.993500928034893 a31.51371651042394,31.51371651042394 0 0,0 -0.2617493135845423,0.47515103438352685 l -9.164873115255071 -5.152022480816226" fill="#ff780b" stroke="none" /><path d="M 118.12598468904814 110.60418214915192 l 9.084865655398973 5.31488754200665 a31.52534149378657,31.52534149378657 0 0,0 -0.2780521973711186,0.46603147632650577 l -8.992032582329628 -5.470481112219259" fill="#ff780b" stroke="none" /><path d="M 117.75023020441432 111.22182372390056 l 17.74745081702456 11.220066575120551 a41.99671175333993,41.99671175333993 0 0,0 -0.39155961502189657,0.6077092179126119 l -17.551686338625615 -11.523897392954616" fill="#fdff18" stroke="none" /><path d="M 117.55443506779139 111.5257021239791 l 17.564929229265744 11.53259226762242 a42.01255394378176,42.01255394378176 0 0,0 -0.40211394649831894,0.6011057904782698 l -17.363812177356703 -11.833234972306496" fill="#fdff18" stroke="none" /><path d="M 117.35343817320211 111.8261652097733 l 8.687949641781533 5.9207360969287555 a31.513590486014138,31.513590486014138 0 0,0 -0.30934204546909,0.4456302883181861 l -8.584746689150306 -6.0694076474339616" fill="#ff780b" stroke="none" /><path d="M 116.93607887273984 112.41649034213515 l 18.64649203728116 13.670459971006645 a44.12083781170753,44.12083781170753 0 0,0 -0.4543159086073773,0.60863040282429 l -18.40841486197869 -13.98940325334025" fill="#e3ff1b" stroke="none" /><path d="M 116.71984013943494 112.70617746262583 l 16.73429758134683 12.717164339357675 a42.018158443957475,42.018158443957475 0 0,0 -0.4425776286121165,0.5720912450458805 l -16.512913135516644 -13.003333578516807" fill="#fdff18" stroke="none" /><path d="M 116.27256486870786 113.27417163493432 l 17.559291852580373 14.323805479938711 a43.660541339324126,43.660541339324126 0 0,0 -0.4800663639077739,0.5782708610405651 l -17.310129488779054 -14.623937598093047" fill="#e9ff1a" stroke="none" /><path d="M 116.0416608686014 113.55231037782055 l 8.046744170482517 6.7980476225343 a31.533923448717417,31.533923448717417 0 0,0 -0.35386691730056763,0.4116271700276539 l -7.928534743611171 -6.935551891723482" fill="#ff780b" stroke="none" /><path d="M 115.80600337817218 113.82643327865902 l 7.9277134433815535 6.934833452497901 a31.532832261754507,31.532832261754507 0 0,0 -0.3608874847445747,0.4054609148524882 l -7.807167108988641 -7.0702685370912555" fill="#ff780b" stroke="none" /><path d="M 115.32070863581623 114.36230785411682 l 15.325092453178367 14.366417437820017 a42.006008871181685,42.006008871181685 0 0,0 -0.4990582864798538,0.5232606181653906 l -15.07552761531955 -14.628085172567914" fill="#fdff18" stroke="none" /><path d="M 114.81725581225074 114.88116024355365 l 14.840994521934874 14.90500133445881 a42.03364407753254,42.03364407753254 0 0,0 -0.517113997583307,0.5061048847044449 l -14.582230571975773 -15.158256322085826" fill="#fdff18" stroke="none" /><path d="M 114.29624159901734 115.38237550388516 l 7.170857854829876 7.715652218381607 a31.533398859304263,31.533398859304263 0 0,0 -0.4007751601137803,0.36609860647660825 l -7.0369831452492315 -7.837943591444799" fill="#ff780b" stroke="none" /><path d="M 113.75828350139079 115.86535959552629 l 14.167510402848967 16.337259447505687 a42.624624789113625,42.624624789113625 0 0,0 -0.5584526584492836,0.4759254709021673 l -13.884192267822636 -16.578709308630803" fill="#f5ff19" stroke="none" /><path d="M 113.48314897796784 116.09983520530334 l 13.50549104661481 16.126513218277132 a42.03479776440601,42.03479776440601 0 0,0 -0.5587222712680264,0.4597903916350203 l -13.225898646802094 -16.356598728769335" fill="#fdff18" stroke="none" /><path d="M 112.92097659922987 116.55440617244103 l 14.21255841267939 18.209185885149093 a44.09916161322174,44.09916161322174 0 0,0 -0.6024182173502777,0.461908600633589 l -13.89701146683562 -18.451133827610054" fill="#e4ff1b" stroke="none" /><path d="M 112.63410532772338 116.77436683061366 l 6.334343372225123 8.410140378014194 a31.52874005449641,31.52874005449641 0 0,0 -0.43632027255251765,0.32277930668984195 l -6.188638129254041 -8.517929633443805" fill="#ff780b" stroke="none" /><line stroke="#e1ed5e" stroke-width="0.3" x1="143.8653032363475" x2="146.44561519142675" y1="172.8068346515853" y2="177.08958963109032" /><path d="M 144.38136562736335 173.6633856474863 a86.0,86.0 0 0,1 -40.68145358897372,12.25698825130547" fill="none" id="id54" stroke="none" /><text fill="#e1ed5e" style="font-size:6.75px; font-family:Arial;" text-anchor="middle"><textPath startOffset="21.466115282336833" xlink:href="#id54">June</textPath></text><path d="M 109.2508944713604 118.85261126421891 l 5.5566039176849715 11.323931316443348 a33.613772931108215,33.613772931108215 0 0,0 -0.521633465664993,0.25041576313270136 l -5.360857784019745 -11.417901356075609" fill="#ff950d" stroke="none" /><path d="M 108.92500713936063 119.00905698771935 l 9.819496875265173 20.91419903402113 a44.10468004794684,44.10468004794684 0 0,0 -0.6899904253423182,0.3167407623813886 l -9.458038454155435 -21.08012686673659" fill="#e3ff1b" stroke="none" /><path d="M 108.59647513512805 119.15986991738527 l 9.464884251693762 21.09538481703056 a44.12140338466859,44.12140338466859 0 0,0 -0.6956040221785321,0.30493236140521146 l -9.100359554857476 -21.255181731730225" fill="#e3ff1b" stroke="none" /><path d="M 107.93186726928326 119.44442032107085 l 8.73169628055024 21.405145450737187 a44.11758576718144,44.11758576718144 0 0,0 -0.7056270111957894,0.2807835502366524 l -8.361948193312585 -21.552275845379906" fill="#e3ff1b" stroke="none" /><path d="M 107.2578585660854 119.70592522655815 l 3.6412120768177876 9.88631181862679 a31.535539225093487,31.535539225093487 0 0,0 -0.5109965306330021,0.18322517549925937 l -3.4704959855550506 -9.94752453516601" fill="#ff780b" stroke="none" /><path d="M 106.91757812671514 119.82793768551818 l 6.921416495059382 19.838939647035588 a42.0116523057279,42.0116523057279 0 0,0 -0.6848504835032474,0.232338467345801 l -6.578896278618908 -19.95514110127951" fill="#fdff18" stroke="none" /><path d="M 106.57524785965236 119.94407469862006 l 6.576701966021644 19.948485301333093 a42.00464411903652,42.00464411903652 0 0,0 -0.6886334465350302,0.22047868325302347 l -6.232347174395673 -20.058736831245824" fill="#fdff18" stroke="none" /><path d="M 106.2309692047433 120.05430185196036 l 8.300924146850669 26.71642773718824 a48.97629090369504,48.97629090369504 0 0,0 -0.8072342828982572,0.24321306759344985 l -7.839814889512166 -26.855356173887415" fill="#aaff21" stroke="none" /><path d="M 104.83641907484287 120.43548508189849 l 5.403042576477087 22.829658526240767 a44.46031068651867,44.46031068651867 0 0,0 -0.7462554127967161,0.16984530235350057 l -5.009267014287508 -22.919280562171952" fill="#dfff1b" stroke="none" /><path d="M 104.13013068566511 120.58985236759428 l 2.068786471872298 10.313477048987684 a31.5189203964189,31.5189203964189 0 0,0 -0.5328684521173888,0.10212550708590254 l -1.890950405183205 -10.347559754422054" fill="#ff780b" stroke="none" /><path d="M 103.7750983002368 120.6578951692458 l 2.277391650183555 12.46222329253159 a33.66860379525868,33.66860379525868 0 0,0 -0.5710051367038773,0.09927656220073637 l -2.062537542007628 -12.499578433253333" fill="#ff950d" stroke="none" /><path d="M 103.41894727170886 120.7198165907248 l 3.7611702369204925 22.793787467957685 a44.102016117333164,44.102016117333164 0 0,0 -0.7500789761747885,0.11714690992524125 l -3.3682553971371867 -22.85515268523003" fill="#e4ff1b" stroke="none" /><path d="M 102.70371172650421 120.8252237178851 l 5.731108747515017 44.14361954661688 a65.51409612866804,65.51409612866804 0 0,0 -1.11958154781689,0.13556573372894304 l -4.9703997766467465 -44.23573080907118" fill="#36ff6b" stroke="none" /><path d="M 101.98527174616119 120.90594882070398 l 2.184052865237868 22.99921787063376 a44.102686198341374,44.102686198341374 0 0,0 -0.7563730017711586,0.06526304524442522 l -1.7878355457251673 -23.03340516815685" fill="#e4ff1b" stroke="none" /><path d="M 101.26447882468166 120.96189622390904 l 1.3921220706084885 23.07790198262517 a44.119852157380464,44.119852157380464 0 0,0 -0.7584663356498872,0.03920404604189539 l -0.9946676665451216 -23.09844583542927" fill="#e3ff1b" stroke="none" /><line stroke="#e1ed5e" stroke-width="0.3" x1="102.19456741930631" x2="102.32365962044197" y1="184.97166512339345" y2="189.96999836594603" /><path d="M 102.22038585953345 185.97133177190398 a86.0,86.0 0 0,1 -42.740103519485714,-10.115201625700543" fill="none" id="id55" stroke="none" /><text fill="#e1ed5e" style="font-size:6.75px; font-family:Arial;" text-anchor="middle"><textPath startOffset="22.20632615414155" xlink:href="#id55">July</textPath></text><path d="M 100.54218724476979 120.99299961872073 l 0.32563381772660793 12.608246832290831 a33.61245121168835,33.61245121168835 0 0,0 -0.5785187994962003,0.009959725779422295 l -0.10855532833773965 -12.611984035349414" fill="#ff950d" stroke="none" /><path d="M 100.18074693466247 120.99922214144158 l 0.3814870243774313 44.32125382341502 a65.32289558263707,65.32289558263707 0 0,0 -1.124467918079743,0.0 l 0.3814870243774008 -44.32125382341502" fill="#35ff69" stroke="none" /><path d="M 99.45781275523022 120.99299961872073 l -0.5453182728682202 21.11423019415536 a42.12127100130354,42.12127100130354 0 0,0 -0.7246456178270476,-0.024958260267540496 l 0.9086842423699107 -21.101715135461728" fill="#fcff18" stroke="none" /><path d="M 98.73552117531835 120.96189622390904 l -0.9755986623909063 16.172985674450768 a37.20238434231359,37.20238434231359 0 0,0 -0.6388840562691969,-0.044061185073084326 l 1.2538454794390332 -16.1537961448614" fill="#ffc412" stroke="none" /><path d="M 98.01472825383883 120.90594882070398 l -2.1842591797756854 23.00139047051952 a44.1048685722672,44.1048685722672 0 0,0 -0.7551749080753185,-0.07827696694590804 l 2.579866684456597 -22.960384135117852" fill="#e3ff1b" stroke="none" /><path d="M 97.65516085044442 120.86867818915974 l -3.2493571163404136 28.918737558359236 a50.100716548545144,50.100716548545144 0 0,0 -0.856179678797538,-0.10367143562372416 l 3.746664218189341 -28.858520594010166" fill="#9eff22" stroke="none" /><path d="M 97.2962882734958 120.8252237178851 l -2.4378052598766997 18.777090552923088 a39.934677819222486,39.934677819222486 0 0,0 -0.680926968915667,-0.09437027327103567 l 2.7606608199791975 -18.732345714159447" fill="#ffe715" stroke="none" /><path d="M 96.93821686468263 120.77559828337769 l -1.8397755877425612 12.483718425910878 a33.61855776032587,33.61855776032587 0 0,0 -0.5717782451997131,-0.08930000268667 l 2.0543896965507913 -12.450200115877102" fill="#ff950d" stroke="none" /><path d="M 96.22490169976321 120.6578951692458 l -3.7743222598025086 20.653648561432284 a41.99568306628757,41.99568306628757 0 0,0 -0.709991787462626,-0.1360716158619048 l 4.1292816618368295 -20.58561974722191" fill="#fdff18" stroke="none" /><path d="M 95.86986931433489 120.58985236759428 l -4.544914560006093 22.657665564591092 a44.10900381225059,44.10900381225059 0 0,0 -0.7431496274579995,-0.15573422994231315 l 4.93425564889348 -22.57607535392224" fill="#e3ff1b" stroke="none" /><path d="M 95.16358092515715 120.4354850818985 l -11.603837368267259 49.030086467374 a71.38450575987986,71.38450575987986 0 0,0 -1.1932998222492948,-0.2932840634684436 l 12.446090475259766 -48.82308114559152" fill="#3dffad" stroke="none" /><path d="M 94.81253420990036 120.34920634021253 l -2.2416997947253385 8.793660242104803 a30.074892749958334,30.074892749958334 0 0,0 -0.5005458308347567,-0.13219870331372138 l 2.3927360683715846 -8.7537701894875" fill="#ff6409" stroke="none" /><path d="M 94.46302465271185 120.25689768951611 l -6.093732513969906 22.29378105200045 a44.11160421836503,44.11160421836503 0 0,0 -0.7307167729749633,-0.20650785897528748 l 6.476580455049483 -22.185584399686643" fill="#e3ff1b" stroke="none" /><path d="M 93.76903079525671 120.05430185196036 l -6.233542536214996 20.062584089346387 a42.00867280179537,42.00867280179537 0 0,0 -0.6886994936531861,-0.22049982945455773 l 6.577963374959123 -19.952311413232124" fill="#fdff18" stroke="none" /><path d="M 93.42475214034765 119.94407469862007 l -7.234632592882048 21.944123769828472 a44.10594029204486,44.10594029204486 0 0,0 -0.7189903961538329,-0.2439205793127532 l 7.611292721973107 -21.816340203617596" fill="#e3ff1b" stroke="none" /><path d="M 92.7421414339146 119.70592522655815 l -11.141397525882962 30.250182552513834 a53.236691568617324,53.236691568617324 0 0,0 -0.8571862270261658,-0.3241144845514843 l 11.66045397366941 -30.053919817855714" fill="#7bff26" stroke="none" /><path d="M 91.7346041902142 119.30500536409082 l -3.9045091605084785 9.1195354732457 a30.92023785159818,30.92023785159818 0 0,0 -0.4874786422537731,-0.21369631108730902 l 4.060908477419995 -9.050974608863937" fill="#ff700a" stroke="none" /><path d="M 91.40352486487194 119.15986991738527 l -4.303603366475942 9.591894280105091 a31.51310790473758,31.51310790473758 0 0,0 -0.49300307140671495,-0.22631352980913874 l 4.468074433650076 -9.516393679961878" fill="#ff780b" stroke="none" /><path d="M 91.07499286063937 119.00905698771935 l -9.848382922604788 20.97572240441789 a44.17264716378887,44.17264716378887 0 0,0 -0.6854907681701823,-0.32907722592707156 l 10.207986358775212 -20.803090901991254" fill="#e3ff1b" stroke="none" /><path d="M 90.7491055286396 118.85261126421891 l -10.183915833009747 20.754037022219244 a44.11800584854744,44.11800584854744 0 0,0 -0.678883866227963,-0.34040646392457996 l 10.53965360692047 -20.575662717385363" fill="#e3ff1b" stroke="none" /><path d="M 90.42595943632237 118.69057910512821 l -8.324814413689268 16.251821924055292 a39.25990829313151,39.25990829313151 0 0,0 -0.5988240853459764,-0.3132764592789133 l 8.60332940156174 -16.106116045831662" fill="#ffde14" stroke="none" /><path d="M 90.10565033884886 118.52300852407294 l -20.984224955067184 39.28413599934895 a65.53741166906995,65.53741166906995 0 0,0 -0.9904799729969889,-0.5400886547048173 l 21.657327739932814 -38.91710669288437" fill="#36ff6b" stroke="none" /><line stroke="#e1ed5e" stroke-width="0.3" x1="58.666819895761336" x2="56.23545636021788" y1="174.27360380694188" y2="178.64263932499728" /><path d="M 58.180547188652646 175.14741091055294 a86.0,86.0 0 0,1 -31.652253787137756,-30.449443065178592" fill="none" id="id56" stroke="none" /><text fill="#e1ed5e" style="font-size:6.75px; font-family:Arial;" text-anchor="middle"><textPath startOffset="22.20632615414155" xlink:href="#id56">August</textPath></text><path d="M 89.4739219176387 118.17145234162733 l -5.443889670383029 9.397933487137053 a31.86080515302411,31.86080515302411 0 0,0 -0.4721955342155042,-0.2789814447337493 l 5.604853075626915 -9.302833470109555" fill="#ff7d0b" stroke="none" /><path d="M 88.8546689885994 117.79835938074946 l -7.563420916664504 12.078284932495292 a35.25097550601996,35.25097550601996 0 0,0 -0.5115054158229735,-0.32646695741935144 l 7.770208134534401 -11.946303546252135" fill="#ffaa0f" stroke="none" /><path d="M 88.54995079064634 117.60387380957326 l -6.885399250584012 10.585954463566294 a33.62818889408303,33.62818889408303 0 0,0 -0.48252495949233526,-0.31979123186968234 l 7.066598908816308 -10.465865210605294" fill="#ff950d" stroke="none" /><path d="M 87.65650970185807 116.9893568818739 l -12.610657986085805 17.35708165729393 a42.45453281943,42.45453281943 0 0,0 -0.5875202529135563,-0.43463343747992916 l 12.907563209417926 -17.13743827107423" fill="#f8ff18" stroke="none" /><path d="M 87.07902340077011 116.55440617244103 l -9.059209904906085 11.606695454905068 a35.7236090509108,35.7236090509108 0 0,0 -0.48149047023593683,-0.38252514975662866 l 9.257657867859379 -11.44903639114331" fill="#ffb110" stroke="none" /><path d="M 86.79598089348748 116.32954008644616 l -13.27677295869359 16.419515489848003 a42.11570953385313,42.11570953385313 0 0,0 -0.5597977423063643,-0.46067543108186826 l 13.557440829544642 -16.188544939908954" fill="#fcff18" stroke="none" /><path d="M 86.24171649860922 115.8653595955263 l -34.384344671014844 39.65029450127438 a73.48265439640926,73.48265439640926 0 0,0 -0.9484778763270991,-0.8369214482269464 l 35.061764900248534 -39.05254991127514" fill="#40ffc4" stroke="none" /><path d="M 85.70375840098266 115.38237550388516 l -15.736908594630492 16.9324948516233 a44.116221015036274,44.116221015036274 0 0,0 -0.5517976372735623,-0.5217591075141089 l 16.02604206629487 -16.659101107363263" fill="#e3ff1b" stroke="none" /><path d="M 85.44109423537348 115.13401014063109 l -7.291173532892845 7.579188708811044 a31.516906055039474,31.516906055039474 0 0,0 -0.38773305620414605,-0.3794784024864653 l 7.420556541472785 -7.452560203402009" fill="#ff780b" stroke="none" /><path d="M 84.67929136418377 114.36230785411682 l -15.327494906685564 14.368669603675777 a42.009301899255675,42.009301899255675 0 0,0 -0.49001568561021536,-0.5318152474566015 l 15.572557000291509 -14.10270310141783" fill="#fdff18" stroke="none" /><path d="M 84.43433777217949 114.09645910891817 l -27.270600205222795 24.696597873073895 a57.79140636150534,57.79140636150534 0 0,0 -0.6614120516840254,-0.7431034516480278 l 27.69167110655516 -24.223520251685002" fill="#4bff2c" stroke="none" /><path d="M 83.95833913139862 113.55231037782056 l -17.6487930722604 14.910047249369114 a44.10388291794014,44.10388291794014 0 0,0 -0.4849410945704528,-0.584142788152273 l 17.90283016672439 -14.60404320410308" fill="#e4ff1b" stroke="none" /><path d="M 83.72743513129214 113.27417163493432 l -8.184454852608196 6.676381955054341 a31.562167260754634,31.562167260754634 0 0,0 -0.33979241306595803,-0.4239432807717327 l 8.298165177729015 -6.534510840704348" fill="#ff790b" stroke="none" /><path d="M 83.50135304334701 112.99209946851258 l -18.15645808137867 14.297566946484013 a44.110114466398755,44.110114466398755 0 0,0 -0.4646122196046697,-0.6005739241965126 l 18.39987711820141 -13.982915028174247" fill="#e3ff1b" stroke="none" /><path d="M 83.28015986056508 112.70617746262583 l -16.72156683135752 12.707489655434431 a42.00216871274319,42.00216871274319 0 0,0 -0.43249979802394845,-0.5794041575599433 l 16.937827896076552 -12.417772618365179" fill="#fdff18" stroke="none" /><path d="M 82.85270091963577 112.12312394758628 l -29.17347738833949 20.625620437561818 a56.728252145358624,56.728252145358624 0 0,0 -0.5568528778819981,-0.8021881026391711 l 29.52419117338362 -20.120391072735632" fill="#56ff2a" stroke="none" /><path d="M 82.44556493220864 111.52570212397912 l -17.546021581240154 11.520178087492674 a41.9899351236942,41.9899351236942 0 0,0 -0.3914964325872712,-0.6076111573709704 l 17.74172287720447 -11.216445330200255" fill="#fdff18" stroke="none" /><path d="M 82.24976979558568 111.22182372390057 l -17.742999409302264 11.217252363011344 a41.99144536743442,41.99144536743442 0 0,0 -0.3809931035213077,-0.6142821937214732 l 17.933457152491528 -10.910173837924606" fill="#fdff18" stroke="none" /><path d="M 82.05923443525364 110.91462005526583 l -8.9921034839656 5.470524246633741 a31.52542448547107,31.52542448547107 0 0,0 -0.27805292935430814,-0.4660327031724363 l 9.084937289018141 -5.314929449575194" fill="#ff780b" stroke="none" /><line stroke="#e1ed5e" stroke-width="0.3" x1="26.63291911575756" x2="22.317208475507996" y1="142.92168965132927" y2="145.44649492493687" /><path d="M 25.769776987707644 143.4266507060508 a86.0,86.0 0 0,1 -11.730757126820373,-40.83630448921669" fill="none" id="id57" stroke="none" /><text fill="#e1ed5e" style="font-size:6.75px; font-family:Arial;" text-anchor="middle"><textPath startOffset="21.46611528233685" xlink:href="#id57">September</textPath></text><path d="M 81.87401531095188 110.60418214915194 l -22.847901887538338 13.366629041003137 a47.47061375530168,47.47061375530168 0 0,0 -0.40654738691964337,-0.7088496370756321 l 23.07460127061036 -12.971359558069198" fill="#bcff1f" stroke="none" /><path d="M 81.51974371655577 109.97397251340807 l -27.732497198761386 14.967496150819654 a52.513764324563155,52.513764324563155 0 0,0 -0.4224794650621145,-0.7991719323541068 l 27.98602917204839 -14.487909203379422" fill="#83ff25" stroke="none" /><path d="M 81.18737489456691 109.33194174019688 l -11.319331786372517 5.614917863742508 a33.63544912959401,33.63544912959401 0 0,0 -0.25282124320989047,-0.5208866441910391 l 11.414306286197126 -5.4192422635861845" fill="#ff950d" stroke="none" /><path d="M 81.02952815118164 109.00673069616217 l -9.515634667516368 4.51779795127884 a31.53365090812386,31.53365090812386 0 0,0 -0.22858200437753817,-0.4923453018194573 l 9.591991288733732 -4.353332582180556" fill="#ff780b" stroke="none" /><path d="M 80.73074385275274 108.34839909993369 l -19.295428553134943 8.359738286464097 a42.02852318322209,42.02852318322209 0 0,0 -0.2818893453472965,-0.6663031436345265 l 19.436468879674546 -8.02636061716341" fill="#fdff18" stroke="none" /><path d="M 80.58989483394504 108.01547362559985 l -7.781146881446546 3.2132529459050696 a29.418505881984814,29.418505881984814 0 0,0 -0.18925539224332422,-0.4697163628261741 l 7.835304887947257 -3.07883721523609" fill="#ff5b08" stroke="none" /><path d="M 80.20201598880116 107.00284435728193 l -25.906125602863085 9.163385796979501 a48.47899166664607,48.47899166664607 0 0,0 -0.27150352031544744,-0.7891163180174346 l 26.06001995412176 -8.71609677587277" fill="#b0ff20" stroke="none" /><path d="M 80.0844068197444 106.66101706037122 l -9.99675450255665 3.343538487012722 a31.54107917618125,31.54107917618125 0 0,0 -0.16778014072806957,-0.5163741769837291 l 10.052826894300969 -3.1709654100511893" fill="#ff780b" stroke="none" /><path d="M 79.97269907076064 106.31721596034903 l -10.01812604925761 3.1600197148264546 a31.504692957764437,31.504692957764437 0 0,0 -0.15868347882600622,-0.5185867901680292 l 10.071036300589746 -2.9871059521063774" fill="#ff780b" stroke="none" /><path d="M 79.86692584326677 105.97154293290107 l -20.12823211479772 5.970106765673176 a41.994949460780106,41.994949460780106 0 0,0 -0.19959072237056133,-0.6948014884147784 l 20.228015474054384 -5.6227478017538015" fill="#fdff18" stroke="none" /><path d="M 79.76711848015287 105.62410040840567 l -30.35217320083832 8.436943078393726 a52.502959012158584,52.502959012158584 0 0,0 -0.2345430277466449,-0.8728218583932196 l 30.49290430492674 -7.913230286824967" fill="#83ff25" stroke="none" /><path d="M 79.50377843672027 104.57218783832718 l -20.560432832170996 4.586511745872857 a42.06578952333011,42.06578952333011 0 0,0 -0.15156897148086296,-0.7080797748497863 l 20.636335842376297 -4.231918151606907" fill="#fcff18" stroke="none" /><path d="M 79.4281124754447 104.21870165774334 l -21.453833338801733 4.399563344069409 a42.90029959949315,42.90029959949315 0 0,0 -0.14212270088098705,-0.7246805898853481 l 21.52638597265839 -4.029619027116106" fill="#f2ff19" stroke="none" /><path d="M 79.29508885075956 103.50808413554451 l -20.69997400747616 3.5072476234448753 a41.99499249350541,41.99499249350541 0 0,0 -0.11462282358754732,-0.713756431895698 l 20.757278585425 -3.1504119618559634" fill="#fdff18" stroke="none" /><path d="M 79.23777060512086 103.15116336523772 l -24.289365247569027 3.6864903319050986 a45.56752887648743,45.56752887648743 0 0,0 -0.11102408846638129,-0.7765022161483275 l 24.349223387052007 -3.2678426437763703" fill="#d2ff1c" stroke="none" /><path d="M 79.10278846688536 102.07522291339032 l -21.98195905462851 2.1829450804517783 a43.090083139355386,43.090083139355386 0 0,0 -0.06694435042265992,-0.7387253285313127 l 22.01627800132825 -1.8042383633718995" fill="#f0ff19" stroke="none" /><path d="M 79.0235259727143 100.99374915477108 l -10.505794482860113 0.49770635302961935 a31.51757716063638,31.51757716063638 0 0,0 -0.021008517045076856,-0.5421364756863739 l 10.512805132756391 -0.31679263032924865" fill="#ff780b" stroke="none" /><path d="M 79.0095281055655 100.63252640178507 l -33.264811648544764 1.002401076256468 a54.27991138706411,54.27991138706411 0 0,0 -0.020104083249139745,-0.9341577511092535 l 33.27713779447891 -0.42965350935708546" fill="#70ff27" stroke="none" /><line stroke="#e1ed5e" stroke-width="0.3" x1="15.007084014347285" x2="10.007500721073583" y1="101.09737516637583" y2="101.16192664675087" /><path d="M 14.007167355692545 101.11028546245083 a86.0,86.0 0 0,1 10.666146001902534,-42.60595125391555" fill="none" id="id58" stroke="none" /><text fill="#e1ed5e" style="font-size:6.75px; font-family:Arial;" text-anchor="middle"><textPath startOffset="22.20632615414155" xlink:href="#id58">October</textPath></text><path d="M 79.00175016825051 100.2711162175752 l -20.999012745212084 0.27112606783481985 a42.00076297705012,42.00076297705012 0 0,0 -0.0031114619431589696,-0.7229941773532191 l 21.000568504444747 0.0903775877220746" fill="#fdff18" stroke="none" /><path d="M 79.03285615573316 98.82574320788736 l -47.016961019410445 -2.6331667408593904 a68.09063803545169,68.09063803545169 0 0,0 0.07561111605329325,-1.1696704990723004 l 46.96466931235274 3.4420963041847026" fill="#39ff89" stroke="none" /><path d="M 79.05617556472873 98.46500227214037 l -4.825031643839395 -0.3536322906561059 a25.837973352659787,25.837973352659787 0 0,0 0.03632759525215999,-0.44328867650093334 l 4.818229564767738 0.4366348843648176" fill="#ff2803" stroke="none" /><path d="M 79.08570108090925 98.10471618934814 l -20.90880980783467 -1.8947863795049253 a41.9944883958662,41.9944883958662 0 0,0 0.0714363729049826,-0.7193545262639014 l 20.873096309247455 2.254416436473257" fill="#fdff18" stroke="none" /><path d="M 79.12142395522702 97.74499172005258 l -20.90954208523564 -2.2583527933611127 a42.031146130287866,42.031146130287866 0 0,0 0.08388145224642544,-0.7186450573077435 l 20.867570279985625 2.617941588993718" fill="#fdff18" stroke="none" /><path d="M 79.16333360222342 97.38593545837743 l -10.539667094331424 -1.322254217917402 a31.622285002584565,31.622285002584565 0 0,0 0.07240599913608202,-0.5395087951633264 l 10.515345096137509 1.5034813551453878" fill="#ff790b" stroke="none" /><path d="M 79.21141760316559 97.0276538004421 l -33.25223322986017 -4.754395811165956 a54.59040479515317,54.59040479515317 0 0,0 0.14100989213809123,-0.929079006126797 l 33.16546744428277 5.326073929684846" fill="#6cff28" stroke="none" /><path d="M 79.26566170972629 96.67025291283419 l -10.378826461179841 -1.6667456030426715 a31.511806677091666,31.511806677091666 0 0,0 0.09061615930305582,-0.5348217016933169 l 10.348598440356561 1.8451530930518163" fill="#ff780b" stroke="none" /><path d="M 79.32604984820605 96.31383870115002 l -10.384852443718438 -1.8516171748136334 a31.548632444059734,31.548632444059734 0 0,0 0.09992544993573745,-0.5338057492119028 l 10.35144126987284 2.030101001488109" fill="#ff780b" stroke="none" /><path d="M 79.46518482838121 95.60439243477599 l -33.107196355572746 -7.086805581042889 a54.85718924940389,54.85718924940389 0 0,0 0.20559850986759842,-0.9216578059199514 l 32.98030345870311 7.6556415565128" fill="#6aff28" stroke="none" /><path d="M 79.62865764111835 94.90015583598534 l -5.027603025659824 -1.258630457320597 a26.18275436536586,26.18275436536586 0 0,0 0.11321381610066396,-0.43625901625798114 l 5.005192877688852 1.3449858991274422" fill="#ff2d04" stroke="none" /><path d="M 79.81627453868168 94.20196356495316 l -32.280744303382896 -9.273061704101286 a54.586249063395826,54.586249063395826 0 0,0 0.2671973572623191,-0.9008566577670114 l 32.11634104900887 9.827347748614836" fill="#6dff28" stroke="none" /><path d="M 79.91906864156998 93.8553929516997 l -10.040940203536925 -3.0724487248602683 a31.500496242459192,31.500496242459192 0 0,0 0.16311934404513034,-0.517132897003484 l 9.98656537572359 3.244831788290167" fill="#ff780b" stroke="none" /><path d="M 80.14247586403 93.16781622104843 l -19.846735697544556 -6.828471906640307 a41.98859086332299,41.98859086332299 0 0,0 0.24102834617671265,-0.6814195918677327 l 19.726254270558034 7.169089124934652" fill="#fdff18" stroke="none" /><path d="M 80.2630227832202 92.82701384747504 l -59.210931650339425 -21.518958457574875 a84.0,84.0 0 0,0 0.5055816459934896,-1.3547074518826343 l 58.83174541584431 22.534989046486853" fill="#4dd2ff" stroke="none" /><path d="M 80.52162464483688 92.15188598940014 l -9.747433219907087 -3.92737925138411 a31.508889673069685,31.508889673069685 0 0,0 0.20702587834185698,-0.501329585550173 l 9.678385654679031 4.094583407387595" fill="#ff780b" stroke="none" /><path d="M 80.65960295795068 91.81776055985345 l -9.680550311554413 -4.095499197317947 a31.51124007954191,31.51124007954191 0 0,0 0.21564085446703982,-0.49772882331052803 l 9.608618747244693 4.261527165215075" fill="#ff780b" stroke="none" /><path d="M 80.803312248108 91.48605970444005 l -9.697851934924199 -4.301103056749328 a31.60885571852551,31.60885571852551 0 0,0 0.22487094322797258,-0.4954733156297641 l 9.622378674732873 4.467398381221163" fill="#ff790b" stroke="none" /><path d="M 80.95270993114464 91.15688171328213 l -9.58079270852307 -4.448091192800588 a31.563006398897947,31.563006398897947 0 0,0 0.23302788189854723,-0.4908161487974542 l 9.502806632782772 4.612349757238574" fill="#ff790b" stroke="none" /><path d="M 81.10775173730289 90.83032412892265 l -18.917342643329143 -9.181855857989513 a42.02789408576179,42.02789408576179 0 0,0 0.32149335054914824,-0.6481109769169123 l 18.75648927982658 9.506126423405385" fill="#fdff18" stroke="none" /><path d="M 81.26839172434947 90.50648371742162 l -35.57249785156262 -18.028782291202706 a60.880315875165934,60.880315875165934 0 0,0 0.48179686688976836,-0.9306781939683524 l 35.256891551512744 18.638433207431394" fill="#30ff33" stroke="none" /><path d="M 81.6062741919709 89.86733742301443 l -9.219224435106588 -5.078649719876679 a31.52553001810692,31.52553001810692 0 0,0 0.2659288927101781,-0.4730578269881638 l 9.13043790110398 5.236591056799627" fill="#ff780b" stroke="none" /><line stroke="#e1ed5e" stroke-width="0.3" x1="26.266209847984243" x2="21.928928074336255" y1="57.711370442889674" y2="55.22380399835377" /><path d="M 25.398753493254645 57.213857153982495 a86.0,86.0 0 0,1 29.58750427330803,-30.492523968695096" fill="none" id="id59" stroke="none" /><text fill="#e1ed5e" style="font-size:6.75px; font-family:Arial;" text-anchor="middle"><textPath startOffset="21.46611528233685" xlink:href="#id59">November</textPath></text><path d="M 81.96595687620814 89.24020034530311 l -9.112881244840327 -5.43709337936362 a31.611625181775047,31.611625181775047 0 0,0 0.28282499819776796,-0.4648899332109956 l 9.017940448356343 5.59315108578169" fill="#ff790b" stroke="none" /><path d="M 82.15384107792192 88.93136811851018 l -8.938284141455368 -5.54374626192152 a31.517891709366538,31.517891709366538 0 0,0 0.2899231858456085,-0.4585888548040748 l 8.841533359363797 5.69678276443981" fill="#ff780b" stroke="none" /><path d="M 82.34701348167596 88.62581576622439 l -6.786498188712813 -4.372681110954159 a29.073221027786715,29.073221027786715 0 0,0 0.27467737489979754,-0.41835248650389484 l 6.710224178455095 4.488851661435721" fill="#ff5608" stroke="none" /><path d="M 82.54541684631803 88.32363383020206 l -19.414059920365087 -12.987171935112217 a44.35749039309858,44.35749039309858 0 0,0 0.4300047527794647,-0.6309789149042834 l 19.18763070191688 13.319428873286917" fill="#e0ff1b" stroke="none" /><path d="M 82.7489923806493 88.02491185347247 l -8.636564549186156 -5.995222078718878 a31.513464461604336,31.513464461604336 0 0,0 0.3131648733045617,-0.44294950437150643 l 8.532087056077716 6.14299808342217" fill="#ff780b" stroke="none" /><line stroke="#e1ed5e" stroke-width="0.3" x1="56.762969772571076" x2="54.21961505331055" y1="26.818313649435495" y2="22.513508569990535" /><path d="M 56.25429882871897 25.957352633546506 a86.0,86.0 0 0,1 42.265352541879196,-11.944610805530505" fill="none" id="id60" stroke="none" /><text fill="#e1ed5e" style="font-size:6.75px; font-family:Arial;" text-anchor="middle"><textPath startOffset="22.20632615414155" xlink:href="#id60">December</textPath></text></svg>