<?xml version="1.0" encoding="utf-8" ?>
<svg baseProfile="full" height="200mm" version="1.1" viewBox="0,0,200,200" width="200mm" xmlns="http://www.w3.org/2000/svg" xmlns:ev="http://www.w3.org/2001/xml-events" xmlns:xlink="http://www.w3.org/1999/xlink"><defs /><rect fill="#1a1a1a" height="200" width="200" x="0" y="0" /><text alignment-baseline="middle" fill="#e1ed5e" style="dominant-baseline: central; font-size:9.0px; font-family:Arial;" text-anchor="middle" x="100.0" y="100.0">2021</text><line stroke="#e1ed5e" stroke-width="0.3" x1="100.0" x2="100.0" y1="15.0" y2="10.0" /><path d="M 100.0 14.0 a86.0,86.0 0 0,1 42.46469731375804,11.215312516191453" fill="none" id="id37" stroke="none" /><text fill="#e1ed5e" style="font-size:6.75px; font-family:Arial;" text-anchor="middle"><textPath startOffset="22.20632615414155" xlink:href="#id37">January</textPath></text><path d="M 100.0 79.0 l 0.0 -15.002574735262868 a36.00257473526287,36.00257473526287 0 0,0 0.6197251414451354,0.0053341699466280664 l -0.258244662172607 15.0003519419248" fill="#ff9f0e" stroke="none" /><path d="M 100.36148047927253 79.00311137660856 l 0.5136398865067539 -29.835191961729127 a50.83961302239419,50.83961302239419 0 0,0 0.8748610487282574,0.02259507979714307 l -1.027127570429879 29.821930089789625" fill="#a2ff22" stroke="none" /><path d="M 100.72285384407766 79.0124445844662 l 0.21988780709422995 -6.384288572856438 a27.388074140867026,27.388074140867026 0 0,0 0.4710216218654671,0.02028318185782826 l -0.3297502613490286 6.379557664474414" fill="#ff2203" stroke="none" /><path d="M 102.88285421437855 79.19881850522331 l 2.049148883656068 -14.785596034011471 a35.92691733843142,35.92691733843142 0 0,0 0.6118371465618397,0.09016889099182174 l -2.3033550106465634 14.74813265885868" fill="#ff9e0e" stroke="none" /><path d="M 110.05341064243156 81.56283822128135 l 2.0581285714154536 -3.7744453879596076 a25.299108186957636,25.299108186957636 0 0,0 0.3805418497247799,0.2117711273679212 l -2.1227945102122687 3.7384588630315063" fill="#ff0200" stroke="none" /><line stroke="#e1ed5e" stroke-width="0.3" x1="143.23703022742887" x2="145.7803849466894" y1="26.81831364943548" y2="22.513508569990506" /><path d="M 143.74570117128098 25.957352633546492 a86.0,86.0 0 0,1 28.547481713284135,27.462654790039103" fill="none" id="id38" stroke="none" /><text fill="#e1ed5e" style="font-size:6.75px; font-family:Arial;" text-anchor="middle"><textPath startOffset="19.985693538727396" xlink:href="#id38">February</textPath></text><line stroke="#e1ed5e" stroke-width="0.3" x1="172.23445277983987" x2="176.4835382374775" y1="55.19839476539836" y2="52.563006222186495" /><path d="M 173.08426987136738 54.67131705675599 a86.0,86.0 0 0,1 12.851231095245387,41.99856678651699" fill="none" id="id39" stroke="none" /><text fill="#e1ed5e" style="font-size:6.75px; font-family:Arial;" text-anchor="middle"><textPath startOffset="22.20632615414155" xlink:href="#id39">March</textPath></text><line stroke="#e1ed5e" stroke-width="0.3" x1="184.98032266829074" x2="189.97916517819016" y1="98.17113171792111" y2="98.06355123074" /><path d="M 185.9800911702706 98.14961562048488 a86.0,86.0 0 0,1 -9.607161424134198,41.387399972396054" fill="none" id="id40" stroke="none" /><text fill="#e1ed5e" style="font-size:6.75px; font-family:Arial;" text-anchor="middle"><textPath startOffset="21.466115282336823" xlink:href="#id40">April</textPath></text><path d="M 120.23288151984713 105.62410040840565 l 8.635900724812549 2.4005069542727178 a29.963326110676192,29.963326110676192 0 0,0 -0.14240764615373702,0.49573969838918147 l -8.593300441772714 -2.548804128166481" fill="#ff4906" stroke="none" /><line stroke="#e1ed5e" stroke-width="0.3" x1="174.80103733775053" x2="179.2010983576182" y1="140.37084112569926" y2="142.7455964860345" /><path d="M 175.68104954172406 140.8457921977663 a86.0,86.0 0 0,1 -30.038265399797805,32.042727171017184" fill="none" id="id41" stroke="none" /><text fill="#e1ed5e" style="font-size:6.75px; font-family:Arial;" text-anchor="middle"><textPath startOffset="22.206326154141568" xlink:href="#id41">May</textPath></text><path d="M 118.30583269289576 110.29060199501025 l 13.078577667288053 7.352106822604251 a36.00342189403037,36.00342189403037 0 0,0 -0.30834016949167026,0.5376170755789598 l -12.950085501644004 -7.576143744041526" fill="#ff9f0e" stroke="none" /><path d="M 117.94076556474637 110.91462005526583 l 12.754767302969455 7.75961530196871 a35.9296925148325,35.9296925148325 0 0,0 -0.32599413856823367,0.5256063501654389 l -12.619308524733258 -7.978017983499422" fill="#ff9e0e" stroke="none" /><path d="M 117.35343817320211 111.8261652097733 l 12.341310599131686 8.41045887240029 a35.934649836824995,35.934649836824995 0 0,0 -0.35273981518139974,0.5081480123473797 l -12.19470987678815 -8.62164814693469" fill="#ff9e0e" stroke="none" /><path d="M 116.93607887273984 112.41649034213515 l 12.100142631609367 8.871079619596154 a36.00364973339836,36.00364973339836 0 0,0 -0.37073255298588803,0.4966568389725424 l -11.945648811928388 -9.078049338078012" fill="#ff9f0e" stroke="none" /><path d="M 116.71984013943494 112.70617746262583 l 11.927570088359763 9.064310482440337 a35.980942985500356,35.980942985500356 0 0,0 -0.378987585640859,0.4898925424814739 l -11.769775685500836 -9.268281019035063" fill="#ff9e0e" stroke="none" /><path d="M 116.498646956653 112.99209946851258 l 11.98278630393171 9.436019328108179 a36.25206964205594,36.25206964205594 0 0,0 -0.39028302842899293,0.4869380867241364 l -11.818585363447863 -9.640885248410566" fill="#ffa20f" stroke="none" /><path d="M 116.27256486870786 113.27417163493432 l 11.55382883186128 9.42491292504878 a35.91039718856277,35.91039718856277 0 0,0 -0.39485020744051413,0.47562251097962094 l -11.389882624527223 -9.622396693142171" fill="#ff9d0e" stroke="none" /><path d="M 115.80600337817218 113.82643327865902 l 11.324897042225034 9.906548138427311 a36.04636132212619,36.04636132212619 0 0,0 -0.4125439974357835,0.46349755446799246 l -11.152694195140912 -10.10001986263617" fill="#ff9f0e" stroke="none" /><path d="M 115.56566222782051 114.09645910891815 l 3.6195662492935745 3.27792463169306 a25.883241722880943,25.883241722880943 0 0,0 -0.3019139539397469,0.32766796827150646 l -3.5626058873581057 -3.3397438547659015" fill="#ff0b01" stroke="none" /><path d="M 115.32070863581623 114.36230785411682 l 15.658376867665986 14.67885294440357 a42.462839744388035,42.462839744388035 0 0,0 -0.5044857298128448,0.5289512708013991 l -15.403384586474177 -14.946211331787476" fill="#fff517" stroke="none" /><path d="M 114.81725581225074 114.88116024355365 l 10.696272429241672 10.742403724760413 a36.15946838336694,36.15946838336694 0 0,0 -0.4448476370908958,0.4353770409099449 l -10.509774839774982 -10.92493086859293" fill="#ffa10e" stroke="none" /><path d="M 114.55890576462653 115.13401014063108 l 10.402226725487798 10.813134399919948 a36.0043392523358,36.0043392523358 0 0,0 -0.4503357013345274,0.42582051414902183 l -10.214555189762464 -10.99058955081489" fill="#ff9f0e" stroke="none" /><path d="M 114.29624159901734 115.38237550388516 l 13.547753372724257 14.57702209142824 a40.9005325180546,40.9005325180546 0 0,0 -0.5198271693387597,0.4748497942077329 l -13.294826653918633 -14.808064652222557" fill="#ffe115" stroke="none" /><path d="M 113.75828350139079 115.86535959552629 l 3.017995777903022 3.4802007292095194 a25.606527502472,25.606527502472 0 0,0 -0.33548760670996985,0.2859098166864288 l -2.957642694616005 -3.5316349361188952" fill="#ff0701" stroke="none" /><path d="M 113.48314897796784 116.09983520530334 l 19.11875286729077 22.82914555029226 a50.77745116286765,50.77745116286765 0 0,0 -0.6749287340914034,0.5554203992429496 l -18.722954004654675 -23.154861068392385" fill="#a3ff22" stroke="none" /><path d="M 112.92097659922987 116.55440617244103 l 9.193488851705489 11.778734171069717 a35.941847808726955,35.941847808726955 0 0,0 -0.490984932437278,0.3764663095213347 l -8.989375190774716 -11.935239822418422" fill="#ff9e0e" stroke="none" /><path d="M 112.63410532772338 116.77436683061366 l 8.978954064974435 11.921403639924494 a35.92452615150397,35.92452615150397 0 0,0 -0.4971527252484946,0.3677817008957784 l -8.772416369307376 -12.074195289560041" fill="#ff9e0e" stroke="none" /><path d="M 112.34349029814194 116.9893568818739 l 8.810982570253769 12.127277111283917 a35.990138891524204,35.990138891524204 0 0,0 -0.5043292544142195,0.35982553225233505 l -8.600925987990665 -12.277146905380471" fill="#ff9f0e" stroke="none" /><path d="M 111.45004920935366 117.60387380957326 l 9.049500800450067 13.913151569743139 a37.59726638154586,37.59726638154586 0 0,0 -0.5455510123688656,0.3481964679465883 l -8.808667986034271 -14.066862466513536" fill="#ffb510" stroke="none" /><line stroke="#e1ed5e" stroke-width="0.3" x1="143.8653032363475" x2="146.44561519142675" y1="172.8068346515853" y2="177.08958963109032" /><path d="M 144.38136562736335 173.6633856474863 a86.0,86.0 0 0,1 -40.68145358897372,12.25698825130547" fill="none" id="id42" stroke="none" /><text fill="#e1ed5e" style="font-size:6.75px; font-family:Arial;" text-anchor="middle"><textPath startOffset="21.466115282336833" xlink:href="#id42">June</textPath></text><path d="M 110.5260780823613 118.17145234162733 l 7.873390081803217 13.592045538620368 a36.707767928772284,36.707767928772284 0 0,0 -0.5494824815228585,0.3120104936205391 l -7.63825883335916 -13.725559198035535" fill="#ffa80f" stroke="none" /><path d="M 110.21172684928248 118.3499491758327 l 7.60243108214949 13.661178567463928 a36.63408961887351,36.63408961887351 0 0,0 -0.5536583025233334,0.3018986510864956 l -7.366149967757508 -13.790017870310194" fill="#ffa70f" stroke="none" /><path d="M 109.89434966115114 118.52300852407294 l 11.646416151651385 21.803016169820797 a45.71862705084798,45.71862705084798 0 0,0 -0.6973377223040409,0.36481413809335167 l -11.269387526820848 -22.000259726858864" fill="#e0ff1b" stroke="none" /><path d="M 108.92500713936063 119.00905698771935 l 8.980787528774712 19.127861665924396 a42.13124787010307,42.13124787010307 0 0,0 -0.6591173001706953,0.30256842484626345 l -8.650202232836596 -19.27961716110473" fill="#fff116" stroke="none" /><path d="M 108.59647513512805 119.15986991738527 l 6.143135801122555 13.69185404298704 a36.00683126464392,36.00683126464392 0 0,0 -0.567672257276686,0.24885083524025217 l -5.906542869188115 -13.795569431521749" fill="#ff9f0e" stroke="none" /><path d="M 108.2653958097858 119.30500536409082 l 2.260683305806683 5.280146813228002 a26.743747851220043,26.743747851220043 0 0,0 -0.4247525327802539,0.1775465931505965 l -2.169459313528968 -5.318278449398572" fill="#ff1802" stroke="none" /><path d="M 107.93186726928326 119.44442032107085 l 5.649463153776167 13.849265553879166 a35.957225354581595,35.957225354581595 0 0,0 -0.5751082933627139,0.22884745881152085 l -5.410233784371586 -13.944459857096755" fill="#ff9e0e" stroke="none" /><path d="M 107.59598834532513 119.57807347666477 l 5.441532543812412 14.025129992990005 a36.04375444314475,36.04375444314475 0 0,0 -0.5803555587062571,0.21944081325156925 l -5.199306764345879 -14.116719056348206" fill="#ff9f0e" stroke="none" /><path d="M 106.91757812671514 119.82793768551818 l 6.254878260298153 17.928433059069274 a39.98821250156735,39.98821250156735 0 0,0 -0.6518654983344985,0.22114816948643654 l -5.945343029026428 -18.033444215453834" fill="#ffd513" stroke="none" /><path d="M 106.2309692047433 120.05430185196036 l 4.459201246067197 14.351887301769029 a36.028677416047174,36.028677416047174 0 0,0 -0.5938298519768317,0.17891606314006478 l -4.2114964196501194 -14.42651873401482" fill="#ff9f0e" stroke="none" /><path d="M 105.53697534728816 120.25689768951611 l 6.38447515048689 23.357456339048476 a45.2142992790983,45.2142992790983 0 0,0 -0.7525157009345751,0.19874623612559522 l -5.9814690067408165 -23.463893924477656" fill="#e6ff1a" stroke="none" /><path d="M 105.18746579009965 120.34920634021253 l 1.725851647192812 6.770109472017845 a27.986626236691347,27.986626236691347 0 0,0 -0.46783872435761736,0.11498337598748976 l -1.6090596380919837 -6.798814106319365" fill="#ff2b04" stroke="none" /><path d="M 104.83641907484287 120.43548508189849 l 0.9540330774725021 4.031108227105083 a25.1424645624973,25.1424645624973 0 0,0 -0.42201010251830035,0.0960481253862309 l -0.8845028255613396 -4.046933086068998" fill="#ff0000" stroke="none" /><path d="M 103.7750983002368 120.6578951692458 l 3.2162006545984796 17.59952474927272 a38.89098147254372,38.89098147254372 0 0,0 -0.6595744310432331,0.11467546930919617 l -2.9127772520831963 -17.652278797102923" fill="#ffc612" stroke="none" /><path d="M 103.06178313531738 120.77559828337769 l 3.2505044380468027 22.05615859733207 a43.29439192201544,43.29439192201544 0 0,0 -0.7382135194869323,0.10230966718397969 l -2.87036232737304 -22.108842830008655" fill="#feff18" stroke="none" /><path d="M 102.70371172650421 120.8252237178851 l 1.930622739760665 14.870538924775241 a35.995340345471874,35.995340345471874 0 0,0 -0.6151305022820053,0.07448373728873926 l -1.6743648144272794 -14.901568190789332" fill="#ff9f0e" stroke="none" /><path d="M 101.62511606390274 120.93702456842531 l 2.309448682447421 29.75355722458306 a50.84305146484516,50.84305146484516 0 0,0 -0.87313798637412,0.06021670760830533 l -1.7969479352943707 -29.78890227670765" fill="#a2ff22" stroke="none" /><path d="M 101.26447882468166 120.96189622390904 l 1.077804213757523 17.867298081614685 a38.89977660923357,38.89977660923357 0 0,0 -0.6687277853325503,0.03456558802073701 l -0.7700883600114932 -17.88320347639762" fill="#ffc612" stroke="none" /><path d="M 100.90346689309514 120.98055641714683 l 0.565719272393878 13.13728837375018 a34.14946326319936,34.14946326319936 0 0,0 -0.5875002894394307,0.020234697858318797 l -0.33949863127979496 -13.145079870034593" fill="#ff850c" stroke="none" /><line stroke="#e1ed5e" stroke-width="0.3" x1="102.19456741930631" x2="102.32365962044197" y1="184.97166512339345" y2="189.96999836594603" /><path d="M 102.22038585953345 185.97133177190398 a86.0,86.0 0 0,1 -42.740103519485714,-10.115201625700543" fill="none" id="id43" stroke="none" /><text fill="#e1ed5e" style="font-size:6.75px; font-family:Arial;" text-anchor="middle"><textPath startOffset="22.20632615414155" xlink:href="#id43">July</textPath></text><path d="M 99.45781275523022 120.99299961872073 l -0.38728624395557504 14.995373000977558 a36.0003733977926,36.0003733977926 0 0,0 -0.6193429638445737,-0.021331423948791634 l 0.6453495594747918 -14.986484778602673" fill="#ff9f0e" stroke="none" /><path d="M 99.09653310690486 120.98055641714683 l -0.7718728381465698 17.924643117932217 a38.941254654664014,38.941254654664014 0 0,0 -0.6694408362515463,-0.03460244460849216 l 1.0803017428116048 -17.90870086656152" fill="#ffc712" stroke="none" /><path d="M 98.37488393609728 120.93702456842531 l -1.16081922627935 14.955301470434604 a36.00028477555287,36.00028477555287 0 0,0 -0.6174146249922874,-0.053273131789588354 l 1.418078169013179 -14.933104086366352" fill="#ff9f0e" stroke="none" /><path d="M 98.01472825383883 120.90594882070398 l -1.6522732313024382 17.399300462629768 a38.477576016706294,38.477576016706294 0 0,0 -0.6588229570113323,-0.0682896932587675 l 1.9515287849193639 -17.36828140091524" fill="#ffc111" stroke="none" /><path d="M 97.65516085044442 120.86867818915974 l -1.6698853435790142 14.861701645739618 a35.95522292938757,35.95522292938757 0 0,0 -0.61444492892529,-0.07440072390279807 l 1.9254576955556937 -14.83075539311147" fill="#ff9e0e" stroke="none" /><path d="M 96.22490169976321 120.6578951692458 l -5.370819257372211 29.38991580293481 a50.87662715901776,50.87662715901776 0 0,0 -0.86013572870536,-0.16484705954666592 l 5.8759226006492655 -29.293111545039675" fill="#a2ff22" stroke="none" /><path d="M 95.86986931433489 120.58985236759428 l -3.5433284260145617 17.664479585297034 a39.01635410825338,39.01635410825338 0 0,0 -0.6573485346378415,-0.13775377671344918 l 3.8468684220817897 -17.600869827857043" fill="#ffc812" stroke="none" /><path d="M 95.16358092515715 120.4354850818985 l -6.948002843205449 29.35763139093294 a51.16861389582031,51.16861389582031 0 0,0 -0.8553606586843158,-0.21022683908317227 l 7.452316786632975 -29.233683293535737" fill="#9eff22" stroke="none" /><path d="M 94.81253420990036 120.34920634021253 l -4.768224813954683 18.704622746788587 a40.30282051867276,40.30282051867276 0 0,0 -0.6707724263299686,-0.17715709434945745 l 5.0894876830961415 -18.619774303135546" fill="#ffd914" stroke="none" /><path d="M 94.11515582081647 120.15858648285463 l -4.590996419925317 15.72649938649363 a37.38291888160201,37.38291888160201 0 0,0 -0.6161506549234624,-0.18564113796754608 l 4.8610220492890255 -15.645142879420359" fill="#ffb210" stroke="none" /><path d="M 93.76903079525671 120.05430185196036 l -9.188659465814235 29.573593527317602 a51.968191695636655,51.968191695636655 0 0,0 -0.8519780540490453,-0.2727764683263193 l 9.69635886495422 -29.411044212331575" fill="#95ff23" stroke="none" /><path d="M 93.42475214034765 119.94407469862007 l -4.454408777987817 13.511134987248235 a35.22647272534757,35.22647272534757 0 0,0 -0.5742422769403698,-0.19481415830650486 l 4.686320787865413 -13.432457842043608" fill="#ff940d" stroke="none" /><path d="M 92.40401165467489 119.57807347666478 l -11.06164728242892 28.51054180482335 a51.58122029294199,51.58122029294199 0 0,0 -0.8250021318305347,-0.3282853743589301 l 11.550770490301312 -28.315909586058357" fill="#99ff23" stroke="none" /><path d="M 92.06813273071674 119.44442032107085 l -13.745961030748195 33.69726634660144 a57.39309280471565,57.39309280471565 0 0,0 -0.9115349751468338,-0.3810216935390533 l 14.32396746539249 -33.45565961004242" fill="#59ff2a" stroke="none" /><path d="M 90.10565033884886 118.52300852407294 l -9.011508315702686 16.870259396825784 a40.12623680288852,40.12623680288852 0 0,0 -0.6064358193711348,-0.33067716135434216 l 9.30056694694246 -16.712641583711676" fill="#ffd714" stroke="none" /><line stroke="#e1ed5e" stroke-width="0.3" x1="58.666819895761336" x2="56.23545636021788" y1="174.27360380694188" y2="178.64263932499728" /><path d="M 58.180547188652646 175.14741091055294 a86.0,86.0 0 0,1 -31.652253787137756,-30.449443065178592" fill="none" id="id44" stroke="none" /><text fill="#e1ed5e" style="font-size:6.75px; font-family:Arial;" text-anchor="middle"><textPath startOffset="22.20632615414155" xlink:href="#id44">August</textPath></text><path d="M 89.7882731507175 118.34994917583269 l -7.351452288764455 13.210182553684843 a36.11796196104685,36.11796196104685 0 0,0 -0.5406536132737148,-0.306997231809368 l 7.577754668959377 -13.081682156080843" fill="#ffa00e" stroke="none" /><path d="M 89.4739219176387 118.17145234162733 l -7.524821674440747 12.990302500745894 a36.01235825222068,36.01235825222068 0 0,0 -0.5337239489584407,-0.3153335166898719 l 7.747313494427569 -12.858850411762274" fill="#ff9f0e" stroke="none" /><path d="M 89.1626897886671 117.98757091392108 l -7.811826482722178 12.965927899551147 a36.13736830801571,36.13736830801571 0 0,0 -0.5300505285036109,-0.3256003267784396 l 8.033856211158097 -12.82953910594433" fill="#ffa10e" stroke="none" /><path d="M 88.54995079064634 117.60387380957326 l -13.032293510932684 20.03649471029038 a44.90192030843113,44.90192030843113 0 0,0 -0.6442897459091542,-0.4270001115425531 l 13.3752579555818 -19.809196577656508" fill="#eaff1a" stroke="none" /><path d="M 87.95078237400918 117.19931262002967 l -8.535445044099399 12.183677996477114 a35.87601531401072,35.87601531401072 0 0,0 -0.5027300425041995,-0.3586845370162483 l 8.743902414452485 -12.034949197616646" fill="#ff9d0e" stroke="none" /><path d="M 87.36589467227662 116.77436683061367 l -9.575470625924185 12.713401755687425 a36.91603662691981,36.91603662691981 0 0,0 -0.5042928745783573,-0.38667027207534843 l 9.79289222899603 -12.546692141784709" fill="#ffab0f" stroke="none" /><path d="M 87.07902340077011 116.55440617244103 l -22.562796696888913 28.90754410380808 a57.67050450837499,57.67050450837499 0 0,0 -0.7772954377288267,-0.6175305060070357 l 23.057049627335097 -28.51487968379591" fill="#56ff2b" stroke="none" /><path d="M 86.79598089348748 116.32954008644616 l -9.394768507919634 11.618602466069536 a35.941673218952275,35.941673218952275 0 0,0 -0.4777330774045214,-0.39314179880159444 l 9.593371713868844 -11.45516554841076" fill="#ff9e0e" stroke="none" /><path d="M 86.51685102203217 116.09983520530335 l -9.576354496921379 11.434845785649495 a35.91516890927797,35.91516890927797 0 0,0 -0.47054775626231954,-0.4010110062023165 l 9.771767729760754 -11.268310389224226" fill="#ff9e0e" stroke="none" /><path d="M 85.44109423537348 115.13401014063109 l -10.580379167566383 10.998324201171807 a36.26130920214757,36.26130920214757 0 0,0 -0.4461005218709941,-0.43660325236456626 l 10.768129641813172 -10.81457084588467" fill="#ffa20f" stroke="none" /><path d="M 85.18274418774928 114.88116024355367 l -32.39763178050067 32.53735753409014 a66.91607757949409,66.91607757949409 0 0,0 -0.8092364398011316,-0.8197522410881986 l 32.95290884535733 -31.97486479902128" fill="#37ff74" stroke="none" /><path d="M 84.9287848128048 114.62390073753433 l -10.040518763683815 9.74251564520252 a34.99030479085079,34.99030479085079 0 0,0 -0.4157072290747976,-0.4358673677093247 l 10.206732544137571 -9.568241160910695" fill="#ff910d" stroke="none" /><path d="M 84.43433777217949 114.09645910891817 l -18.183570706065463 16.467269889362388 a45.53188173034395,45.53188173034395 0 0,0 -0.5211040396546035,-0.5854659127379478 l 18.464333595368405 -16.151829806883576" fill="#e2ff1b" stroke="none" /><path d="M 83.95833913139862 113.55231037782056 l -9.431530367284227 7.967942217595319 a33.34673512520384,33.34673512520384 0 0,0 -0.36666164432858483,-0.4416675708135515 l 9.567288011506347 -7.8044133896680075" fill="#ff790b" stroke="none" /><path d="M 83.72743513129214 113.27417163493432 l -11.617774676383517 9.477076067268685 a35.99292030313024,35.99292030313024 0 0,0 -0.38749307492260343,-0.48345719074995197 l 11.77918566336098 -9.275691042940473" fill="#ff9f0e" stroke="none" /><path d="M 83.50135304334701 112.99209946851258 l -49.2773232583605 38.8041447881582 a83.72173658508908,83.72173658508908 0 0,0 -0.8818417801564922,-1.1398993743205021 l 49.93797185573506 -37.950167419724444" fill="#4dd5ff" stroke="none" /><path d="M 83.06392112726016 112.41649034213515 l -13.361355994566452 9.795723609400337 a37.56749936005129,37.56749936005129 0 0,0 -0.37785785784567943,-0.5248115161654725 l 13.527993644787738 -9.564278487783726" fill="#ffb410" stroke="none" /><path d="M 82.85270091963577 112.12312394758628 l -19.600069200644423 13.857230062125534 a45.003865056792954,45.003865056792954 0 0,0 -0.4417645674764306,-0.6363948078081545 l 19.835694675282987 -13.517793992130368" fill="#e9ff1a" stroke="none" /><path d="M 82.05923443525364 110.91462005526583 l -29.314216748349466 17.833884338506365 a55.312836288602476,55.312836288602476 0 0,0 -0.4878569095248577,-0.8176762418406706 l 29.616854533572553 -17.326646002779587" fill="#6fff27" stroke="none" /><line stroke="#e1ed5e" stroke-width="0.3" x1="26.63291911575756" x2="22.317208475507996" y1="142.92168965132927" y2="145.44649492493687" /><path d="M 25.769776987707644 143.4266507060508 a86.0,86.0 0 0,1 -11.730757126820373,-40.83630448921669" fill="none" id="id45" stroke="none" /><text fill="#e1ed5e" style="font-size:6.75px; font-family:Arial;" text-anchor="middle"><textPath startOffset="21.46611528233685" xlink:href="#id45">September</textPath></text><path d="M 81.87401531095188 110.60418214915194 l -22.043860840140535 12.896243687144109 a46.53908577020105,46.53908577020105 0 0,0 -0.398569603650665,-0.6949396994968151 l 22.26258243994358 -12.514884141788986" fill="#d6ff1c" stroke="none" /><path d="M 81.51974371655577 109.97397251340807 l -33.154150804991446 17.893614880796495 a58.674648891560715,58.674648891560715 0 0,0 -0.4720445124292691,-0.8929303228969655 l 33.4572478256456 -17.320269542813403" fill="#4bff2c" stroke="none" /><path d="M 81.18737489456691 109.33194174019688 l -6.7742055310717975 3.360322708701858 a28.561853561384346,28.561853561384346 0 0,0 -0.21468550331961,-0.4423157245840216 l 6.831044291006126 -3.2432180281525516" fill="#ff3404" stroke="none" /><path d="M 80.87730276802145 108.67885076344099 l -28.526982198662576 12.946992687804752 a52.327517185708814,52.327517185708814 0 0,0 -0.3651935313067997,-0.8234150048202155 l 28.745616814700657 -12.45402934649184" fill="#91ff24" stroke="none" /><path d="M 80.73074385275274 108.34839909993369 l -22.65677427074482 9.816040250018048 a45.691781356262226,45.691781356262226 0 0,0 -0.30645917007643775,-0.724378951485322 l 22.822384422013563 -9.424586772866567" fill="#e0ff1b" stroke="none" /><path d="M 80.58989483394504 108.01547362559985 l -13.736142593750493 5.672390115136279 a35.86127931821962,35.86127931821962 0 0,0 -0.23070309929890848,-0.5725861726364175 l 13.831748307306789 -5.435104574657057" fill="#ff9d0e" stroke="none" /><path d="M 80.45479744820244 107.68017299344265 l -27.665459778550858 10.870980563097769 a50.72466792349184,50.72466792349184 0 0,0 -0.3123328442012921,-0.8154024986278527 l 27.84848690234566 -10.39315449763676" fill="#a3ff21" stroke="none" /><path d="M 80.20201598880116 107.00284435728193 l -4.8416947968834405 1.7125801833589507 a26.135653745201477,26.135653745201477 0 0,0 -0.1463710723680307,-0.4254228510817293 l 4.8704567001946995 -1.6289846291879244" fill="#ff0f01" stroke="none" /><path d="M 80.0844068197444 106.66101706037122 l -9.27849366962126 3.1033072461615934 a30.783708940952856,30.783708940952856 0 0,0 -0.1637513729126097,-0.5039749046029867 l 9.33053729355012 -2.9431334415808035" fill="#ff5507" stroke="none" /><path d="M 79.97269907076064 106.31721596034903 l -20.54844261096389 6.481599796245102 a42.54645283230539,42.54645283230539 0 0,0 -0.21429883973755393,-0.7003410075102146 l 20.656968223207574 -6.126931816182839" fill="#fff617" stroke="none" /><path d="M 79.86692584326677 105.97154293290107 l -29.906671568638693 8.870427430108647 a52.194446414502146,52.194446414502146 0 0,0 -0.24806619361052376,-0.8635509631854626 l 30.05493039913532 -8.35431899141859" fill="#92ff23" stroke="none" /><path d="M 79.76711848015287 105.62410040840567 l -14.336008796674777 3.9849565099857873 a35.87955061837604,35.87955061837604 0 0,0 -0.16028236492869125,-0.5964703064029654 l 14.402479237945244 -3.737595270407283" fill="#ff9d0e" stroke="none" /><path d="M 79.67330655649465 105.27499134158121 l -30.041869416045216 7.796181975932018 a52.036983929057286,52.036983929057286 0 0,0 -0.2175361155800524,-0.8689486469355102 l 30.171616845920326 -7.2779054895991155" fill="#94ff23" stroke="none" /><path d="M 79.29508885075956 103.50808413554451 l -14.648380232796027 2.481911172460197 a35.85715068620333,35.85715068620333 0 0,0 -0.09786995099695306,-0.6094362782822003 l 14.688931938154273 -2.229395664484783" fill="#ff9d0e" stroke="none" /><path d="M 79.23777060512086 103.15116336523772 l -44.11320252630029 6.6952303184972495 a65.61839022358507,65.61839022358507 0 0,0 -0.15987748602632626,-1.1181827648984253 l 44.22191406334322 -5.934902081618424" fill="#35ff65" stroke="none" /><path d="M 79.10278846688536 102.07522291339032 l -11.840930234188248 1.175877925095643 a32.899172984104425,32.899172984104425 0 0,0 -0.051111847655083,-0.5640149797922762 l 11.859416678120406 -0.9718815567548007" fill="#ff730a" stroke="none" /><path d="M 79.07016306316243 101.71520430193888 l -44.486492282350056 3.6456768951964333 a65.63562428836143,65.63562428836143 0 0,0 -0.08258662228158306,-1.1268288456552373 l 44.54265546329598 -2.8793749130444355" fill="#35ff65" stroke="none" /><path d="M 79.04373962182676 101.35467743843564 l -21.27728804049562 1.375429658698891 a42.32169770689582,42.32169770689582 0 0,0 -0.04073694987100711,-0.7273856054819217 l 21.297811341254157 -1.0089723368815318" fill="#fff316" stroke="none" /><path d="M 79.0235259727143 100.99374915477108 l -23.804624940379686 1.1277312804513242 a44.83132279990045,44.83132279990045 0 0,0 -0.029882995269425533,-0.7711473257992483 l 23.82051006850031 -0.7178067076380792" fill="#ebff1a" stroke="none" /><line stroke="#e1ed5e" stroke-width="0.3" x1="15.007084014347285" x2="10.007500721073583" y1="101.09737516637583" y2="101.16192664675087" /><path d="M 14.007167355692545 101.11028546245083 a86.0,86.0 0 0,1 10.666146001902534,-42.60595125391555" fill="none" id="id46" stroke="none" /><text fill="#e1ed5e" style="font-size:6.75px; font-family:Arial;" text-anchor="middle"><textPath startOffset="22.20632615414155" xlink:href="#id46">October</textPath></text><path d="M 79.12142395522702 97.74499172005258 l -29.55646054488016 -3.1922705414256516 a50.72835264777905,50.72835264777905 0 0,0 0.1012384453418036,-0.8673491744118879 l 29.497131746534766 3.7005634541624013" fill="#a3ff21" stroke="none" /><path d="M 79.16333360222342 97.38593545837743 l -14.792356610988207 -1.8557754952561192 a35.9083103266413,35.9083103266413 0 0,0 0.08221977274180069,-0.6126328074993217 l 14.758220839188573 2.1101266448201" fill="#ff9d0e" stroke="none" /><path d="M 79.21141760316559 97.0276538004421 l -44.15746163511751 -6.3136225822330125 a65.6065381773542,65.6065381773542 0 0,0 0.16946514514147087,-1.1165635703556422 l 44.042240596536736 7.072785264980746" fill="#35ff65" stroke="none" /><path d="M 79.32604984820605 96.31383870115002 l -29.278192901827193 -5.22029611093044 a50.73994067045864,50.73994067045864 0 0,0 0.16071097250248223,-0.8585244413553506 l 29.18399620541485 5.723498629748364" fill="#a3ff21" stroke="none" /><path d="M 79.46518482838121 95.60439243477599 l -14.579170154720366 -3.1207639363293587 a35.90943895478911,35.90943895478911 0 0,0 0.13458449549283752,-0.6033159039267949 l 14.52329127222549 3.371258009806113" fill="#ff9d0e" stroke="none" /><path d="M 79.54389044137918 95.25157060432595 l -28.99651616587718 -6.730894226960328 a50.767480357808324,50.767480357808324 0 0,0 0.2049246260831191,-0.8495448737702541 l 28.876358739533245 7.229024332389979" fill="#a3ff22" stroke="none" /><path d="M 79.71946130924805 94.55025226153421 l -14.401252070600732 -3.8698770333265795 a35.91214302017153,35.91214302017153 0 0,0 0.16556050198407296,-0.5956092135203839 l 14.332504798050298 4.117197550265906" fill="#ff9d0e" stroke="none" /><path d="M 80.02781315780177 93.51064311812611 l -28.289957581765734 -9.191964423909122 a50.74582172252963,50.74582172252963 0 0,0 0.2770787261181155,-0.828430123847231 l 28.127541561875844 9.677567650678673" fill="#a3ff21" stroke="none" /><path d="M 80.38941819471856 92.48833698450439 l -27.781641000063008 -10.641516263109924 a50.74998226948068,50.74998226948068 0 0,0 0.31949880949595993,-0.8130896207661494 l 27.594348640685357 11.118154888771837" fill="#a3ff22" stroke="none" /><path d="M 80.803312248108 91.48605970444005 l -57.59006325567602 -25.54182088667983 a84.0,84.0 0 0,0 0.5975907321465934,-1.3167119646317162 l 57.141870206566075 26.529354860153617" fill="#4dd2ff" stroke="none" /><path d="M 81.26839172434947 90.50648371742162 l -15.786613761486702 -8.000940046684011 a38.69836759944242,38.69836759944242 0 0,0 0.30625255462521966,-0.5915824573056112 l 15.646551773701368 8.271495226249957" fill="#ffc312" stroke="none" /><line stroke="#e1ed5e" stroke-width="0.3" x1="26.266209847984243" x2="21.928928074336255" y1="57.711370442889674" y2="55.22380399835377" /><path d="M 25.398753493254645 57.213857153982495 a86.0,86.0 0 0,1 29.58750427330803,-30.492523968695096" fill="none" id="id47" stroke="none" /><text fill="#e1ed5e" style="font-size:6.75px; font-family:Arial;" text-anchor="middle"><textPath startOffset="21.46611528233685" xlink:href="#id47">November</textPath></text><path d="M 81.78341655067845 89.55222093294921 l -25.805419381701427 -14.80021328821943 a50.74837781866901,50.74837781866901 0 0,0 0.4411250193867991,-0.7540256509079918 l 25.546834687844303 15.242218351481313" fill="#a3ff21" stroke="none" /><path d="M 81.96595687620814 89.24020034530311 l -14.080297897359351 -8.400844082166179 a37.39600470148898,37.39600470148898 0 0,0 0.33457707098210165,-0.5499567335771216 l 13.933605028091032 8.641968588950375" fill="#ffb210" stroke="none" /><path d="M 83.17141714833178 87.43820079747576 l -25.02975225378663 -18.683612558013326 a52.23404994719529,52.23404994719529 0 0,0 0.5440401649041536,-0.7158930853425555 l 24.704436148658367 19.111690419236908" fill="#92ff23" stroke="none" /><path d="M 83.6137871275137 86.86637796730984 l -14.950797187072348 -11.9831300173157 a40.16042122555929,40.16042122555929 0 0,0 0.4369865147089309,-0.5356937971660353 l 14.742312180287025 12.238707984089817" fill="#ffd714" stroke="none" /><path d="M 83.84228863543731 86.58626213691792 l -22.888271488434 -19.00128470906242 a50.747635071096155,50.747635071096155 0 0,0 0.5637564120340629,-0.6673097739224194 l 22.557804462912813 19.392453432613955" fill="#a3ff21" stroke="none" /><path d="M 84.07557802195018 86.31012108654704 l -11.295754023032014 -9.710713834675408 a35.89604048490069,35.89604048490069 0 0,0 0.40683570003549974,-0.4650835338024209 l 11.126926459418671 9.903712924680772" fill="#ff9d0e" stroke="none" /><path d="M 84.80347519578584 85.50635884689758 l -12.27174708786605 -11.704142947461051 a37.95826461413877,37.95826461413877 0 0,0 0.45502150910438527,-0.4689396626519222 l 12.068461315058547 11.913646805663097" fill="#ffba11" stroke="none" /><path d="M 85.05521093208273 85.24692304244772 l -21.174435448690097 -20.902809286071978 a50.75372502092201,50.75372502092201 0 0,0 0.6191089218339382,-0.6164502713714158 l 20.811490726688845 21.264195408093503" fill="#a3ff22" stroke="none" /><path d="M 85.83668400450813 84.49514656593479 l -10.04299274694718 -10.994256615495946 a35.890781774057736,35.890781774057736 0 0,0 0.45972504494344285,-0.41274568449906884 l 9.852256714407766 11.165501308764293" fill="#ff9d0e" stroke="none" /><path d="M 86.93701828274178 83.55741782278169 l -9.263242455809037 -11.659790130909418 a35.891553535207656,35.891553535207656 0 0,0 0.4870440143946099,-0.380145578599136 l 9.061165886255 11.817514098731776" fill="#ff9d0e" stroke="none" /><path d="M 87.22198572758235 83.33499621200491 l -18.098415776024172 -23.603837109119695 a50.74380237756593,50.74380237756593 0 0,0 0.6977365766403009,-0.5255207239292369 l 17.68943304562548 23.911874422554785" fill="#a3ff21" stroke="none" /><path d="M 87.80319425747018 82.90503203632743 l -8.648586977407104 -12.121806350844132 a35.8908107876348,35.8908107876348 0 0,0 0.5060072118720718,-0.35449038870699323 l 8.438648625951373 12.268881582315068" fill="#ff9d0e" stroke="none" /><path d="M 88.09926311788651 82.69761687909137 l -18.301240835496547 -26.608022987190306 a53.29430760065455,53.29430760065455 0 0,0 0.7603202081909516,-0.5133715985668147 l 17.840515932899056 26.919106498055786" fill="#86ff25" stroke="none" /><line stroke="#e1ed5e" stroke-width="0.3" x1="56.762969772571076" x2="54.21961505331055" y1="26.818313649435495" y2="22.513508569990535" /><path d="M 56.25429882871897 25.957352633546506 a86.0,86.0 0 0,1 42.265352541879196,-11.944610805530505" fill="none" id="id48" stroke="none" /><text fill="#e1ed5e" style="font-size:6.75px; font-family:Arial;" text-anchor="middle"><textPath startOffset="22.20632615414155" xlink:href="#id48">December</textPath></text><path d="M 89.3179101791058 81.91981866633112 l -12.177160513236668 -20.61069265471512 a44.939170617886035,44.939170617886035 0 0,0 0.6693866385511061,-0.38775194696668064 l 11.820577142220243 20.81724875907185" fill="#e9ff1a" stroke="none" /><path d="M 89.63071344664047 81.73862282372117 l -7.6692534180838 -13.506341888364442 a36.53186142084,36.53186142084 0 0,0 0.5495016668667443,-0.3057970826785138 l 7.43562766214501 13.63635436860314" fill="#ffa60f" stroke="none" /><path d="M 89.94658935756843 81.56283822128135 l -11.393272177635371 -20.894362102494533 a44.79876086236088,44.79876086236088 0 0,0 0.6802050862075074,-0.3633420000581376 l 11.03192204489956 21.08738282905442" fill="#ebff1a" stroke="none" /><path d="M 90.26544431104013 81.39251694778311 l -6.615258794426781 -12.644985537750562 a35.27085520097383,35.27085520097383 0 0,0 0.5403822740327922,-0.2768047893209899 l 6.396616032805225 12.756982852384057" fill="#ff950d" stroke="none" /><path d="M 90.58718382345135 81.22770947309562 l -11.172384775091835 -22.281456361478487 a45.925598872467916,45.925598872467916 0 0,0 0.7097226863747343,-0.3482578399122953 l 10.787190821706675 22.47046936152561" fill="#ddff1b" stroke="none" /><path d="M 91.56875222667455 80.76684994638697 l -8.36520116664643 -19.082486198043696 a41.835495435841956,41.835495435841956 0 0,0 0.6620292682961766,-0.28344638278677614 l 8.035488140559945 19.22365210879326" fill="#ffed16" stroke="none" /><path d="M 92.57280143429618 80.3572730644239 l -13.677640931411577 -36.173284390050135 a59.67278584498497,59.67278584498497 0 0,0 0.9639077918574924,-0.3550153744935983 l 13.052950813781516 36.40336303235005" fill="#40ff2d" stroke="none" /><path d="M 94.63758080256005 79.69619591428918 l -3.9024459630457375 -14.775886660740877 a36.28253614769329,36.28253614769329 0 0,0 0.6052119004048649,-0.15428198901828227 l 3.647525173955873 14.840871645928022" fill="#ffa30f" stroke="none" /><path d="M 94.98787191387505 79.60689891045804 l -10.643479612651655 -43.30566816242235 a65.59444531843369,65.59444531843369 0 0,0 1.0987891490407748,-0.26004789112436727 l 9.896466776648346 43.482461965687584" fill="#35ff65" stroke="none" /><path d="M 95.33964822691252 79.52364482259891 l -1.0691179792642056 -4.69742211229175 a25.817549974274627,25.817549974274627 0 0,0 0.4341740770450077,-0.09489363667854124 l 0.9881011780656769 4.715129247066159" fill="#ff0a01" stroke="none" /><path d="M 96.04723909329186 79.375362276772 l -4.204773131288844 -21.939582127019534 a43.33887600112959,43.33887600112959 0 0,0 0.7338817024723053,-0.1341121902730256 l 3.826496307713646 22.0087097986433" fill="#feff18" stroke="none" /><path d="M 97.47563105711357 79.15227682838746 l -1.7967702161209589 -14.838785025558558 a35.94717111176159,35.94717111176159 0 0,0 0.6149247989513501,-0.06909396606454775 l 1.541078713659891 14.867514945093705" fill="#ff9e0e" stroke="none" /><path d="M 98.19473922651362 79.07773832637324 l -0.7808796113476045 -9.050087280555317 a30.083713599243843,30.083713599243843 0 0,0 0.5163078819800593,-0.040075428587440044 l 0.624981540005211 9.06218797133122" fill="#ff4a06" stroke="none" /><path d="M 98.55514903715128 79.0497635885617 l -0.9300716063516244 -13.485972279255032 a34.518005825926274,34.518005825926274 0 0,0 0.5931145952556759,-0.035778292111521476 l 0.6977949622563255 13.49998384074686" fill="#ff8a0c" stroke="none" /></svg>