<?xml version="1.0" encoding="utf-8" ?>
<svg baseProfile="full" height="200mm" version="1.1" viewBox="0,0,200,200" width="200mm" xmlns="http://www.w3.org/2000/svg" xmlns:ev="http://www.w3.org/2001/xml-events" xmlns:xlink="http://www.w3.org/1999/xlink"><defs /><rect fill="#1a1a1a" height="200" width="200" x="0" y="0" /><text alignment-baseline="middle" fill="#e1ed5e" style="dominant-baseline: central; font-size:9.0px; font-family:Arial;" text-anchor="middle" x="100.0" y="100.0">2022</text><line stroke="#e1ed5e" stroke-width="0.3" x1="100.0" x2="100.0" y1="15.0" y2="10.0" /><path d="M 100.0 14.0 a86.0,86.0 0 0,1 42.46469731375804,11.215312516191453" fill="none" id="id49" stroke="none" /><text fill="#e1ed5e" style="font-size:6.75px; font-family:Arial;" text-anchor="middle"><textPath startOffset="22.20632615414155" xlink:href="#id49">January</textPath></text><path d="M 100.36148047927253 79.00311137660856 l 0.4932657139069914 -28.65174152000156 a49.655987213730704,49.655987213730704 0 0,0 0.8544929134355469,0.022069030954384786 l -0.9863852625374061 28.639005696904817" fill="#a8ff21" stroke="none" /><path d="M 101.08401301168833 79.027996857942 l 0.8883461151788346 -17.186507281632213 a38.20945064091095,38.20945064091095 0 0,0 0.656543804010966,0.039604515201298866 l -1.1840519680294124 17.168669497050608" fill="#ffc912" stroke="none" /><path d="M 101.44485096284872 79.0497635885617 l 1.1831834388387377 -17.15607588543063 a38.19682711538953,38.19682711538953 0 0,0 0.6555481536960445,0.05088315351359862 l -1.4783217818971233 17.133167469728566" fill="#ffc912" stroke="none" /><path d="M 102.16513564639614 79.11191278185805 l 2.077140030728861 -20.0391519110486 a41.146516324698396,41.146516324698396 0 0,0 0.7038666046863004,0.07908761425965757 l -2.4217733389248868 20.00042834331834" fill="#ffef16" stroke="none" /><path d="M 102.52436894288641 79.15227682838746 l 5.1693205822536745 -42.69128915875473 a64.00311669307843,64.00311669307843 0 0,0 1.092579745907725,0.14184820826749064 l -5.903415056669246 42.595982627323096" fill="#33ff56" stroke="none" /><path d="M 103.2404852339499 79.25152402106235 l 3.5402934282298455 -22.668115374956013 a43.94291028205194,43.94291028205194 0 0,0 0.7463406045175072,0.1231525946384547 l -3.9299632388862276 22.603816517377933" fill="#ecff1a" stroke="none" /><path d="M 103.59715602781102 79.31037775812273 l 4.91343321165187 -28.26040246067174 a49.6843541528218,49.6843541528218 0 0,0 0.8413332734092752,0.15374827804859809 l -5.3991616061640455 28.171638701272407" fill="#a7ff21" stroke="none" /><path d="M 103.95276090670814 79.375362276772 l 0.5504795027093778 -2.872281067690181 a23.924555729459538,23.924555729459538 0 0,0 0.4037936280522001,0.0809972030940444 l -0.5998395402287033 2.8623799085189283" fill="#ff0000" stroke="none" /><path d="M 104.307194497241 79.44645832069477 l 5.9240736127602 -28.269142243085028 a49.8831966951232,49.8831966951232 0 0,0 0.838886374064926,0.18334806936629483 l -6.409802710978654 28.162980675622862" fill="#a5ff21" stroke="none" /><path d="M 104.66035177308747 79.52364482259891 l 3.2100854469112474 -14.104267866718232 a35.46495836954299,35.46495836954299 0 0,0 0.5940824903459727,0.1406001314294461 l -3.4523916242197434 14.046921823147917" fill="#ffa50f" stroke="none" /><path d="M 105.01212808612495 79.60689891045804 l 4.125704164275566 -16.78646288400507 a38.28602820219846,38.28602820219846 0 0,0 0.6386312079421224,0.16280131462145472 l -4.414044260902714 16.712958573214745" fill="#ffca12" stroke="none" /><path d="M 105.71112130821622 79.79150937346287 l 7.794498402045827 -27.58040661291769 a49.66065306781004,49.66065306781004 0 0,0 0.8206063051796754,0.23955748298846052 l -8.26809492494893 27.442150801010527" fill="#a8ff21" stroke="none" /><path d="M 106.0581310904928 79.89281104454417 l 8.26389154551702 -27.428199609921 a49.646082407857065,49.646082407857065 0 0,0 0.8161216111810164,0.25357295727038176 l -8.734798529408755 27.281886517768097" fill="#a8ff21" stroke="none" /><path d="M 106.40334571778207 80.00007090966166 l 8.751374173712001 -27.33365815798596 a49.70044282281975,49.70044282281975 0 0,0 0.8125245601539322,0.2678765726562734 l -9.220581556108352 27.17896786107045" fill="#a7ff21" stroke="none" /><path d="M 107.08798089147638 80.2323363322302 l 10.67758227300092 -29.77869980031202 a52.63513434448804,52.63513434448804 0 0,0 0.8502270407135817,0.3131457944559725 l -11.188591639487079 29.590490738049724" fill="#86ff25" stroke="none" /><path d="M 107.4271985657038 80.35727306442388 l 21.671857732523858 -57.31560558947854 a82.27599906706881,82.27599906706881 0 0,0 1.3203998477178038,0.5122946272720862 l -22.65524074524133 56.934068258315904" fill="#4be2ff" stroke="none" /><path d="M 108.43124777332544 80.76684994638697 l 11.501632692982492 -26.237234795250647 a49.647513754345155,49.647513754345155 0 0,0 0.7797446576118814,0.3498486988592364 l -11.951559469061152 26.03536576587488" fill="#a8ff21" stroke="none" /><path d="M 108.76106565485865 80.91482961587045 l 11.943234377865481 -26.017230325485308 a49.6275587714702,49.6275587714702 0 0,0 0.7732961214302287,0.3630728977804333 l -12.389308710595309 25.807792445064873" fill="#a8ff21" stroke="none" /><path d="M 109.08828744355905 81.06846463323043 l 6.206486248106187 -12.928542878852634 a35.34111894233718,35.34111894233718 0 0,0 0.5461527882281102,0.2679948012680162 l -6.428110303344729 12.819792917449785" fill="#ffa30f" stroke="none" /><path d="M 109.41281617654863 81.2277094730956 l 7.455548206090746 -14.868846298174958 a37.63333367945506,37.63333367945506 0 0,0 0.5765776394494064,0.29534546132300055 l -7.710386333128907 14.738308311539457" fill="#ffc212" stroke="none" /><path d="M 109.73455568895987 81.39251694778311 l 13.289130394858129 -25.402008730759494 a49.66815365887946,49.66815365887946 0 0,0 0.7541398487584144,0.4028353896898529 l -13.724415290144854 25.16949461456789" fill="#a8ff21" stroke="none" /><path d="M 110.05341064243156 81.56283822128135 l 27.72153765242792 -50.83911247944765 a78.90594967283508,78.90594967283508 0 0,0 1.1868804157401398,0.660497666351227 l -28.592542157240093 50.35439941553624" fill="#46fffb" stroke="none" /><line stroke="#e1ed5e" stroke-width="0.3" x1="143.23703022742887" x2="145.7803849466894" y1="26.81831364943548" y2="22.513508569990506" /><path d="M 143.74570117128098 25.957352633546492 a86.0,86.0 0 0,1 28.547481713284135,27.462654790039103" fill="none" id="id50" stroke="none" /><text fill="#e1ed5e" style="font-size:6.75px; font-family:Arial;" text-anchor="middle"><textPath startOffset="19.985693538727396" xlink:href="#id50">February</textPath></text><path d="M 112.48926042617603 83.11751280151076 l 17.039637261972548 -23.03350623862612 a49.65120674010838,49.65120674010838 0 0,0 0.6827131865116188,0.5142054179518586 l -17.43359660224255 22.736784231168414" fill="#a8ff21" stroke="none" /><path d="M 112.77801427241765 83.33499621200491 l 9.77676780053952 -12.75079749926689 a37.06760795803088,37.06760795803088 0 0,0 0.5030029298167631,0.3926017652222507 l -9.994803285515713 12.580617344821416" fill="#ffba11" stroke="none" /><path d="M 113.06298171725822 83.55741782278167 l 8.925743411443024 -11.23497473333529 a35.34899134802168,35.34899134802168 0 0,0 0.47316577771914764,0.3826004857746839 l -9.117812587726663 11.079668150296477" fill="#ffa30f" stroke="none" /><path d="M 113.34407831869373 83.78471172551755 l 9.117921837166556 -11.079800906648723 a35.34916327733616,35.34916327733616 0 0,0 0.46651210367215534,0.3906904706555536 l -9.307291477797829 10.92120927859935" fill="#ffa30f" stroke="none" /><path d="M 114.16331599549186 84.49514656593476 l 23.202874335316107 -25.400631175116043 a55.40298593893774,55.40298593893774 0 0,0 0.6985844709931271,0.6492581313020835 l -23.636666690104082 24.997468457739316" fill="#68ff28" stroke="none" /><path d="M 114.42810811169701 84.74124197986012 l 4.220640647767016 -4.463629869950324 a27.143109887792658,27.143109887792658 0 0,0 0.3367254736304496,0.3239296388452494 l -4.2968493650098845 4.390317144342773" fill="#ff3004" stroke="none" /><path d="M 114.68862486808459 84.99185889309783 l 4.063457389787104 -4.151848279570214 a26.809434576203227,26.809434576203227 0 0,0 0.32702939791331503,0.32562502974907487 l -4.134322587867741 4.08128739917102" fill="#ff2b04" stroke="none" /><path d="M 114.94478906791727 85.2469230424477 l 10.382052418425552 -10.248871202550855 a35.58856995546212,35.58856995546212 0 0,0 0.42661499340436515,0.43966425121982605 l -10.556931675533026 10.068642755780914" fill="#ffa70f" stroke="none" /><path d="M 115.19652480421416 85.50635884689758 l 10.361271417777612 -9.882032356339847 a35.31818804474236,35.31818804474236 0 0,0 0.41580048635487776,0.4435469679928769 l -10.529839226102952 9.702215971468915" fill="#ffa30f" stroke="none" /><path d="M 115.68641384162765 86.03803664274999 l 47.05924152488298 -41.88589007175005 a84.0,84.0 0 0,0 0.9520325456886072,1.0883377751882088 l -47.773265934149435 41.069636740358895" fill="#4dd2ff" stroke="none" /><path d="M 115.9244219780498 86.31012108654704 l 2.491705494225022 -2.1420649710830797 a24.285884753044805,24.285884753044805 0 0,0 0.2697923407123998,0.31934903451867896 l -2.528208448424539 2.098856986935294" fill="#ff0500" stroke="none" /><path d="M 116.38621287248628 86.86637796730983 l 11.197597103577829 -8.974923563923115 a35.35045065049586,35.35045065049586 0 0,0 0.37647543034037373,0.4780855648537422 l -11.350426614512168 8.780845605116335" fill="#ffa30f" stroke="none" /><path d="M 116.82858285166822 87.43820079747576 l 13.79252092727426 -10.295512100584137 a38.2113684215571,38.2113684215571 0 0,0 0.38891419327156806,0.5304785225518576 l -13.967697733059454 10.056571134360786" fill="#ffc912" stroke="none" /><path d="M 117.2510076193507 88.02491185347247 l 23.548238754630823 -16.346421090549235 a49.66574664847664,49.66574664847664 0 0,0 0.4814633767583308,0.7064880959325776 l -23.826126597057886 15.93865497134625" fill="#a8ff21" stroke="none" /><path d="M 117.45458315368197 88.32363383020206 l 19.05909814895515 -12.749717761456504 a43.9304279342603,43.9304279342603 0 0,0 0.4150449863011166,0.6321419887363833 l -19.275739770614194 12.419757708742447" fill="#ecff1a" stroke="none" /><line stroke="#e1ed5e" stroke-width="0.3" x1="172.23445277983987" x2="176.4835382374775" y1="55.19839476539836" y2="52.563006222186495" /><path d="M 173.08426987136738 54.67131705675599 a86.0,86.0 0 0,1 12.851231095245387,41.99856678651699" fill="none" id="id51" stroke="none" /><text fill="#e1ed5e" style="font-size:6.75px; font-family:Arial;" text-anchor="middle"><textPath startOffset="22.20632615414155" xlink:href="#id51">March</textPath></text><path d="M 117.84615892207809 88.93136811851018 l 12.188057343303512 -7.559336475291592 a35.34197719111032,35.34197719111032 0 0,0 0.31619996054944016,0.5197495959616731 l -12.316373102139176 7.348419106122837" fill="#ffa30f" stroke="none" /><path d="M 118.03404312379186 89.2402003453031 l 14.785419628142636 -8.82154666690116 a38.21709380750946,38.21709380750946 0 0,0 0.33219813068670545,0.5678342889497814 l -14.935077433299668 8.565732965597483" fill="#ffc912" stroke="none" /><path d="M 118.3937258080291 89.86733742301442 l 25.11345713362664 -13.834401465610226 a49.67187460062877,49.67187460062877 0 0,0 0.4061075507411434,0.7524556144754974 l -25.347872783586247 13.40006486780227" fill="#a8ff21" stroke="none" /><path d="M 118.56541770881063 90.18545643968196 l 18.50786640867525 -9.78411926548176 a41.934901690778034,41.934901690778034 0 0,0 0.3318659563031046,0.6410593967652636 l -18.67354179813847 9.464087146456151" fill="#fff917" stroke="none" /><path d="M 118.89224826269711 90.83032412892265 l 12.957752687583765 -6.289266926336779 a35.40341047055516,35.40341047055516 0 0,0 0.26138136683412155,0.5505358191119473 l -13.064092248259643 6.065288691584292" fill="#ffa40f" stroke="none" /><path d="M 119.04729006885535 91.15688171328212 l 13.072374937728002 -6.069134110141791 a35.41254229341325,35.41254229341325 0 0,0 0.25193103662254396,0.5550966444733936 l -13.174908291313892 5.843215456826335" fill="#ffa40f" stroke="none" /><path d="M 119.47837535516314 92.15188598940014 l 29.272168444306953 -11.79417231157882 a52.558871113319185,52.558871113319185 0 0,0 0.33088675105319854,0.8420706898871644 l -29.470848745241852 11.28855261679587" fill="#87ff25" stroke="none" /><path d="M 119.61058180528143 92.48833698450437 l 27.279366343369556 -10.449124318813386 a50.21212123632553,50.21212123632553 0 0,0 0.3022181774224594,0.8097944620676918 l -27.45518910929364 9.97800671971636" fill="#a1ff22" stroke="none" /><path d="M 119.85752413597 93.16781622104841 l 13.556876270411582 -4.664381597310102 a35.33685285885901,35.33685285885901 0 0,0 0.19294377039931132,0.5768773151473043 l -13.635157334582663 4.4303311792404845" fill="#ffa30f" stroke="none" /><path d="M 119.97218684219823 93.5106431181261 l 13.67896326657827 -4.444564589357696 a35.38291314154994,35.38291314154994 0 0,0 0.1832237034499728,0.5808692103284672 l -13.753442453796449 4.20844521260281" fill="#ffa40f" stroke="none" /><path d="M 120.08093135843002 93.85539295169968 l 13.794750830130901 -4.221085250848445 a35.426112129064,35.426112129064 0 0,0 0.17340930548225603,0.5846499717026622 l -13.865366032724861 3.9830058923992526" fill="#ffa40f" stroke="none" /><path d="M 120.28053869075195 94.5502522615342 l 13.992362122712775 -3.7600009051446497 a35.48874751591095,35.48874751591095 0 0,0 0.15345278341778085,0.5913161718386475 l -14.055011238000858 3.518588307757152" fill="#ffa50f" stroke="none" /><path d="M 120.37134235888165 94.90015583598534 l 4.29778885413324 -1.0759258285383737 a25.43041819958657,25.43041819958657 0 0,0 0.10265073042739273,0.4255535485910541 l -4.315672384821452 1.0017870482879134" fill="#ff1702" stroke="none" /><path d="M 120.45610955862082 95.25157060432595 l 22.859840116441248 -5.306401810092624 a44.467641345465694,44.467641345465694 0 0,0 0.16665966526992454,0.7471026007287102 l -22.94779416871321 4.91212103981395" fill="#e5ff1a" stroke="none" /><path d="M 120.53481517161879 95.60439243477599 l 14.130090831590932 -3.024635655960831 a35.450186426490134,35.450186426490134 0 0,0 0.1225913094398254,0.5977987622459783 l -14.180061436945754 2.7809612375514408" fill="#ffa50f" stroke="none" /><path d="M 120.6074358757038 95.95851677861258 l 14.19846238331396 -2.7845699890940057 a35.46893790416368,35.46893790416368 0 0,0 0.11234241563721904,0.6001376764984961 l -14.244290522861037 2.5397542351329467" fill="#ffa50f" stroke="none" /><path d="M 120.67395015179393 96.31383870115 l 14.169690938334988 -2.5264531436931787 a35.39316180605255,35.39316180605255 0 0,0 0.10177748363719308,0.6006964697197245 l -14.211080283492404 2.2821708856576164" fill="#ffa40f" stroke="none" /><path d="M 120.73433829027371 96.67025291283417 l 5.678734095970123 -0.9119533042303897 a26.75149369832136,26.75149369832136 0 0,0 0.06910051784903054,0.45528607583893693 l -5.693590507258453 0.8140681159993706" fill="#ff2a04" stroke="none" /><path d="M 120.83666639777658 97.38593545837742 l 16.511150151794787 -2.0714067850036986 a37.64057707545241,37.64057707545241 0 0,0 0.07511920466540067,0.6435754710479615 l -16.544359709463777 1.7868875756308844" fill="#ffc212" stroke="none" /><path d="M 120.87857604477298 97.74499172005257 l 28.48693529166968 -3.076755561073046 a49.65260733501176,49.65260733501176 0 0,0 0.08446351673229884,0.8505360867965802 l -28.53567593408421 2.585943943572031" fill="#a8ff21" stroke="none" /><path d="M 120.94382443527127 98.46500227214037 l 14.350148532504203 -1.0517394022242672 a35.3886385275023,35.3886385275023 0 0,0 0.03929724455332024,0.6079109798677271 l -14.36612636806194 0.8045693581035049" fill="#ffa40f" stroke="none" /><path d="M 120.96714384426684 98.82574320788733 l 8.596450040315597 -0.48144086399531166 a29.609920940471323,29.609920940471323 0 0,0 0.024119947989661855,0.5091339802559646 l -8.603463596538756 0.3333957771163473" fill="#ff5407" stroke="none" /><path d="M 120.98425023603335 99.18683210126433 l 60.681879457413885 -2.351504383272354 a81.7274243431142,81.7274243431142 0 0,0 0.04237491274290376,1.4062170566300949 l -60.71336606461244 1.3066171792172603" fill="#4ae8ff" stroke="none" /><line stroke="#e1ed5e" stroke-width="0.3" x1="184.98032266829074" x2="189.97916517819016" y1="98.17113171792111" y2="98.06355123074" /><path d="M 185.9800911702706 98.14961562048488 a86.0,86.0 0 0,1 -9.607161424134198,41.387399972396054" fill="none" id="id52" stroke="none" /><text fill="#e1ed5e" style="font-size:6.75px; font-family:Arial;" text-anchor="middle"><textPath startOffset="21.466115282336823" xlink:href="#id52">April</textPath></text><path d="M 120.99980553446 99.90962569577887 l 29.133843063153787 -0.12537977038880355 a50.13411285272467,50.13411285272467 0 0,0 -0.0037139892977783614,0.8630003149965142 l -29.131684776566505 -0.37613002281139535" fill="#a2ff22" stroke="none" /><path d="M 120.9764740272857 100.99374915477107 l 18.892823305618066 0.8950373245177093 a39.91401237891064,39.91401237891064 0 0,0 -0.03841942099514817,0.686004570575566 l -18.87461753373539 -1.2201136114286986" fill="#ffe014" stroke="none" /><path d="M 120.89721153311464 102.0752229133903 l 28.512164219986293 2.8314350173419385 a49.65240884751048,49.65240884751048 0 0,0 -0.09178058268519837,0.849774207955971 l -28.459201335800046 -3.321805547182701" fill="#a8ff21" stroke="none" /><path d="M 120.8583938346157 102.4346265915055 l 28.484819607928156 3.3247957547243776 a49.678201040282175,49.678201040282175 0 0,0 -0.10644971762592179,0.8485089862900326 l -28.423368381055386 -3.814622495301805" fill="#a7ff21" stroke="none" /><path d="M 120.70491114924044 103.5080841355445 l 28.24276089125357 4.785240598833382 a49.64528007105613,49.64528007105613 0 0,0 -0.15000807817028025,0.8413249662803197 l -28.1562063707441 -5.270684315846919" fill="#a8ff21" stroke="none" /><path d="M 120.64145759157962 103.86396538481128 l 20.03980774884367 3.751339900114055 a41.38789949104131,41.38789949104131 0 0,0 -0.13711233055182004,0.6991328195208806 l -19.972265485316186 -4.0957364467028805" fill="#fff216" stroke="none" /><path d="M 120.49622156327973 104.57218783832717 l 16.786015956677897 3.7445349511926023 a38.198600922707286,38.198600922707286 0 0,0 -0.14868247722222647,0.6405202204913935 l -16.719072913525117 -4.03292382903256" fill="#ffc912" stroke="none" /><path d="M 120.41448212921028 104.9243191809786 l 3.656365045101987 0.8819772360765693 a24.761235061519145,24.761235061519145 0 0,0 -0.10351220392770588,0.41347979991485106 l -3.6406415268792203 -0.9447848753888164" fill="#ff0d01" stroke="none" /><path d="M 120.23288151984713 105.62410040840565 l 19.353620218676966 5.3796936076167725 a41.08740199430017,41.08740199430017 0 0,0 -0.1952773928691391,0.6797862225646536 l -19.258150188921725 -5.7120373056860085" fill="#ffef16" stroke="none" /><path d="M 120.13307415673323 105.97154293290107 l 30.20409787348814 8.958645152596329 a52.504679832072384,52.504679832072384 0 0,0 -0.2644566402081171,0.8642596015589242 l -30.04541446077389 -9.477231726707311" fill="#87ff25" stroke="none" /><path d="M 120.02730092923936 106.31721596034902 l 57.98191516158004 18.289248319805807 a81.79801879920254,81.79801879920254 0 0,0 -0.43511774054236324,1.3391547068001342 l -57.658505170021435 -19.284601926583736" fill="#4ae7ff" stroke="none" /><path d="M 119.79798401119884 107.00284435728193 l 51.32907717546642 18.15586568103999 a75.44547384597689,75.44547384597689 0 0,0 -0.44360407794965884,1.2206079021469984 l -51.008948836511536 -19.03672138019312" fill="#42ffd7" stroke="none" /><path d="M 119.26925614724726 108.34839909993367 l 13.17913827231107 5.709857466718082 a35.3628742907167,35.3628742907167 0 0,0 -0.24679735699199032,0.5564628874174904 l -13.078899830587806 -5.9358686906282605" fill="#ffa40f" stroke="none" /><path d="M 118.97047184881838 109.00673069616215 l 54.87587128593511 26.053763887821315 a81.74668601753399,81.74668601753399 0 0,0 -0.6144499128765338,1.2659488145781452 l -54.41926811644386 -26.994501658364737" fill="#4ae7ff" stroke="none" /><line stroke="#e1ed5e" stroke-width="0.3" x1="174.80103733775053" x2="179.2010983576182" y1="140.37084112569926" y2="142.7455964860345" /><path d="M 175.68104954172406 140.8457921977663 a86.0,86.0 0 0,1 -30.038265399797805,32.042727171017184" fill="none" id="id53" stroke="none" /><text fill="#e1ed5e" style="font-size:6.75px; font-family:Arial;" text-anchor="middle"><textPath startOffset="22.206326154141568" xlink:href="#id53">May</textPath></text><path d="M 118.48025628344425 109.97397251340804 l 12.622349958055862 6.812403984302472 a35.34338058161231,35.34338058161231 0 0,0 -0.2935580639603149,0.5328931557916661 l -12.503215484644038 -7.028667658491943" fill="#ffa30f" stroke="none" /><path d="M 118.12598468904814 110.60418214915192 l 12.394064981589645 7.25085698172372 a35.35924001252428,35.35924001252428 0 0,0 -0.31186702243314063,0.5227070681555582 l -12.267417083458277 -7.463126143765382" fill="#ffa30f" stroke="none" /><path d="M 117.75023020441432 111.22182372390056 l 24.212032079202903 15.307021535003534 a49.644849548870255,49.644849548870255 0 0,0 -0.46286762381175395,0.7183808310976605 l -23.9449595920141 -15.721523966022648" fill="#a8ff21" stroke="none" /><path d="M 117.55443506779139 111.5257021239791 l 23.963026259520664 15.733385984210615 a49.66646232172069,49.66646232172069 0 0,0 -0.4753716519952994,0.7106161204602487 l -23.68865150211464 -16.14353901887667" fill="#a8ff21" stroke="none" /><path d="M 117.35343817320211 111.8261652097733 l 11.85257069299941 8.077388340967795 a35.34320865229782,35.34320865229782 0 0,0 -0.34693414140781004,0.4997845062689128 l -11.711775644429464 -8.280214109423728" fill="#ffa30f" stroke="none" /><path d="M 116.93607887273984 112.41649034213515 l 25.43855272657934 18.649980708100586 a52.54269717756364,52.54269717756364 0 0,0 -0.5410364896237964,0.724806792770593 l -25.11375497026045 -19.085100380380492" fill="#87ff25" stroke="none" /><path d="M 116.71984013943494 112.70617746262583 l 22.829833649902504 17.349443258952803 a49.6741082839178,49.6741082839178 0 0,0 -0.523217814913052,0.6763295562463462 l -22.527809017771386 -17.739850809312404" fill="#a7ff21" stroke="none" /><path d="M 116.27256486870786 113.27417163493432 l 23.955335445411304 19.541309980352576 a51.91473583989367,51.91473583989367 0 0,0 -0.5708247699953084,0.6875952077989863 l -23.61541467552245 -19.950766445265334" fill="#8eff24" stroke="none" /><path d="M 116.0416608686014 113.55231037782055 l 10.97780351654613 9.274264163891035 a35.370947979501075,35.370947979501075 0 0,0 -0.3969251826167503,0.4617136602641679 l -10.816535824358601 -9.46185492331673" fill="#ffa40f" stroke="none" /><path d="M 115.80600337817218 113.82643327865902 l 10.81541536217441 9.460874789676346 a35.369459323241486,35.369459323241486 0 0,0 -0.4047969781459126,0.4547936961702349 l -10.650959534380158 -9.645642655587448" fill="#ffa40f" stroke="none" /><path d="M 115.32070863581623 114.36230785411682 l 20.907319812779367 19.59944351749077 a49.657533179761785,49.657533179761785 0 0,0 -0.5899632953824887,0.618574156566367 l -20.566849966017916 -19.95642479063964" fill="#a8ff21" stroke="none" /><path d="M 114.81725581225074 114.88116024355365 l 20.24688723789376 20.33420879263955 a49.69523462261016,49.69523462261016 0 0,0 -0.6113698205451149,0.5983540456936007 l -19.89386746497285 -20.679712941255723" fill="#a7ff21" stroke="none" /><path d="M 114.29624159901734 115.38237550388516 l 9.782872042107364 10.526109972043203 a35.37023230625703,35.37023230625703 0 0,0 -0.4495395684762707,0.41064373732278053 l -9.600232924164228 -10.692946475952565" fill="#ffa40f" stroke="none" /><path d="M 113.75828350139079 115.86535959552629 l 19.328083784695878 22.288172758299577 a50.50148246600552,50.50148246600552 0 0,0 -0.6616524433541444,0.5638745664696097 l -18.941565864764687 -22.617571714992135" fill="#9eff22" stroke="none" /><path d="M 113.48314897796784 116.09983520530334 l 18.424921180925278 22.000661356506708 a49.69680854462734,49.69680854462734 0 0,0 -0.6605649419429012,0.5435999761867231 l -18.043486110437684 -22.31455645155061" fill="#a7ff21" stroke="none" /><path d="M 112.92097659922987 116.55440617244103 l 19.38954071562999 24.84195602697347 a52.513125335471834,52.513125335471834 0 0,0 -0.7173574778936825,0.5500391243567676 l -18.959054509242815 -25.17203449315761" fill="#87ff25" stroke="none" /><path d="M 112.63410532772338 116.77436683061366 l 8.64165375130273 11.473568273126126 a35.36387651281822,35.36387651281822 0 0,0 -0.4893940008993765,0.36204198210720323 l -8.44287477998479 -11.620620203973099" fill="#ffa40f" stroke="none" /><line stroke="#e1ed5e" stroke-width="0.3" x1="143.8653032363475" x2="146.44561519142675" y1="172.8068346515853" y2="177.08958963109032" /><path d="M 144.38136562736335 173.6633856474863 a86.0,86.0 0 0,1 -40.68145358897372,12.25698825130547" fill="none" id="id54" stroke="none" /><text fill="#e1ed5e" style="font-size:6.75px; font-family:Arial;" text-anchor="middle"><textPath startOffset="21.466115282336833" xlink:href="#id54">June</textPath></text><path d="M 109.2508944713604 118.85261126421891 l 7.580619531981257 15.44871943149205 a38.20839110903793,38.20839110903793 0 0,0 -0.5929347923108572,0.28464473289720077 l -7.313572071670167 -15.57691844088881" fill="#ffc912" stroke="none" /><path d="M 108.92500713936063 119.00905698771935 l 13.396288616136756 28.532281235387593 a52.52065388252735,52.52065388252735 0 0,0 -0.8216531277920178,0.3771806514282867 l -12.90316749257732 -28.758648957149955" fill="#87ff25" stroke="none" /><path d="M 108.59647513512805 119.15986991738527 l 12.912506899758359 28.77946467799849 a52.54346876277988,52.54346876277988 0 0,0 -0.8283836280534548,0.3631390385878539 l -12.41520259704715 -28.997468269880798" fill="#87ff25" stroke="none" /><path d="M 107.93186726928326 119.44442032107085 l 11.912252223160875 29.20205688447947 a52.53826056257029,52.53826056257029 0 0,0 -0.8403092583041982,0.33437639588589047 l -11.40782188881481 -29.402780124771432" fill="#87ff25" stroke="none" /><path d="M 107.2578585660854 119.70592522655815 l 4.967538409883808 13.487441174818011 a35.3731523090047,35.3731523090047 0 0,0 -0.57318056236283,0.20552215687569886 l -4.7346382868912436 -13.57095087273367" fill="#ffa40f" stroke="none" /><path d="M 106.91757812671514 119.82793768551818 l 9.44257065083095 27.065354236148675 a49.66523225833248,49.66523225833248 0 0,0 -0.8096148677490289,0.274665320452082 l -8.975286050144694 -27.22388254349888" fill="#a8ff21" stroke="none" /><path d="M 106.57524785965236 119.94407469862006 l 8.972292450244376 27.21480234130664 a49.65567131108782,49.65567131108782 0 0,0 -0.8140660822660808,0.2606382521820232 l -8.502505022887355 -27.36521344014837" fill="#a8ff21" stroke="none" /><path d="M 106.2309692047433 120.05430185196036 l 11.324569584820743 36.44799538162387 a59.16676883913966,59.16676883913966 0 0,0 -0.9751952084159657,0.2938183166474541 l -10.69549940196453 -36.637529067377045" fill="#40ff2d" stroke="none" /><path d="M 104.83641907484287 120.43548508189849 l 7.37112284663847 31.145454651118225 a53.005824430017384,53.005824430017384 0 0,0 -0.8896897655428909,0.20249049405636996 l -6.8339129317027165 -31.26772187875228" fill="#82ff25" stroke="none" /><path d="M 104.13013068566511 120.58985236759428 l 2.8223503723669308 14.070203080584035 a35.35048000428126,35.35048000428126 0 0,0 -0.5976459639026306,0.11454027139132159 l -2.579736793892596 -14.116700550323825" fill="#ffa30f" stroke="none" /><path d="M 103.7750983002368 120.6578951692458 l 3.106940836723367 17.001638897205403 a38.28319433883294,38.28319433883294 0 0,0 -0.6492666209100356,0.1128833243912907 l -2.8138252443412815 -17.0526008001177" fill="#ffca12" stroke="none" /><path d="M 103.41894727170886 120.7198165907248 l 5.131191818506457 31.096517413718935 a52.51701960433493,52.51701960433493 0 0,0 -0.8931998072779458,0.13949944031500153 l -4.595156147619994 -31.180235161381045" fill="#87ff25" stroke="none" /><line stroke="#e1ed5e" stroke-width="0.3" x1="102.19456741930631" x2="102.32365962044197" y1="184.97166512339345" y2="189.96999836594603" /><path d="M 102.22038585953345 185.97133177190398 a86.0,86.0 0 0,1 -42.740103519485714,-10.115201625700543" fill="none" id="id55" stroke="none" /><text fill="#e1ed5e" style="font-size:6.75px; font-family:Arial;" text-anchor="middle"><textPath startOffset="22.20632615414155" xlink:href="#id55">July</textPath></text><line stroke="#e1ed5e" stroke-width="0.3" x1="58.666819895761336" x2="56.23545636021788" y1="174.27360380694188" y2="178.64263932499728" /><path d="M 58.180547188652646 175.14741091055294 a86.0,86.0 0 0,1 -31.652253787137756,-30.449443065178592" fill="none" id="id56" stroke="none" /><text fill="#e1ed5e" style="font-size:6.75px; font-family:Arial;" text-anchor="middle"><textPath startOffset="22.20632615414155" xlink:href="#id56">August</textPath></text><line stroke="#e1ed5e" stroke-width="0.3" x1="26.63291911575756" x2="22.317208475507996" y1="142.92168965132927" y2="145.44649492493687" /><path d="M 25.769776987707644 143.4266507060508 a86.0,86.0 0 0,1 -11.730757126820373,-40.83630448921669" fill="none" id="id57" stroke="none" /><text fill="#e1ed5e" style="font-size:6.75px; font-family:Arial;" text-anchor="middle"><textPath startOffset="21.46611528233685" xlink:href="#id57">September</textPath></text><line stroke="#e1ed5e" stroke-width="0.3" x1="15.007084014347285" x2="10.007500721073583" y1="101.09737516637583" y2="101.16192664675087" /><path d="M 14.007167355692545 101.11028546245083 a86.0,86.0 0 0,1 10.666146001902534,-42.60595125391555" fill="none" id="id58" stroke="none" /><text fill="#e1ed5e" style="font-size:6.75px; font-family:Arial;" text-anchor="middle"><textPath startOffset="22.20632615414155" xlink:href="#id58">October</textPath></text><line stroke="#e1ed5e" stroke-width="0.3" x1="26.266209847984243" x2="21.928928074336255" y1="57.711370442889674" y2="55.22380399835377" /><path d="M 25.398753493254645 57.213857153982495 a86.0,86.0 0 0,1 29.58750427330803,-30.492523968695096" fill="none" id="id59" stroke="none" /><text fill="#e1ed5e" style="font-size:6.75px; font-family:Arial;" text-anchor="middle"><textPath startOffset="21.46611528233685" xlink:href="#id59">November</textPath></text><line stroke="#e1ed5e" stroke-width="0.3" x1="56.762969772571076" x2="54.21961505331055" y1="26.818313649435495" y2="22.513508569990535" /><path d="M 56.25429882871897 25.957352633546506 a86.0,86.0 0 0,1 42.265352541879196,-11.944610805530505" fill="none" id="id60" stroke="none" /><text fill="#e1ed5e" style="font-size:6.75px; font-family:Arial;" text-anchor="middle"><textPath startOffset="22.20632615414155" xlink:href="#id60">December</textPath></text></svg>