<?xml version="1.0" encoding="utf-8" ?>
<svg baseProfile="full" height="200mm" version="1.1" viewBox="0,0,200,200" width="200mm" xmlns="http://www.w3.org/2000/svg" xmlns:ev="http://www.w3.org/2001/xml-events" xmlns:xlink="http://www.w3.org/1999/xlink"><defs /><rect fill="#1a1a1a" height="200" width="200" x="0" y="0" /><text alignment-baseline="middle" fill="#e1ed5e" style="dominant-baseline: central; font-size:9.0px; font-family:Arial;" text-anchor="middle" x="100.0" y="100.0">2020</text><line stroke="#e1ed5e" stroke-width="0.3" x1="100.0" x2="100.0" y1="15.0" y2="10.0" /><path d="M 100.0 14.0 a86.0,86.0 0 0,1 42.35913384403234,11.155469271406648" fill="none" id="id25" stroke="none" /><text fill="#e1ed5e" style="font-size:6.75px; font-family:Arial;" text-anchor="middle"><textPath startOffset="22.145653131862478" xlink:href="#id25">January</textPath></text><line stroke="#e1ed5e" stroke-width="0.3" x1="143.13028292997686" x2="145.6673583964461" y1="26.7553504044142" y2="22.446841604673864" /><path d="M 143.63769802327073 25.89364864446614 a86.0,86.0 0 0,1 29.32050498858742,28.57503671076993" fill="none" id="id26" stroke="none" /><text fill="#e1ed5e" style="font-size:6.75px; font-family:Arial;" text-anchor="middle"><textPath startOffset="20.669276256404974" xlink:href="#id26">February</textPath></text><line stroke="#e1ed5e" stroke-width="0.3" x1="172.87174338648825" x2="177.1583165268699" y1="56.24261187166439" y2="53.66864786411523" /><path d="M 173.72905801456457 55.72781907015455 a86.0,86.0 0 0,1 12.242430191666344,42.057860355516425" fill="none" id="id27" stroke="none" /><text fill="#e1ed5e" style="font-size:6.75px; font-family:Arial;" text-anchor="middle"><textPath startOffset="22.145653131862474" xlink:href="#id27">March</textPath></text><path d="M 119.71291397450082 92.76114493625339 l 6.042854661479852 -2.219019933954027 a27.437401799410544,27.437401799410544 0 0,0 0.15856182937202237,0.44352565707767677 l -6.080056660895818 2.114959320495433" fill="#ff0000" stroke="none" /><line stroke="#e1ed5e" stroke-width="0.3" x1="184.99686870605535" x2="189.99668451229388" y1="99.2704041080226" y2="99.22748670261217" /><path d="M 185.99683186730306 99.26182062694052 a86.0,86.0 0 0,1 -10.086455211305974,41.156179273409016" fill="none" id="id28" stroke="none" /><text fill="#e1ed5e" style="font-size:6.75px; font-family:Arial;" text-anchor="middle"><textPath startOffset="21.40746469413373" xlink:href="#id28">April</textPath></text><line stroke="#e1ed5e" stroke-width="0.3" x1="174.33088141563837" x2="178.70328620479359" y1="141.23008692659167" y2="143.65538615756765" /><path d="M 175.20536237346943 141.71514677278685 a86.0,86.0 0 0,1 -30.301960400862466,31.631185727798858" fill="none" id="id29" stroke="none" /><text fill="#e1ed5e" style="font-size:6.75px; font-family:Arial;" text-anchor="middle"><textPath startOffset="22.145653131862474" xlink:href="#id29">May</textPath></text><line stroke="#e1ed5e" stroke-width="0.3" x1="143.1302829299769" x2="145.66735839644613" y1="173.24464959558577" y2="177.55315839532614" /><path d="M 143.63769802327073 174.10635135553383 a86.0,86.0 0 0,1 -40.68552437913181,11.842963189579606" fill="none" id="id30" stroke="none" /><text fill="#e1ed5e" style="font-size:6.75px; font-family:Arial;" text-anchor="middle"><textPath startOffset="21.407464694133747" xlink:href="#id30">June</textPath></text><line stroke="#e1ed5e" stroke-width="0.3" x1="101.45913802915013" x2="101.54496967792366" y1="184.9874750549273" y2="189.98673829345242" /><path d="M 101.47630435890484 185.9873277026323 a86.0,86.0 0 0,1 -42.54439059252881,-10.42667462771756" fill="none" id="id31" stroke="none" /><text fill="#e1ed5e" style="font-size:6.75px; font-family:Arial;" text-anchor="middle"><textPath startOffset="22.145653131862474" xlink:href="#id31">July</textPath></text><path d="M 91.59046798132341 119.24265499422711 l -7.367216277572966 16.857632598621134 a39.39716425187942,39.39716425187942 0 0,0 -0.617384700989934,-0.27614832393642863 l 7.655514381418536 -16.728680523774848" fill="#ffb410" stroke="none" /><line stroke="#e1ed5e" stroke-width="0.3" x1="58.13341422392154" x2="55.67067388415222" y1="173.97424548756322" y2="178.32567169271397" /><path d="M 57.64086615596768 174.84453072859336 a86.0,86.0 0 0,1 -31.369924170532247,-30.572349798747897" fill="none" id="id32" stroke="none" /><text fill="#e1ed5e" style="font-size:6.75px; font-family:Arial;" text-anchor="middle"><textPath startOffset="22.145653131862474" xlink:href="#id32">August</textPath></text><path d="M 87.54013794807813 116.9041958592261 l -8.754217597092289 11.876777466625818 a35.75446267164586,35.75446267164586 0 0,0 -0.4909377354509838,-0.3684088291687238 l 8.95680832145404 -11.72474961019308" fill="#ff800b" stroke="none" /><path d="M 87.2517909369889 116.68781488649013 l -19.631035685118583 25.697655876531602 a53.33801292007656,53.33801292007656 0 0,0 -0.7228318119034045,-0.5620783889452138 l 20.069277441657217 -25.356876435965592" fill="#93ff23" stroke="none" /><path d="M 85.86807049272751 115.53346607816431 l -11.020088585995332 12.113007791387043 a37.37581479491594,37.37581479491594 0 0,0 -0.4708822794103674,-0.4358416079579931 l 11.226400636719667 -11.922048437296672" fill="#ff980e" stroke="none" /><path d="M 85.60350026404147 115.28858382429668 l -21.513969500692422 22.84709006614647 a52.38216704065117,52.38216704065117 0 0,0 -0.6493580633657419,-0.6220703356307202 l 21.903000049923477 -22.47440760021017" fill="#9fff22" stroke="none" /><path d="M 85.34317274990678 115.03919595460226 l -9.178499256831893 9.417948819161271 a34.15076456210835,34.15076456210835 0 0,0 -0.41632722198281336,-0.4127688910398953 l 9.33881839894467 -9.258999917892718" fill="#ff6809" stroke="none" /><path d="M 83.8745106332314 113.45245675266167 l -24.13165911968363 20.131488309837923 a52.42632325675008,52.42632325675008 0 0,0 -0.5705810921882868,-0.696016157281859 l 24.473687031110543 -19.71426987085757" fill="#9eff22" stroke="none" /><path d="M 83.64595745247003 113.17365903436017 l -24.630932851321926 19.840935972772286 a52.62824044113076,52.62824044113076 0 0,0 -0.5607001944261094,-0.7084263790271675 l 24.967899476389597 -19.415189649830438" fill="#9cff22" stroke="none" /><line stroke="#e1ed5e" stroke-width="0.3" x1="26.387840678322732" x2="22.057713659400548" y1="142.50000000000003" y2="145.00000000000006" /><path d="M 25.521815274538298 143.00000000000003 a86.0,86.0 0 0,1 -11.493303480769221,-40.785679425670985" fill="none" id="id33" stroke="none" /><text fill="#e1ed5e" style="font-size:6.75px; font-family:Arial;" text-anchor="middle"><textPath startOffset="21.40746469413373" xlink:href="#id33">September</textPath></text><line stroke="#e1ed5e" stroke-width="0.3" x1="15.003131293944662" x2="10.003315487706104" y1="100.72959589197737" y2="100.7725132973878" /><path d="M 14.003168132696942 100.73817937305945 a86.0,86.0 0 0,1 10.791469493833604,-42.45332614584628" fill="none" id="id34" stroke="none" /><text fill="#e1ed5e" style="font-size:6.75px; font-family:Arial;" text-anchor="middle"><textPath startOffset="22.145653131862435" xlink:href="#id34">October</textPath></text><line stroke="#e1ed5e" stroke-width="0.3" x1="26.387840678322718" x2="22.05771365940052" y1="57.49999999999999" y2="54.99999999999999" /><path d="M 25.521815274538284 56.99999999999999 a86.0,86.0 0 0,1 29.574782752854787,-30.34633250058573" fill="none" id="id35" stroke="none" /><text fill="#e1ed5e" style="font-size:6.75px; font-family:Arial;" text-anchor="middle"><textPath startOffset="21.40746469413373" xlink:href="#id35">November</textPath></text><path d="M 87.54013794807813 83.09580414077388 l -11.384507143925395 -15.445270398638957 a40.187584021891894,40.187584021891894 0 0,0 0.558835127694483,-0.4045535363146432 l 11.117691005856944 15.63842470632668" fill="#ffc011" stroke="none" /><line stroke="#e1ed5e" stroke-width="0.3" x1="56.869717070023135" x2="54.33264160355391" y1="26.7553504044142" y2="22.446841604673864" /><path d="M 56.362301976729285 25.89364864446614 a86.0,86.0 0 0,1 42.16139366436587,-11.88097634709845" fill="none" id="id36" stroke="none" /><text fill="#e1ed5e" style="font-size:6.75px; font-family:Arial;" text-anchor="middle"><textPath startOffset="22.145653131862474" xlink:href="#id36">December</textPath></text><path d="M 90.61103034731259 81.2157712731953 l -21.25170599244964 -42.51764793836757 a68.53299268719036,68.53299268719036 0 0,0 1.0568432032926316,-0.5169549698187081 l 20.518702539894957 42.87619665828349" fill="#38ff80" stroke="none" /><path d="M 90.93487009805054 81.0573650232925 l -21.95804612073594 -45.883871159679714 a71.86733157969321,71.86733157969321 0 0,0 1.117404517367018,-0.5230017351894307 l 21.1671528894974 46.25404912643969" fill="#3cffa8" stroke="none" /><path d="M 92.93061703081487 80.22567764915836 l -18.137688965746595 -50.73434412470638 a74.8790259264428,74.8790259264428 0 0,0 1.2140893391831544,-0.42232329516501843 l 17.264093854518435 51.038225852439986" fill="#41ffcb" stroke="none" /><path d="M 93.27111125876988 80.10723608172694 l -10.660104808922105 -31.514705691086753 a54.26882188074925,54.26882188074925 0 0,0 0.8850398832762042,-0.2909301887586754 l 10.11754218799814 31.693056801247458" fill="#88ff25" stroke="none" /><path d="M 93.95794788825049 79.88797359093562 l -18.126156335248517 -60.33607922719316 a84.0,84.0 0 0,0 1.3845599504735029,-0.4030252227899176 l 17.08773637239339 60.638348144285594" fill="#4dd2ff" stroke="none" /><path d="M 95.35216902796891 79.52079915486377 l -7.3222535003297455 -32.263199968893254 a54.08367374636446,54.08367374636446 0 0,0 0.9071572638466405,-0.19771070344192038 l 6.767333819863986 32.38414213046889" fill="#8bff24" stroke="none" /><path d="M 98.1996594967304 79.07731436759882 l -1.2146740335181863 -14.116353491457328 a35.168516820877294,35.168516820877294 0 0,0 0.6019359691996481,-0.046593650925182056 l 0.972169069543321 14.135124909377563" fill="#ff770b" stroke="none" /></svg>